<svg width="688" height="200" viewBox="0 0 688 200" fill="none" xmlns="http://www.w3.org/2000/svg">
<path d="M215.434 65.1372C218.885 65.1372 221.638 66.0983 223.691 68.0643C225.744 69.9865 226.749 72.564 226.749 75.7532C226.749 78.9861 225.701 81.6073 223.604 83.5295C221.507 85.4954 218.667 86.4566 215.128 86.4566H207.876V95.8493H200.318V65.1372H215.434ZM214.56 80.1219C216.046 80.1219 217.182 79.7287 218.012 78.9424C218.842 78.156 219.279 77.1075 219.279 75.7969C219.279 74.53 218.842 73.5252 218.012 72.7388C217.138 71.9524 216.002 71.5592 214.56 71.5592H207.876V80.0782H214.56V80.1219Z" fill="#00426D"/>
<path d="M255.889 69.1137C259.078 72.2155 260.651 76.0163 260.651 80.5161C260.651 84.9722 259.078 88.773 255.889 91.8748C252.7 94.9766 248.856 96.5493 244.268 96.5493C239.681 96.5493 235.793 94.9766 232.648 91.8748C229.458 88.773 227.886 84.9722 227.886 80.5161C227.886 76.0163 229.458 72.2155 232.648 69.1137C235.793 66.0119 239.681 64.4392 244.268 64.4392C248.856 64.4392 252.744 66.0119 255.889 69.1137ZM250.559 87.0255C252.263 85.3217 253.093 83.1373 253.093 80.5598C253.093 77.9386 252.263 75.7542 250.559 74.0067C248.856 72.2592 246.759 71.3855 244.268 71.3855C241.735 71.3855 239.638 72.2592 237.978 74.0067C236.274 75.7542 235.444 77.9386 235.444 80.5598C235.444 83.1373 236.274 85.3217 237.978 87.0255C239.638 88.773 241.735 89.603 244.268 89.603C246.759 89.603 248.856 88.7293 250.559 87.0255Z" fill="#00426D"/>
<path d="M285.816 95.8493H263.099V65.1372H270.656V89.2525H285.816V95.8493Z" fill="#00426D"/>
<path d="M295.778 65.1372H288.22V95.8493H295.778V65.1372Z" fill="#00426D"/>
<path d="M315.041 71.734V95.8493H307.483V71.734H297.522V65.1372H325.002V71.734H315.041Z" fill="#00426D"/>
<path d="M350.733 95.8493H326.749V65.1372H350.559V71.6466H334.307V77.4133H349.248V83.5732H334.307V89.3399H350.733V95.8493Z" fill="#00426D"/>
<path d="M372.839 95.8493L362.791 84.2722H361.174V95.8493H353.616V65.1372H361.174V77.3259H362.31L372.751 65.1372H381.838L368.776 80.5151L382.755 95.8493H372.839Z" fill="#00426D"/>
<path d="M412.858 95.8493H406.611L391.059 78.0686V95.8493H383.457V65.1372H389.748L405.344 83.4858V65.1372H412.858V95.8493Z" fill="#00426D"/>
<path d="M423.952 65.1372H416.394V95.8493H423.952V65.1372Z" fill="#00426D"/>
<path d="M446.715 95.8493L436.667 84.2722H435.051V95.8493H427.449V65.1372H435.051V77.3259H436.143L446.628 65.1372H455.715L442.609 80.5151L456.632 95.8493H446.715Z" fill="#00426D"/>
<path d="M488.873 95.8493H466.155V65.1372H473.713V89.2525H488.873V95.8493Z" fill="#00426D"/>
<path d="M506.437 65.1372C509.888 65.1372 512.641 66.0983 514.694 68.0643C516.747 69.9865 517.752 72.564 517.752 75.7532C517.752 78.9861 516.704 81.6073 514.607 83.5295C512.51 85.4954 509.67 86.4566 506.131 86.4566H498.879V95.8493H491.321V65.1372H506.437ZM505.563 80.1219C507.049 80.1219 508.185 79.7287 509.015 78.9424C509.845 78.156 510.281 77.1075 510.281 75.7969C510.281 74.53 509.845 73.5252 509.015 72.7388C508.141 71.9524 507.005 71.5592 505.563 71.5592H498.879V80.0782H505.563V80.1219Z" fill="#00426D"/>
<path d="M542.083 86.6311C542.083 89.5144 540.99 91.9172 538.85 93.7521C536.709 95.5869 533.957 96.5044 530.593 96.5044C527.36 96.5044 524.651 95.6306 522.467 93.8831C520.283 92.1357 519.016 89.7765 518.71 86.8058L525.875 85.4952C526.093 87.0243 526.617 88.2038 527.404 89.0339C528.234 89.8639 529.282 90.2571 530.636 90.2571C531.903 90.2571 532.996 89.9076 533.826 89.2086C534.656 88.5096 535.049 87.6359 535.049 86.5437C535.049 85.4952 534.699 84.6651 533.957 84.0535C533.214 83.4419 532.209 83.1361 530.899 83.1361H527.36V77.5441H530.593C531.86 77.5441 532.908 77.2383 533.607 76.6267C534.35 76.0151 534.7 75.185 534.7 74.1802C534.7 73.1317 534.306 72.258 533.564 71.6027C532.821 70.9474 531.816 70.6416 530.593 70.6416C529.326 70.6416 528.234 71.0347 527.447 71.8648C526.617 72.6949 526.137 73.9181 526.006 75.5782L519.059 74.2676C519.409 71.2532 520.589 68.8504 522.686 67.0592C524.783 65.268 527.404 64.3943 530.549 64.3943C533.826 64.3943 536.491 65.3117 538.5 67.1029C540.553 68.8941 541.558 71.2095 541.558 74.0928C541.558 76.9325 540.466 78.9858 538.238 80.2964C540.816 81.5634 542.083 83.704 542.083 86.6311Z" fill="#00426D"/>
<path d="M552.129 65.1372H544.571V95.8493H552.129V65.1372Z" fill="#00426D"/>
<path d="M133.39 167.323C132.691 166.973 131.424 168.546 130.9 169.114C130.725 169.289 130.551 169.42 130.419 169.638C130.288 169.813 130.114 169.988 129.983 170.119C129.764 170.337 129.633 170.468 129.458 170.599C129.284 170.687 129.153 170.774 129.021 170.774C128.628 170.862 128.104 170.556 127.361 169.944C126.662 169.332 126.313 168.808 126.225 168.502C126.182 168.022 126.575 166.93 127.492 165.226C128.41 163.566 128.803 162.211 128.672 161.163C128.628 160.77 128.497 160.464 128.366 160.289C128.191 160.114 127.973 160.027 127.667 160.071C127.536 160.071 127.361 160.289 127.143 160.682C126.968 161.076 126.662 161.6 126.4 162.386C125.876 163.784 125.439 164.876 125.09 165.619C124.784 166.318 124.565 166.711 124.434 166.799C123.648 167.104 123.124 167.454 122.862 167.847C122.643 168.24 122.512 168.852 122.512 169.726V170.294C122.337 170.905 122.163 171.473 121.944 171.997C121.769 172.522 121.551 172.959 121.332 173.395C121.289 173.57 121.245 173.658 121.158 173.745C121.07 173.832 120.939 173.92 120.808 173.92C120.721 173.92 120.721 173.92 120.677 173.92C120.633 173.876 120.634 173.832 120.59 173.745C120.59 173.614 120.59 173.352 120.633 172.915C120.677 172.522 120.765 171.91 120.852 171.211C120.983 170.425 121.114 169.682 121.201 168.896C121.289 168.109 121.42 167.367 121.551 166.58C121.682 165.619 121.813 164.745 122.032 164.003C122.206 163.216 122.381 162.605 122.556 162.08C123.429 159.678 124.041 157.712 124.391 156.052C124.74 154.391 124.871 153.168 124.74 152.294C124.609 151.508 124.434 150.94 124.085 150.547C123.779 150.154 123.342 150.023 122.818 150.11C122.73 150.11 122.599 150.154 122.556 150.241C122.468 150.329 122.381 150.416 122.337 150.547C122.119 151.071 121.944 151.595 121.769 152.163C121.595 152.731 121.464 153.343 121.376 153.955C121.376 154.173 121.289 154.348 121.245 154.523C121.158 154.697 121.114 154.828 121.07 154.916C120.983 155.134 120.852 155.615 120.677 156.27C120.502 156.925 120.284 157.755 120.066 158.804C119.803 159.896 119.629 160.813 119.498 161.469C119.323 162.168 119.236 162.648 119.192 162.954C118.973 163.304 118.755 163.784 118.493 164.396C118.274 165.007 118.012 165.75 117.75 166.624C117.532 167.235 117.357 167.803 117.138 168.328C116.876 168.808 116.614 169.245 116.265 169.595C116.09 169.813 115.959 170.031 115.828 170.163C115.697 170.337 115.609 170.468 115.566 170.643C115.522 170.818 115.478 170.949 115.435 171.036C115.391 171.08 114.91 171.648 114.736 171.823C114.561 172.041 114.386 172.26 114.211 172.434C113.949 172.696 113.731 172.871 113.513 173.002C113.294 173.133 113.032 173.177 112.813 173.221C112.639 173.221 112.464 173.221 112.289 173.177C112.158 173.133 112.027 173.09 111.983 172.915C111.896 172.827 111.765 172.565 111.547 172.041C111.328 171.517 111.197 171.167 111.022 170.905C110.935 170.468 110.804 170.075 110.673 169.682C110.542 169.245 110.411 168.896 110.236 168.459C110.061 168.022 109.799 167.716 109.45 167.541C109.1 167.367 108.707 167.279 108.226 167.367C108.052 167.41 107.877 167.454 107.746 167.585C107.571 167.716 107.44 167.847 107.353 168.109C107.09 168.677 106.523 169.376 105.736 170.25C104.95 171.167 104.426 171.866 104.12 172.434L104.076 172.653C104.076 172.653 103.814 173.046 103.639 173.133C103.508 173.221 103.377 173.264 103.202 173.308C102.984 173.352 102.765 173.264 102.547 173.09C102.329 172.915 102.154 172.653 101.935 172.26C101.63 171.561 101.28 170.862 100.887 170.119C100.581 169.726 100.275 169.464 99.9695 169.289C99.62 169.114 99.2268 169.07 98.8336 169.158C98.6151 169.158 98.3967 169.245 98.1345 169.42C97.8724 169.595 97.5667 169.769 97.2172 169.988C96.9551 170.25 96.693 170.468 96.4745 170.687C96.2561 170.905 96.0813 171.124 95.9066 171.298C95.8192 171.473 95.7318 171.604 95.6881 171.692C95.6444 171.823 95.557 171.954 95.5133 171.997C95.2949 172.216 95.1202 172.434 94.9455 172.696C94.7707 172.915 94.6833 173.177 94.5959 173.395C94.3338 173.701 94.1153 173.963 93.8969 174.225C93.7222 174.488 93.5911 174.706 93.5038 174.924C93.4601 175.012 93.3726 175.099 93.329 175.187C93.2853 175.274 93.2416 175.318 93.1542 175.361C93.0669 175.274 92.9795 175.187 92.9795 175.099C92.9795 175.012 92.9795 174.924 92.9795 174.793C92.9795 174.662 93.0232 174.488 93.0669 174.313C93.1543 174.094 93.198 173.832 93.2853 173.526C93.5911 172.041 93.7659 170.905 93.8533 169.988C93.9843 169.114 93.9843 168.502 93.9406 168.197C93.8533 167.629 93.6785 167.235 93.4164 166.93C93.1543 166.668 92.7611 166.58 92.3242 166.668C91.8437 166.711 91.4068 166.886 91.0136 167.148C90.6204 167.41 90.2709 167.803 89.9651 168.284C89.6156 168.852 89.2661 169.289 89.004 169.726C88.7418 170.075 88.5234 170.425 88.3487 170.687C87.9555 171.298 87.606 171.823 87.3002 172.26C86.9944 172.696 86.7759 173.09 86.5574 173.352C86.339 173.658 86.1206 173.92 85.9459 174.138C85.7711 174.356 85.5964 174.531 85.509 174.662C85.4216 174.837 85.3342 175.012 85.2468 175.099C85.1594 175.23 85.1158 175.318 85.0721 175.449V175.492C84.8974 175.623 84.7663 175.798 84.6352 175.973C84.5042 176.148 84.3294 176.322 84.1984 176.453C83.9799 176.672 83.8052 176.847 83.6741 176.934C83.5431 177.021 83.3683 177.109 83.2373 177.109C82.8441 177.196 82.3199 176.89 81.6209 176.279C80.9219 175.667 80.5286 175.187 80.485 174.837C80.3976 174.357 80.8344 173.264 81.7518 171.561C82.6693 169.857 83.0625 168.502 82.9315 167.498C82.8878 167.104 82.7567 166.799 82.6256 166.624C82.4508 166.449 82.2325 166.362 81.9267 166.405C81.7956 166.449 81.6209 166.624 81.4024 167.017C81.184 167.41 80.9219 167.978 80.616 168.721C80.0918 170.163 79.6549 171.211 79.349 171.954C78.9996 172.696 78.7811 173.09 78.6937 173.133C77.9074 173.439 77.3832 173.789 77.1211 174.182C76.8589 174.575 76.7715 175.187 76.7715 176.06V176.628C76.5968 177.24 76.422 177.808 76.2036 178.332C76.0288 178.856 75.8105 179.293 75.592 179.73C75.5483 179.861 75.5046 180.036 75.4172 180.123C75.3298 180.211 75.2425 180.254 75.1114 180.298C75.0677 180.298 74.9803 180.298 74.9803 180.254C74.9366 180.211 74.893 180.167 74.893 180.08C74.893 179.948 74.893 179.686 74.9367 179.249C74.9804 178.856 75.0677 178.288 75.1988 177.589C75.3298 176.847 75.4172 176.06 75.5483 175.274C75.6357 174.531 75.7667 173.745 75.8978 173.002C76.0726 172.041 76.2037 171.167 76.3784 170.381C76.5532 169.638 76.7279 168.983 76.9026 168.459C77.7764 166.1 78.3443 164.09 78.7375 162.474C79.0433 160.813 79.1743 159.547 79.0433 158.673C78.9559 157.886 78.7375 157.318 78.4317 156.969C78.1259 156.576 77.6889 156.445 77.1647 156.532C77.0773 156.532 76.99 156.576 76.8589 156.707C76.7715 156.794 76.7278 156.882 76.6405 157.013C76.4657 157.493 76.2909 158.061 76.0725 158.585C75.8978 159.153 75.7667 159.765 75.6794 160.42C75.6794 160.639 75.592 160.813 75.5483 160.988C75.4609 161.119 75.4173 161.25 75.3736 161.338C75.2862 161.6 75.1551 162.037 74.9803 162.736C74.8056 163.391 74.5872 164.265 74.3688 165.313C74.1066 166.405 73.8882 167.279 73.7572 167.978C73.6261 168.677 73.5387 169.201 73.495 169.464C73.2766 169.813 73.0581 170.294 72.796 170.905C72.5775 171.517 72.3154 172.26 72.0533 173.133C71.8349 173.745 71.6164 174.313 71.398 174.837C71.1796 175.318 70.8738 175.754 70.568 176.104C70.3932 176.322 70.2622 176.497 70.1311 176.672C70.0001 176.847 69.9126 177.021 69.8689 177.152C69.8253 177.327 69.7816 177.458 69.7379 177.546C69.6942 177.633 69.6506 177.677 69.6069 177.72C69.5195 177.851 69.3884 177.983 69.2136 178.07C69.0826 178.157 68.9952 178.245 68.9079 178.288C68.602 178.55 68.2526 178.725 67.8594 178.944C67.4662 179.118 66.9856 179.293 66.5051 179.381C66.1992 179.337 65.8935 179.337 65.675 179.293C65.4129 179.249 65.2381 179.162 65.1071 179.118C64.9323 179.031 64.7575 178.9 64.6265 178.725C64.4954 178.507 64.4081 178.288 64.3644 178.026C64.3207 177.851 64.3644 177.72 64.408 177.546C64.4517 177.415 64.5392 177.284 64.5829 177.152C65.544 175.929 66.2866 174.881 66.8108 173.963C67.3351 173.046 67.6409 172.26 67.7283 171.604L67.8157 170.949C67.8594 170.599 67.903 170.381 67.903 170.25C67.903 170.075 67.9467 170.031 67.9904 170.163C67.903 169.857 67.8157 169.551 67.7283 169.332C67.6409 169.027 67.4662 168.765 67.3788 168.59C67.2477 168.371 67.1167 168.24 67.0293 168.153C66.8982 168.022 66.6798 167.934 66.4613 167.891C66.2429 167.847 65.9809 167.847 65.675 167.891C65.4566 167.934 65.2381 167.978 65.0634 168.066C64.8449 168.153 64.6702 168.24 64.5391 168.284C64.3644 168.459 64.2333 168.59 64.0585 168.677C63.9275 168.808 63.7528 168.939 63.6654 169.07C63.4033 169.464 63.1411 169.9 62.879 170.294C62.6169 170.687 62.3548 171.08 62.1363 171.429C61.8742 171.997 61.6995 172.522 61.5248 173.002C61.3937 173.439 61.2625 173.832 61.2189 174.138C61.1315 174.444 61.0878 174.75 61.0442 174.968C61.0005 175.23 60.9568 175.449 60.9568 175.667C60.9568 175.929 60.9568 176.191 60.9568 176.453V177.284C60.6073 177.633 60.3451 177.983 60.1267 178.288C59.9082 178.594 59.7335 178.944 59.6025 179.206C58.8161 180.08 58.2482 180.691 57.8113 181.172C57.3745 181.609 57.1123 181.871 57.025 181.871C56.8939 181.914 56.8065 181.871 56.7192 181.74C56.6318 181.652 56.588 181.478 56.5444 181.303C56.5007 181.041 56.5007 180.56 56.5007 179.905C56.5007 179.206 56.5444 178.288 56.5881 177.152C56.7628 175.711 56.8939 174.444 57.025 173.439C57.156 172.391 57.287 171.517 57.4181 170.818C57.4618 170.556 57.4618 170.337 57.4618 170.119C57.5055 169.944 57.5054 169.726 57.5054 169.595L58.8161 169.158C58.9908 169.114 59.0345 168.852 59.0782 168.459C59.0782 168.022 59.0346 167.41 58.9035 166.624C58.8598 166.405 58.8598 166.274 58.8161 166.143C58.7724 166.012 58.685 165.969 58.5976 165.925C58.5103 165.837 58.4229 165.794 58.3792 165.75C58.3355 165.706 58.2919 165.663 58.2482 165.619C58.2482 165.357 58.2919 164.964 58.4229 164.439C58.554 163.959 58.554 163.522 58.554 163.216C58.4666 162.823 58.3355 162.561 58.1608 162.386C57.986 162.211 57.7239 162.124 57.4181 162.211C56.8502 162.299 56.3696 162.998 56.0201 164.308C55.7143 165.619 55.2775 166.318 54.8406 166.405L54.1853 166.318C53.9668 166.362 53.7921 166.449 53.6611 166.493C53.4863 166.536 53.3115 166.58 53.1805 166.668C53.0494 166.624 52.831 166.624 52.5689 166.624C52.3068 166.624 52.0009 166.668 51.6514 166.711C51.4767 166.755 51.3019 166.842 51.0834 166.93C50.8213 166.93 50.5592 166.886 50.2097 166.93C49.9039 166.93 49.5544 166.973 49.1613 167.017C48.8118 167.061 48.5497 167.323 48.4186 167.803C48.2875 168.24 48.2875 168.896 48.4186 169.769C48.4186 169.857 48.5059 169.988 48.5933 170.031C48.6807 170.119 48.8117 170.163 48.9864 170.206C49.0738 170.25 49.2049 170.25 49.336 170.294C49.467 170.294 49.5981 170.381 49.7292 170.425C49.8166 170.425 50.035 170.381 50.2534 170.381C50.5156 170.337 50.6903 170.337 50.7777 170.337L53.2678 170.031C53.3552 170.031 53.4863 169.988 53.6611 169.9C53.8358 169.813 53.9668 169.813 54.0542 169.769C54.1416 169.726 54.2289 169.769 54.2726 169.813C54.3163 169.857 54.36 169.9 54.36 169.988C54.2289 170.337 54.1416 170.643 54.0542 170.905C53.9668 171.167 53.8794 171.342 53.792 171.517C53.1367 173.221 52.4378 174.706 51.7388 176.017C50.9961 177.327 50.2534 178.463 49.4233 179.512C49.2923 179.73 49.1613 179.948 49.0739 180.123C48.9865 180.298 48.8991 180.429 48.8117 180.56L48.768 180.735C48.5933 180.91 48.3749 181.128 48.2002 181.346C48.0254 181.565 47.8069 181.74 47.6758 181.958C47.4574 182.177 47.1953 182.395 46.9769 182.482C46.7585 182.613 46.4963 182.657 46.2779 182.701C46.1031 182.744 45.9284 182.701 45.7536 182.701C45.6226 182.657 45.4915 182.57 45.4478 182.439C45.3605 182.395 45.2294 182.089 45.011 181.565C44.7925 181.041 44.6614 180.691 44.5304 180.429C44.443 180.036 44.2683 179.599 44.1372 179.206C44.0062 178.813 43.8314 178.419 43.7004 178.026C43.5256 177.589 43.2635 177.24 42.914 177.065C42.5645 176.89 42.1713 176.847 41.6907 176.89C41.5159 176.89 41.385 176.978 41.2102 177.065C41.0355 177.196 40.9043 177.371 40.817 177.589C40.5548 178.114 40.0306 178.856 39.2005 179.73C38.4142 180.647 37.89 181.346 37.5841 181.871V182.089L37.4968 182.22C37.2347 182.526 37.0162 182.788 36.7978 182.963C36.5793 183.181 36.4046 183.356 36.2735 183.487C35.7056 183.749 35.3124 183.968 34.9629 184.099C34.6134 184.273 34.4386 184.317 34.395 184.317C33.3902 184.448 32.6038 184.23 31.9922 183.662C31.3805 183.094 30.9874 182.133 30.8126 180.866C31.1621 180.167 31.4679 179.424 31.7737 178.638C31.9922 178.157 32.2106 177.72 32.429 177.371C32.6475 176.978 32.7786 176.716 32.9096 176.453C32.997 176.148 33.0844 175.929 33.1281 175.711C33.1718 175.492 33.2591 175.318 33.3028 175.187C33.4338 174.881 33.5649 174.619 33.6959 174.4C33.7833 174.182 33.9144 174.007 33.9581 173.832C34.0891 173.526 34.1766 173.221 34.2203 173.002C34.2639 172.784 34.3075 172.565 34.3512 172.391C34.4386 172.128 34.5697 171.91 34.6571 171.692C34.7445 171.473 34.8318 171.298 34.9192 171.167C35.0502 170.643 35.1376 170.119 35.225 169.638C35.2687 169.201 35.3561 168.808 35.3998 168.459C35.5308 168.066 35.6182 167.76 35.6618 167.454C35.7055 167.148 35.7929 166.93 35.7929 166.755L35.7493 166.493C35.793 166.362 35.7929 166.231 35.7929 166.143C35.7492 165.837 35.7929 165.444 35.8803 165.007C35.9677 164.571 35.9677 164.265 35.9677 164.003C35.9677 163.784 35.9241 163.435 35.9677 162.998C35.9677 162.561 35.9677 162.211 35.924 161.993C35.7929 161.163 35.6182 160.639 35.2687 160.377C34.9192 160.114 34.395 160.027 33.6523 160.158C33.2591 160.202 32.8659 160.551 32.4728 161.119C32.0796 161.687 31.599 162.561 31.1621 163.697C30.8126 164.527 30.5068 165.357 30.2447 166.143C29.9825 166.93 29.8078 167.716 29.6331 168.415C29.502 168.852 29.4146 169.245 29.2836 169.551C29.1962 169.9 29.1088 170.206 28.9778 170.425C28.7594 171.692 28.5409 172.871 28.4098 173.963C28.2351 175.056 28.104 176.06 28.104 176.978L28.2787 177.327C28.1914 177.502 28.1477 177.939 28.1477 178.638C28.104 179.337 28.1477 179.861 28.1477 180.167C28.235 180.254 28.2351 180.385 28.2787 180.56C28.2787 180.691 28.3225 180.779 28.3225 180.866C28.3225 180.91 28.2787 180.997 28.235 181.041L27.0992 182.395C26.9245 182.613 26.7933 182.876 26.706 183.094C26.6186 183.312 26.5313 183.487 26.4439 183.618C26.3128 183.749 26.1818 183.88 26.0944 183.968C26.007 184.055 25.876 184.099 25.7886 184.099C25.7012 184.099 25.6138 184.099 25.5264 184.011C25.4391 183.968 25.3517 183.837 25.308 183.706C25.3954 183.531 25.5265 183.356 25.6575 183.05C25.7886 182.744 25.876 182.439 25.9197 182.002C26.0071 181.609 26.0507 181.259 26.0507 180.997C26.0943 180.647 26.0507 180.429 26.0507 180.167C25.8759 178.987 25.5264 178.157 24.9585 177.633C24.3905 177.109 23.6479 176.934 22.6868 177.065C22.5994 177.065 22.381 177.152 22.0752 177.284C21.7694 177.458 21.2888 177.677 20.7646 177.983L20.5898 177.808C20.7208 177.502 20.8083 177.152 20.8957 176.847C20.852 176.716 20.7645 176.628 20.5898 176.585C20.4587 176.541 20.2403 176.541 19.9344 176.585C19.6723 176.628 19.454 176.716 19.2355 176.847C19.0171 176.978 18.8423 177.152 18.6238 177.371C18.4928 177.589 18.318 177.808 18.187 178.026C18.0559 178.245 17.8812 178.463 17.7065 178.682C17.5754 178.856 17.4007 179.031 17.2696 179.206C17.0948 179.381 16.9201 179.555 16.789 179.774C16.5706 179.992 16.4396 180.211 16.3085 180.429C16.1774 180.647 16.09 180.822 16.0463 180.997C16.0026 181.041 15.959 181.084 15.8716 181.172C15.959 180.953 16.0026 180.779 16.0463 180.56C16.3085 179.512 16.3521 178.245 16.1337 176.803C16.0026 176.017 15.8279 175.274 15.6095 174.662C15.391 174.007 15.1289 173.395 14.7794 172.871C14.5173 172.391 14.1241 171.91 13.6873 171.429C13.2067 170.905 12.6387 170.381 11.9834 169.769C11.896 169.682 11.765 169.595 11.6776 169.464C11.5902 169.376 11.5029 169.332 11.4592 169.289C11.0223 168.983 10.6291 168.721 10.367 168.502C10.1049 168.284 9.93014 168.153 9.84277 168.022C9.18746 167.716 8.75061 167.454 8.4448 167.192C8.13899 166.93 7.43993 166.624 6.30406 166.274C5.91088 166.143 5.51772 166.056 5.12453 165.925C4.73135 165.794 4.38181 165.706 3.98862 165.575L3.37704 165.663C3.24598 165.575 2.98382 165.488 2.67801 165.401C2.28482 165.444 1.71697 165.969 1.01798 166.93C0.275294 167.891 -0.0742248 168.546 0.0131496 168.939C0.0131496 169.027 0.10046 169.201 0.275209 169.42C0.449958 169.638 0.755832 169.944 1.10533 170.337C1.45483 170.774 1.76064 171.124 1.97907 171.429C2.19751 171.692 2.37219 171.954 2.45957 172.128L2.19751 178.55L2.41595 179.249C2.37226 179.686 2.37228 180.123 2.32859 180.473C2.32859 180.822 2.28486 181.128 2.28486 181.303C2.32855 182.045 2.32853 182.613 2.37222 183.007C2.37222 183.4 2.37222 183.662 2.37222 183.749C2.32853 184.536 2.32855 185.322 2.28486 186.108C2.28486 186.239 2.37219 186.458 2.45957 186.72C2.54694 186.982 2.59069 187.201 2.63438 187.332C2.72176 187.856 2.41592 188.293 1.84799 188.686C1.23637 189.079 0.974247 189.341 0.974247 189.516C0.974247 189.647 1.06162 189.778 1.19268 189.909C1.32374 189.997 1.49851 190.084 1.76064 190.171C1.93539 190.259 2.11011 190.346 2.28486 190.39C2.45961 190.477 2.63434 190.521 2.80909 190.564L3.07125 191.7C2.98388 192.356 2.94013 192.924 2.89644 193.36C2.85275 193.797 2.85275 194.19 2.89644 194.453C3.0275 195.37 3.20227 197.249 3.4644 197.685C3.72652 198.122 4.07608 198.297 4.51295 198.253C4.73139 198.21 4.94982 198.079 5.16826 197.86C5.3867 197.642 5.60509 197.336 5.77984 196.943C5.95459 196.593 6.08565 196.331 6.21671 196.069C6.34777 195.807 6.43513 194.278 6.5225 194.016C6.173 193.71 5.95455 193.404 5.73611 193.142C5.56136 192.88 5.43032 192.618 5.43032 192.399C5.38663 191.788 5.34292 191.132 5.29924 190.477C5.21186 189.472 5.21186 188.948 5.29924 188.861C5.38661 188.817 5.60509 188.73 5.99827 188.686C6.12934 188.686 6.30406 188.599 6.5225 188.424C6.74094 188.293 7.04681 188.118 7.35262 187.9C8.53218 187.201 9.62429 186.589 10.6728 186.021C11.197 185.715 11.6339 185.453 12.0271 185.235C11.3718 186.239 12.9882 186.851 14.4735 185.628C14.7357 185.409 14.823 185.278 14.9104 185.278C15.0415 185.278 15.1289 185.278 15.1726 185.322C15.2163 185.366 15.3037 185.453 15.3037 185.54C15.3037 185.628 15.26 185.977 15.2163 186.502C15.1289 187.026 15.1289 187.463 15.1726 187.812C15.26 188.599 15.6531 189.21 16.3521 189.778C17.0511 190.346 17.7502 190.521 18.4929 190.433C18.6239 190.39 18.755 190.346 18.9297 190.302C19.1482 190.215 19.2355 190.171 19.3229 190.171C19.5413 190.128 19.7598 190.084 20.0219 189.953C20.284 189.822 20.5462 189.647 20.8957 189.429C21.4199 189.123 21.9004 188.773 22.3372 188.336C22.7304 187.9 23.0799 187.463 23.3421 186.982C23.4731 187.244 23.6916 187.419 23.91 187.55C24.1285 187.637 24.3906 187.725 24.6964 187.637C24.9585 187.594 25.2207 187.506 25.4828 187.375C25.7012 187.201 26.007 186.982 26.2691 186.72C26.4875 186.502 26.706 186.283 26.8808 186.065C27.0992 185.846 27.2739 185.584 27.4924 185.366C27.7982 185.016 28.0166 184.754 28.1914 184.448C28.3661 184.186 28.5409 183.968 28.7156 183.749C28.8467 183.837 28.934 183.924 29.0214 184.011C29.1088 184.099 29.1525 184.186 29.1962 184.317C29.5457 185.453 29.9825 186.327 30.5505 186.807C31.1184 187.332 31.7737 187.55 32.5164 187.463C32.7348 187.419 33.0843 187.419 33.5212 187.419C33.9581 187.375 34.2639 187.375 34.4823 187.332C34.8755 187.288 35.2687 187.113 35.7056 186.895C36.0988 186.676 36.492 186.327 36.8415 185.934C37.1473 185.584 37.453 185.235 37.7589 184.885C38.0647 184.492 38.3705 184.186 38.6763 183.793H38.6326C39.0695 183.181 39.419 182.701 39.7685 182.351C40.118 182.002 40.3365 181.827 40.5549 181.827C40.6423 181.827 40.7296 181.871 40.9043 182.002C41.0354 182.133 41.2102 182.351 41.3849 182.613C41.5597 182.788 41.6907 182.919 41.8218 183.094C41.9528 183.225 42.0402 183.356 42.1276 183.443C42.7392 184.623 43.2198 185.366 43.613 185.584C44.0062 185.803 44.7926 185.846 46.0158 185.671C46.2342 185.628 46.4963 185.54 46.8458 185.278C47.1953 185.016 47.6321 184.667 48.1127 184.23C48.5496 183.793 48.9428 183.443 49.2486 183.138C49.5544 182.832 49.8165 182.526 49.9913 182.308C50.0786 182.089 50.2097 181.914 50.2534 181.783C50.3408 181.652 50.3845 181.565 50.4281 181.478C51.0398 180.691 51.6077 179.948 52.2194 179.249C52.6125 178.813 52.9183 178.376 53.1805 177.983C53.4426 177.589 53.661 177.24 53.792 176.89L53.9668 176.759C54.0979 176.803 54.1416 176.847 54.1853 176.934C54.0542 177.327 53.9669 177.677 53.8795 177.983C53.8795 178.507 53.8794 179.031 53.8358 179.555C53.8358 179.861 53.8358 180.123 53.8358 180.385C53.8358 180.604 53.8358 180.779 53.8358 180.91C53.7921 180.997 53.7921 181.084 53.7484 181.215C53.661 181.565 53.6611 182.045 53.6611 182.613C53.7047 183.181 53.7484 183.837 53.8795 184.579C53.9669 185.278 54.1853 185.759 54.5348 186.065C54.8406 186.37 55.3211 186.502 55.889 186.414C56.1512 186.37 56.4134 186.283 56.7192 186.065C56.9813 185.89 57.2871 185.584 57.5492 185.191C57.7239 184.929 57.9424 184.623 58.1171 184.317C58.2919 184.011 58.5103 183.706 58.7287 183.443C58.9471 183.181 59.1219 182.919 59.2529 182.744C59.4277 182.526 59.5587 182.351 59.6898 182.177C59.9956 181.914 60.2578 181.652 60.4762 181.434C60.6946 181.215 60.8257 181.041 60.9568 180.822V180.779C61.0879 180.604 61.2189 180.429 61.3063 180.298C61.4374 180.167 61.5247 180.123 61.6557 180.123C61.7868 180.08 61.9179 180.167 62.049 180.298C62.18 180.429 62.3111 180.604 62.4859 180.866C62.7043 181.215 62.8353 181.478 63.0101 181.74C63.1848 182.002 63.3159 182.133 63.4907 182.264C63.7528 182.482 64.1023 182.657 64.5391 182.744C64.9323 182.832 65.3692 182.832 65.8497 182.788C66.1992 182.744 66.5487 182.657 66.8108 182.57C67.073 182.482 67.2914 182.351 67.4662 182.22C67.9904 182.133 68.5146 181.871 69.0826 181.434C69.6505 180.953 70.2622 180.342 70.9175 179.468C71.0923 179.162 71.1796 178.944 71.2233 178.856C71.267 178.725 71.3107 178.682 71.3544 178.638C71.6602 178.157 71.9222 177.764 72.1407 177.458C72.3591 177.152 72.5339 176.847 72.7086 176.585L72.8834 176.759C72.9271 176.978 72.9271 177.196 72.8834 177.502C72.8834 177.808 72.8397 178.114 72.796 178.507C72.6649 179.337 72.5775 180.08 72.5775 180.822C72.5775 181.521 72.6212 182.22 72.7086 182.832C72.796 183.443 72.9708 183.88 73.3203 184.186C73.5824 184.448 74.0192 184.536 74.5435 184.492C74.893 184.448 75.1551 184.274 75.3298 184.011C75.5483 183.706 75.723 183.443 75.8541 183.181C75.9851 182.963 76.1599 182.788 76.2909 182.657C76.422 182.526 76.5094 182.395 76.5531 182.264C76.7715 181.958 76.9463 181.652 77.1211 181.303C77.2958 180.997 77.5143 180.691 77.689 180.385C77.9948 179.905 78.3443 179.381 78.7812 178.856C78.8249 178.856 79.3927 179.162 80.4412 179.861C81.4897 180.516 82.2324 180.822 82.6256 180.779C83.0188 180.735 83.3683 180.604 83.7178 180.385C84.0673 180.167 84.4168 179.817 84.7663 179.381C85.0721 179.075 85.3342 178.725 85.5963 178.376C85.8585 178.026 86.1643 177.677 86.4265 177.327L86.3827 177.284C86.4701 177.152 86.5574 177.021 86.5574 176.934C86.6011 176.847 86.6449 176.759 86.6449 176.672C86.8633 176.41 87.0381 176.235 87.1691 176.017C87.3002 175.842 87.4312 175.667 87.5623 175.58C87.6496 175.492 87.7808 175.361 87.9555 175.099C88.174 174.837 88.3923 174.488 88.7418 174.051C89.0039 173.657 89.2224 173.395 89.3971 173.221C89.5719 173.002 89.7466 172.915 89.8777 172.915C90.0088 172.915 90.1398 172.915 90.1835 172.959C90.2709 173.002 90.3146 173.046 90.3146 173.177C90.3583 173.264 90.3583 173.352 90.3146 173.483C90.3146 173.614 90.2709 173.789 90.2709 173.963C90.2272 174.138 90.1835 174.313 90.1835 174.4C90.1398 174.531 90.1399 174.619 90.1399 174.662C89.9651 175.798 89.834 176.847 89.6593 177.677C89.5282 178.507 89.3972 179.249 89.2661 179.817C89.3535 180.167 89.4409 180.56 89.5719 180.91C89.6593 181.259 89.965 181.39 90.4893 181.346C90.7514 181.303 91.0136 181.259 91.1883 181.172C91.4068 181.084 91.5815 180.953 91.7125 180.779C91.8436 180.604 92.0184 180.429 92.1494 180.254C92.2805 180.036 92.4552 179.861 92.5863 179.686C93.1542 178.9 93.6348 178.245 93.9843 177.677C94.3774 177.109 94.6396 176.672 94.7707 176.322C94.8143 176.148 94.9891 175.973 95.2075 175.798C95.4696 175.623 95.8192 175.23 96.3434 174.662C96.6056 174.357 96.8239 174.138 97.0424 173.92C97.2608 173.745 97.4793 173.57 97.7414 173.483L97.9161 173.526C98.2656 173.876 98.5715 174.138 98.8336 174.4C99.0957 174.662 99.3142 174.837 99.5326 175.012C99.7947 175.405 100.013 175.711 100.232 176.017C100.406 176.235 100.581 176.41 100.712 176.497C100.931 176.759 101.193 176.89 101.499 177.021C101.804 177.109 102.066 177.109 102.416 177.065C102.678 177.021 102.94 176.934 103.159 176.803C103.421 176.672 103.683 176.41 103.945 176.104C104.163 175.886 104.338 175.667 104.557 175.449C104.775 175.23 104.95 175.012 105.168 174.793C105.605 174.182 105.955 173.658 106.304 173.352C106.61 173.002 106.872 172.827 107.09 172.784C107.178 172.784 107.265 172.827 107.44 172.959C107.571 173.09 107.746 173.308 107.964 173.57C108.095 173.745 108.27 173.876 108.401 174.051C108.532 174.182 108.62 174.269 108.707 174.4C109.319 175.623 109.799 176.322 110.192 176.541C110.585 176.759 111.372 176.803 112.595 176.628C112.77 176.585 113.076 176.453 113.425 176.191C113.775 175.929 114.211 175.623 114.692 175.143C115.129 174.706 115.522 174.356 115.828 174.051C116.134 173.745 116.396 173.439 116.571 173.221C116.745 172.915 116.833 172.696 116.876 172.609C116.92 172.522 116.964 172.434 117.007 172.347C117.27 171.866 117.575 171.517 117.794 171.167C118.012 170.862 118.231 170.556 118.362 170.337L118.493 170.512C118.537 170.687 118.537 170.949 118.493 171.255C118.493 171.561 118.449 171.866 118.405 172.26C118.274 173.046 118.187 173.832 118.187 174.575C118.187 175.274 118.187 175.973 118.318 176.628C118.405 177.24 118.58 177.677 118.886 177.939C119.192 178.201 119.585 178.288 120.153 178.201C120.502 178.157 120.765 178.026 120.939 177.72C121.114 177.458 121.333 177.152 121.464 176.89C121.595 176.672 121.769 176.497 121.9 176.366C122.032 176.235 122.119 176.104 122.163 175.973C122.381 175.667 122.556 175.361 122.73 175.056C122.905 174.75 123.08 174.444 123.298 174.138C123.604 173.614 123.954 173.133 124.391 172.609C124.478 172.565 125.002 172.915 126.051 173.614C127.099 174.313 127.798 174.619 128.235 174.575C128.628 174.488 128.978 174.356 129.327 174.138C129.677 173.92 130.026 173.614 130.376 173.177C130.682 172.827 130.944 172.478 131.206 172.128C131.468 171.779 131.774 171.429 132.036 171.08C131.948 170.818 134.133 167.672 133.39 167.323ZM11.4154 182.613C11.2844 182.788 11.0223 183.007 10.7601 183.312C10.5417 183.531 10.367 183.706 10.1923 183.837C10.0175 184.011 9.84275 184.142 9.71169 184.23C9.36219 184.448 9.0564 184.667 8.75059 184.841C8.44478 185.016 8.13899 185.278 7.78949 185.497C7.30893 185.846 6.87204 186.108 6.56623 186.283C6.26042 186.458 5.99825 186.545 5.86719 186.545C5.77982 186.545 5.69251 186.545 5.60513 186.458C5.51776 186.414 5.47405 186.283 5.47405 186.152C5.38668 185.584 5.38663 184.798 5.43032 183.837C5.47401 182.876 5.56136 181.696 5.73611 180.298L5.47405 179.512C5.60511 179.118 5.77988 177.983 6.042 176.104C6.30413 174.225 6.39148 173.177 6.34779 172.915C6.26042 172.128 5.29924 171.08 3.55175 169.682C3.55175 169.595 3.55179 169.507 3.59548 169.507C3.63917 169.464 3.68281 169.42 3.77018 169.42C4.25074 169.551 4.64395 169.726 4.99345 169.813C5.38663 169.944 5.69242 169.988 5.95455 170.075C6.12929 170.206 6.2604 170.337 6.43515 170.425C6.56621 170.556 6.74091 170.643 6.82829 170.687C7.87678 171.342 8.70686 171.954 9.36217 172.478C9.97379 173.002 10.4544 173.483 10.7165 173.832C10.8039 174.007 10.935 174.182 11.066 174.313C11.1534 174.4 11.2844 174.531 11.3718 174.575C11.4592 174.662 11.5465 174.75 11.6339 174.837C11.7213 174.881 11.765 174.968 11.765 175.056L11.896 175.536C12.2019 176.017 12.4203 176.541 12.5951 177.021C12.7698 177.502 12.9009 177.983 12.9882 178.463C13.0756 179.293 13.0756 179.992 12.8135 180.647C12.5951 181.259 12.2456 181.827 11.7213 182.308C11.6777 182.351 11.5465 182.439 11.4154 182.613ZM23.2547 183.181C23.2547 183.443 23.2111 183.706 23.1674 183.88C23.1237 184.055 23.08 184.186 22.9489 184.273C22.8179 184.536 22.6431 184.798 22.4683 185.06C22.1188 185.803 21.6819 186.37 21.2451 186.764C20.7645 187.157 20.2403 187.419 19.6287 187.506C19.2355 187.55 18.9734 187.506 18.7549 187.332C18.5365 187.157 18.4055 186.895 18.3618 186.545C18.3181 186.327 18.3181 186.108 18.3618 185.803C18.4055 185.497 18.4491 185.147 18.5365 184.71C18.6239 184.23 18.7112 183.837 18.8423 183.575C18.9733 183.312 19.0607 183.181 19.1918 183.138C19.4102 183.05 19.585 183.007 19.716 182.876C19.8471 182.788 20.0219 182.613 20.1093 182.439C20.284 182.045 20.4587 181.696 20.5898 181.346C20.6771 181.128 20.8083 180.953 20.8957 180.822C21.0267 180.691 21.0703 180.604 21.1577 180.56C21.5946 180.56 21.9004 180.56 22.1625 180.56C22.381 180.604 22.5557 180.604 22.5994 180.647C22.7305 180.691 22.8179 180.822 22.9489 181.041C23.1237 181.259 23.2547 181.565 23.4294 181.914L23.2547 183.181ZM30.6815 176.585C30.6379 176.41 30.6816 176.06 30.7253 175.58C30.8126 175.099 30.8999 174.488 31.0747 173.701C31.2494 173.177 31.3805 172.696 31.5553 172.26C31.6427 171.91 31.7738 171.604 31.8175 171.342C31.8611 171.124 31.9048 170.949 31.8611 170.862C31.8174 170.294 31.9047 169.638 32.1669 168.939C32.4727 168.24 32.9096 167.541 33.5649 166.711L33.6959 166.755C33.6959 167.017 33.6523 167.279 33.6523 167.541C33.6086 167.803 33.6086 168.066 33.6523 168.328C33.6523 168.633 33.5212 169.464 33.2154 170.73C32.9096 171.997 32.6911 172.784 32.5164 173.09C32.3416 173.526 32.167 173.963 32.0359 174.313C31.8611 174.662 31.7301 174.924 31.6864 175.187C31.5116 175.667 31.3806 176.017 31.2495 176.279C31.1184 176.541 30.9873 176.672 30.8563 176.716L30.6815 176.585ZM64.2333 174.662C64.146 174.837 64.0586 174.924 63.9276 174.924C63.7965 174.968 63.7528 174.924 63.7091 174.924C63.6654 174.881 63.6217 174.837 63.6217 174.75C63.578 174.4 63.7528 173.789 64.146 173.002C64.5392 172.172 64.8449 171.735 65.1507 171.692C65.2381 171.692 65.3255 171.692 65.3691 171.779C65.4128 171.866 65.4566 171.954 65.4566 172.041C65.5003 172.216 65.4566 172.434 65.4129 172.609C65.3255 172.827 65.2818 173.002 65.1071 173.221C65.0197 173.395 64.8887 173.526 64.8013 173.701C64.6702 173.876 64.5828 174.051 64.4518 174.182C64.4081 174.357 64.3207 174.488 64.2333 174.662Z" fill="#00426D"/>
<path fill-rule="evenodd" clip-rule="evenodd" d="M122.994 17.1254C123.606 15.6837 123.911 14.0673 123.911 12.4072C123.911 5.54828 118.319 0 111.461 0C104.602 0 99.0535 5.54828 99.0535 12.4072C99.0535 12.6256 99.0535 12.844 99.0972 13.0625H23.8242C10.718 13.0625 0.0146484 23.7658 0.0146484 36.8283V122.63C0.0146484 135.692 10.718 146.396 23.8242 146.396H109.757C122.819 146.396 133.566 135.692 133.566 122.63V36.872C133.566 28.6588 129.329 21.4067 122.994 17.1254Z" fill="#00426D"/>
<path fill-rule="evenodd" clip-rule="evenodd" d="M118.754 53.1673V79.7291V106.335V132.896H104.206V118.654L103.333 121.276L102.24 123.853L100.973 126.256L99.5318 128.44L98.7454 129.401L97.9153 130.275L96.1242 131.673L95.1631 132.197L94.1583 132.634L93.1534 132.853L92.105 132.896H77.295L74.0184 109.262L81.4016 109.436L83.6733 109.393L85.945 109.262L88.2168 108.781L89.3089 108.432L90.27 107.951L90.7069 107.427L91.0564 106.771L91.3622 106.16L91.5806 105.461L91.7117 104.674L91.7555 103.844L91.7117 102.097L91.4059 100.262L90.8817 98.3835L90.27 96.4613L89.5274 94.6264L81.0084 77.6758L87.6925 64.7881L88.61 62.6911L89.3527 60.8562L89.8332 59.1961L90.1827 57.7107L90.27 56.3565L90.2264 55.2206L90.0516 54.2158L89.7022 53.342L89.2216 52.5994L88.61 51.9877L87.8672 51.5072L86.9935 51.114L86.0761 50.8082L85.0713 50.6334L83.9354 50.5024H82.7559H76.8581L77.0765 54.3905L77.1202 58.3224L76.9892 62.2542L76.6396 66.1861L76.2028 70.0305L75.5912 73.7876L74.8485 77.3263L74.4117 78.9864L74.0184 80.6029L73.4942 82.3066L72.8389 84.0104L71.3536 87.5928L70.4798 89.4713L69.5623 91.3499L67.378 95.1507L66.2421 97.1166L65.0189 99.0388L62.354 102.927L59.558 106.728L58.0726 108.606L56.6309 110.485V132.896H44.7917V120.227L42.2141 132.896H14.8223V106.335V79.7291V53.1673V26.6055H29.3701L29.2828 67.9772L29.239 109.436H44.7917V82.0882V54.7837H56.6309V82.6125L57.8105 80.6029L59.2085 78.1564L60.6065 75.4478L61.9608 72.5207L63.184 69.4626L64.1888 66.3608L64.6257 64.7881L64.8878 63.3027L65.0625 61.7737L65.1499 60.3757L65.0189 57.1428L64.6257 54.8274L64.2761 54.041L63.9267 53.3857L63.4899 52.8615L63.0093 52.512L61.8297 52.1625L60.4318 52.0751L56.9804 52.2062H41.4715L44.7917 26.7365H60.3007L61.786 26.7802L63.2714 27.0423L64.5383 27.3918L65.8489 27.9161L67.0285 28.5714L68.1206 29.3141L69.2128 30.1878L70.1303 31.1926L71.0914 32.2411L71.8778 33.508L73.3195 36.1293L73.9748 37.6146L74.5426 39.1437L75.067 40.7164L75.4601 42.4202L77.6445 26.6055H89.7458L91.1875 26.6928L92.5418 27.0423L93.765 27.5229L94.9883 28.1345L96.1678 29.0083L97.2164 30.0131L98.2212 31.1926L99.0949 32.5032L99.9687 33.9012L100.711 35.4303L101.323 37.1341L101.847 38.8816L102.284 40.7164L102.59 42.6387L102.808 44.6483L102.852 46.7016L102.765 51.3761L102.459 55.4827L101.935 59.2398L101.629 61.0747L101.279 62.7785L100.406 66.1861L99.4007 69.5937L96.9542 76.9331L98.527 80.6029L100.449 85.3648L102.459 91.0004L103.42 94.0585L104.206 97.2477V61.9047V26.6055H118.754V53.1673Z" fill="white"/>
<path fill-rule="evenodd" clip-rule="evenodd" d="M111.458 22.9796C105.648 22.9796 100.886 18.2177 100.886 12.4073C100.886 6.59687 105.648 1.83496 111.458 1.83496C117.268 1.83496 122.03 6.59687 122.03 12.4073C122.074 18.2177 117.312 22.9796 111.458 22.9796Z" fill="#ED1C24"/>
<path d="M43.6158 165.4C43.9653 165.356 44.1837 165.4 44.3584 165.487C44.5332 165.618 44.6205 165.793 44.6642 166.011C44.6205 166.405 44.6206 166.71 44.5769 166.972C44.5332 167.453 44.4458 167.89 44.4021 168.196C44.3147 168.502 44.2711 168.72 44.2711 168.851C44.1837 169.157 44.0526 169.419 43.9216 169.681C43.7468 169.943 43.5284 170.162 43.2663 170.38C43.0041 170.598 42.742 170.817 42.5672 170.904C42.3925 170.992 42.2615 171.079 42.1741 171.079C41.9557 171.079 41.7372 171.079 41.5188 171.079C41.344 171.079 41.1255 171.123 40.9071 171.166C40.7323 171.079 40.5577 170.904 40.4266 170.686C40.2519 170.424 40.2082 170.074 40.1208 169.637C40.0771 169.244 40.2519 168.72 40.645 168.065C41.0382 167.409 41.4313 167.016 41.7808 166.929C41.9556 166.623 42.174 166.273 42.4361 165.88C42.5672 165.793 42.6983 165.662 42.9167 165.574C43.1352 165.487 43.3537 165.4 43.6158 165.4Z" fill="#ED1C24"/>
<path d="M110.103 156.181C110.453 156.138 110.671 156.181 110.846 156.269C111.021 156.4 111.108 156.574 111.152 156.837C111.108 157.23 111.108 157.535 111.108 157.754C111.021 158.234 110.977 158.628 110.889 158.977C110.846 159.283 110.802 159.501 110.758 159.632C110.671 159.938 110.54 160.244 110.409 160.463C110.234 160.681 110.016 160.943 109.754 161.162C109.491 161.424 109.273 161.598 109.055 161.686C108.836 161.773 108.705 161.861 108.661 161.861C108.443 161.861 108.225 161.861 108.006 161.904C107.788 161.904 107.613 161.948 107.395 161.948C107.22 161.861 107.045 161.729 106.914 161.467C106.783 161.205 106.652 160.856 106.608 160.419C106.564 160.026 106.739 159.501 107.132 158.846C107.526 158.191 107.875 157.798 108.268 157.71C108.443 157.404 108.661 157.055 108.924 156.662C109.055 156.574 109.186 156.443 109.404 156.356C109.579 156.269 109.841 156.225 110.103 156.181Z" fill="#ED1C24"/>
<path d="M167.683 0H166.154V200H167.683V0Z" fill="#00426D"/>
<path d="M219.064 134.382L209.234 123.067H207.661V134.382H200.278V104.326H207.661V116.252H208.754L218.976 104.326H227.845L215.088 119.398L228.762 134.382H219.064Z" fill="#00426D"/>
<path d="M251.652 134.382L249.555 128.922H236.886L234.789 134.382H226.838L239.42 104.326H247.021L259.603 134.382H251.652ZM243.221 112.67L239.42 122.543H247.109L243.221 112.67Z" fill="#00426D"/>
<path d="M294.988 134.382H287.823V119.398L279.959 134.382H275.416L267.508 119.31V134.382H260.344V104.326H267.596L277.687 122.936L287.779 104.326H294.988V134.382Z" fill="#00426D"/>
<path d="M313.205 104.326C316.569 104.326 319.277 105.287 321.243 107.165C323.253 109.044 324.214 111.578 324.214 114.68C324.214 117.869 323.209 120.403 321.156 122.325C319.102 124.247 316.35 125.208 312.855 125.208H305.778V134.426H298.395V104.369H313.205V104.326ZM312.374 119.005C313.816 119.005 314.952 118.611 315.782 117.869C316.612 117.082 317.005 116.078 317.005 114.811C317.005 113.587 316.568 112.583 315.738 111.84C314.908 111.097 313.772 110.704 312.374 110.704H305.821V119.048H312.374V119.005Z" fill="#00426D"/>
<path d="M353.267 120.839C353.267 125.164 352.044 128.572 349.598 131.193C347.151 133.771 343.918 135.081 339.943 135.081C335.836 135.081 332.56 133.771 330.069 131.193C327.579 128.616 326.312 125.164 326.312 120.839V104.326H333.696V120.839C333.696 123.111 334.263 124.902 335.399 126.257C336.535 127.567 338.064 128.266 339.943 128.266C341.734 128.266 343.176 127.611 344.268 126.257C345.36 124.946 345.884 123.111 345.884 120.839V104.326H353.267V120.839V120.839Z" fill="#00426D"/>
<path d="M376.642 105.942C378.87 107.471 380.268 109.611 380.836 112.32L373.584 113.805C373.322 112.451 372.666 111.403 371.705 110.704C370.701 109.961 369.608 109.611 368.341 109.611C367.162 109.611 366.157 109.917 365.414 110.485C364.672 111.053 364.279 111.796 364.279 112.669C364.279 113.98 365.109 114.81 366.725 115.203L372.972 116.601C378.477 117.825 381.229 120.752 381.229 125.339C381.229 128.441 380.05 130.8 377.69 132.503C375.331 134.207 372.361 135.081 368.866 135.081C365.371 135.081 362.4 134.295 359.954 132.678C357.507 131.062 356.109 128.834 355.716 125.95L363.361 124.465C364.06 127.436 366.07 128.921 369.303 128.921C370.701 128.921 371.749 128.615 372.535 128.047C373.322 127.479 373.715 126.737 373.715 125.819C373.715 125.12 373.496 124.552 373.103 124.116C372.71 123.679 371.967 123.373 370.919 123.154L364.628 121.8C359.254 120.577 356.546 117.65 356.546 113.106C356.546 110.223 357.638 107.908 359.822 106.204C362.007 104.5 364.89 103.626 368.429 103.626C371.662 103.67 374.414 104.413 376.642 105.942Z" fill="#00426D"/>
<path d="M407.746 110.791V134.382H400.406V110.791H390.664V104.326H417.488V110.791H407.746Z" fill="#00426D"/>
<path d="M438.285 134.382L436.188 128.922H423.519L421.422 134.382H413.471L426.053 104.326H433.654L446.236 134.382H438.285ZM429.853 112.67L426.053 122.543H433.742L429.853 112.67Z" fill="#00426D"/>
<path d="M466.244 105.942C468.473 107.471 469.871 109.611 470.439 112.32L463.186 113.805C462.924 112.451 462.269 111.403 461.308 110.704C460.303 109.961 459.211 109.611 457.944 109.611C456.764 109.611 455.759 109.917 455.017 110.485C454.274 111.053 453.881 111.796 453.881 112.669C453.881 113.98 454.711 114.81 456.327 115.203L462.575 116.601C468.079 117.825 470.832 120.752 470.832 125.339C470.832 128.441 469.652 130.8 467.293 132.503C464.934 134.207 461.963 135.081 458.468 135.081C454.973 135.081 452.002 134.295 449.556 132.678C447.109 131.062 445.712 128.834 445.318 125.95L452.964 124.465C453.663 127.436 455.672 128.921 458.905 128.921C460.303 128.921 461.352 128.615 462.138 128.047C462.924 127.479 463.317 126.737 463.317 125.819C463.317 125.12 463.099 124.552 462.706 124.116C462.313 123.679 461.57 123.373 460.521 123.154L454.231 121.8C448.857 120.577 446.148 117.65 446.148 113.106C446.148 110.223 447.241 107.908 449.425 106.204C451.609 104.5 454.493 103.626 458.031 103.626C461.308 103.67 464.06 104.413 466.244 105.942Z" fill="#00426D"/>
<path d="M480.748 104.326H473.364V134.382H480.748V104.326Z" fill="#00426D"/>
<path d="M502.987 134.382L493.157 123.067H491.584V134.382H484.201V104.326H491.584V116.252H492.676L502.899 104.326H511.768L499.011 119.398L512.685 134.382H502.987Z" fill="#00426D"/>
<path d="M548.021 134.382H540.856V119.398L532.992 134.382H528.405L520.498 119.31V134.382H513.333V104.326H520.629L530.721 122.936L540.812 104.326H548.021V134.382Z" fill="#00426D"/>
<path d="M573.625 134.382L571.528 128.922H558.859L556.762 134.382H548.811L561.392 104.326H568.994L581.576 134.382H573.625ZM565.193 112.67L561.392 122.543H569.081L565.193 112.67Z" fill="#00426D"/>
<path d="M604.556 134.382H582.319V104.326H589.746V127.917H604.556V134.382Z" fill="#00426D"/>
<path d="M629.068 134.382L626.971 128.922H614.302L612.205 134.382H604.254L616.836 104.326H624.437L637.019 134.382H629.068ZM620.637 112.67L616.836 122.543H624.525L620.637 112.67Z" fill="#00426D"/>
<path d="M649.687 134.382H642.173V125.033L630.552 104.326H638.634L646.017 117.519L653.356 104.326H661.613L649.687 124.946V134.382Z" fill="#00426D"/>
<path d="M680.005 134.382L677.908 128.922H665.238L663.142 134.382H655.19L667.772 104.326H675.374L687.956 134.382H680.005ZM671.529 112.67L667.729 122.543H675.418L671.529 112.67Z" fill="#00426D"/>
</svg>
