<svg width="2485" height="1863" viewBox="0 0 2485 1863" fill="none" xmlns="http://www.w3.org/2000/svg">
<path d="M2484.84 349.81V1509.45C2484.84 1692.22 2341.89 1820.28 2160.9 1846.12C1944.66 1877.1 1706.05 1860.87 1305.48 1832.44C1060.97 1815.08 569.34 1843.84 323.94 1846.12C145.04 1847.79 0 1695.39 0 1509.45V349.81C0 163.86 145.35 2.18999 323.94 13.12C489.8 23.28 733.77 63.5 988.07 38.87C1290.54 9.58999 1864.65 -15.3 2160.89 13.12C2339.05 30.22 2484.84 163.86 2484.84 349.81Z" fill="#DEEBE9"/>
<path d="M1465.66 1152.05L1418.09 1185.99L1364.35 1076.33L1465.66 1152.05Z" fill="#00426D"/>
<path d="M1473.64 1227.5L1364.35 1076.33L1465.66 1152.05L1473.64 1227.5Z" fill="white"/>
<path d="M1468.28 1117.32L1443.49 1135.48L1364.35 1076.33L1468.28 1117.32Z" fill="#00426D"/>
<path d="M1364.35 1076.33L1451.57 1129.57L1537.51 1122.74L1364.35 1076.33Z" fill="white"/>
<path d="M1262.65 430.75L1220.41 471.15L1151.55 370.3L1262.65 430.75Z" fill="#00426D"/>
<path d="M1281.33 504.29L1151.55 370.3L1262.65 430.75L1281.33 504.29Z" fill="white"/>
<path d="M1260.27 396.01L1238.34 417.52L1151.55 370.3L1260.27 396.01Z" fill="#00426D"/>
<path d="M1151.55 370.3L1245.48 410.51L1329.57 391.47L1151.55 370.3Z" fill="white"/>
<path d="M1987.03 1080.75C1986.78 1080.35 1986.74 1079.93 1986.89 1079.49C1987.22 1078.56 1988.46 1077.75 1989.52 1077.21C1988.01 1077.35 1985.95 1077.4 1985.14 1076.59C1984.82 1076.27 1984.7 1075.85 1984.8 1075.35C1985.37 1072.5 1992.24 1073.43 1992.53 1073.46L1992.46 1073.94C1990.61 1073.66 1985.67 1073.44 1985.27 1075.45C1985.2 1075.79 1985.27 1076.05 1985.47 1076.25C1986.42 1077.19 1989.92 1076.72 1991.19 1076.48L1991.32 1076.94C1991.29 1076.95 1987.85 1078.19 1987.33 1079.65C1987.23 1079.94 1987.26 1080.22 1987.43 1080.5L1987.03 1080.75Z" fill="#42428E"/>
<path d="M2072.52 1021.28L2072.25 1020.89C2073.25 1020.07 2075.84 1017.66 2075.71 1016.33C2075.69 1016.05 2075.52 1015.82 2075.22 1015.66C2075.03 1015.56 2074.82 1015.51 2074.61 1015.51C2072.81 1015.51 2070.36 1018.82 2069.48 1020.25L2069.07 1020C2069.21 1019.78 2072.15 1015.03 2074.61 1015.03C2074.9 1015.03 2075.17 1015.1 2075.45 1015.24C2075.9 1015.48 2076.15 1015.84 2076.19 1016.29C2076.3 1017.43 2074.96 1019 2073.88 1020.07C2074.97 1019.59 2076.39 1019.15 2077.32 1019.49C2077.75 1019.65 2078.05 1019.95 2078.2 1020.39L2077.74 1020.55C2077.64 1020.25 2077.44 1020.05 2077.15 1019.94C2075.67 1019.43 2072.56 1021.27 2072.52 1021.28Z" fill="#42428E"/>
<path d="M2481.34 1558.31C2458.11 1717.23 2322.13 1823.11 2160.9 1846.12C2147.83 1847.99 2134.72 1849.69 2121.54 1851.22C2091.09 1751.03 2059.13 1644.82 2030.03 1550.28V1550.27C2027.55 1542.2 2025.08 1534.22 2022.64 1526.31C2003.85 1465.53 1986.47 1410.43 1971.78 1366.08C1971.77 1366.05 1971.77 1366.05 1971.77 1366.05C1952.09 1306.73 1909.91 1234.63 1898.59 1220.84C1897.64 1219.68 1896.91 1218.93 1896.43 1218.64C1896.43 1218.64 1899 1190.57 1878.74 1173.43C1834.69 1136.15 1838.2 1063.1 1841.13 1036.6C1841.81 1030.34 1842.48 1026.68 1842.48 1026.68C1842.48 1026.68 1857.31 1016.19 1857.64 1015.96C1859.75 1014.47 1865.49 1004.33 1873.48 988.66C1877.37 981.04 1881.78 972.13 1886.58 962.26C1888.95 957.39 1891.41 952.29 1893.94 947C1893.94 947 1893.95 946.99 1893.94 946.99C1911.52 910.33 1932.62 864.69 1951 824.49C1959.93 804.95 1968.22 786.69 1975.14 771.4C1980.33 759.95 1984.74 750.15 1988.1 742.71C1992.55 732.8 1995.14 727.04 1995.14 727.04C1995.44 727.05 1997.41 728.14 2000.8 730.32C2032.04 750.55 2183.62 864.55 2251.54 1086.81C2251.53 1086.85 2251.54 1086.86 2251.54 1086.86C2251.54 1089.44 2271.93 1132.78 2304.35 1199.73C2325.27 1242.93 2351.21 1295.95 2379.94 1354.2C2384.67 1363.82 2389.48 1373.56 2394.37 1383.43V1383.44C2421.87 1439.12 2451.46 1498.64 2481.34 1558.31Z" fill="#F7B686"/>
<path d="M2181.44 944.07C2079.95 726.12 1797.49 652.25 1857.28 746.18C1869.32 765.09 1876.43 786.45 1863.14 777.44C1832.68 756.78 1800.56 819.63 1792.38 830.72C1780.59 846.72 1746.62 891.14 1728.94 905.22C1684.2 940.85 1639.6 968.47 1747.68 1042.07C1783.41 1066.4 1795.19 1119.39 1828.27 1169.3C1891.06 1264.01 2010.29 1210.22 2010.29 1210.22C2010.29 1210.22 2197.62 978.82 2181.44 944.07Z" fill="#F7B686"/>
<path d="M1459.11 1000.32C1485.41 1044.9 1646.75 947.29 1646.75 947.29C1681.95 929.36 1685.77 895.42 1666.98 864.19C1640.44 820.09 1432.23 946.8 1459.11 1000.32Z" fill="#F7B686"/>
<path d="M1555.24 1049.03C1577.95 1095.55 1787.57 973.67 1787.57 973.67C1824.08 958.57 1789.46 962.32 1773.19 929.7C1750.21 883.65 1533.39 996.9 1555.24 1049.03Z" fill="#F7B686"/>
<path d="M1660.78 1094.42C1682.54 1123.47 1797.78 1029.79 1797.78 1029.79C1822.46 1011.55 1821.05 985.06 1802.65 963.52C1776.68 933.12 1633.34 1056.85 1660.78 1094.42Z" fill="#F7B686"/>
<path d="M1400.87 862.85C1417.58 911.84 1595.37 848.98 1595.37 848.98C1633.48 838.56 1644.1 806.1 1632.03 771.71C1614.99 723.14 1385.41 804.99 1400.87 862.85Z" fill="#F7B686"/>
<path d="M1337.16 1001.28C1324.16 1001.28 1311.98 996.3 1302.77 987.18C1293.49 977.99 1288.46 965.79 1288.6 952.81L1291.83 642.23C1291.96 629.26 1297.25 617.15 1306.71 608.14C1316.36 598.97 1329.14 594.13 1342.4 594.72L1931.27 617.59C1957.71 618.61 1978.22 639.88 1977.95 666.02L1975.08 941.73C1974.81 967.85 1953.87 988.73 1927.42 989.27L1338.19 1001.27C1337.86 1001.28 1337.51 1001.28 1337.16 1001.28ZM1340.44 598.1C1328.68 598.1 1317.61 602.51 1309.08 610.62C1300.29 618.98 1295.38 630.22 1295.25 642.26L1292.02 952.84C1291.9 964.88 1296.57 976.21 1305.18 984.74C1313.97 993.44 1325.7 998.15 1338.12 997.84L1927.35 985.84C1951.94 985.33 1971.41 965.94 1971.67 941.68L1974.54 665.97C1974.79 641.7 1955.72 621.94 1931.14 620.99L1342.27 598.12C1341.67 598.11 1341.05 598.1 1340.44 598.1Z" fill="#2F1A31"/>
<path d="M2001.75 639.36L2000.05 803.62L1999.39 866.81L1998.89 915.07C1998.63 940.09 1978.26 960.41 1952.91 960.92L1363.68 972.93C1337.22 973.46 1315.56 952.31 1315.82 926.2L1316.28 882.38L1316.93 819.19L1319.06 615.61C1319.33 589.5 1341.42 568.76 1367.85 569.8L1956.72 592.68C1982.07 593.64 2002.02 614.33 2001.75 639.36Z" fill="#00426D"/>
<path d="M1493.33 638.19L1492.47 720.51C1492.4 728.3 1485.87 734.61 1477.97 734.54L1412.45 733.92L1407.67 733.88L1394.54 733.75C1386.65 733.67 1380.25 727.24 1380.34 719.46L1380.78 677.13L1380.83 672.41L1381.05 651.24L1381.1 646.52L1381.2 637.14C1381.27 629.35 1387.8 623.04 1395.7 623.11L1405.19 623.2L1409.97 623.24L1438.68 623.51L1443.46 623.56L1466.79 623.78L1471.57 623.82H1471.58L1479.13 623.9C1487.02 623.98 1493.41 630.41 1493.33 638.19Z" fill="white"/>
<path d="M1478.09 735.11C1478.04 735.11 1478 735.11 1477.96 735.11L1394.54 734.32C1390.57 734.28 1386.85 732.71 1384.04 729.9C1381.24 727.08 1379.72 723.37 1379.77 719.46L1380.63 637.14C1380.71 629.07 1387.4 622.54 1395.57 622.54C1395.61 622.54 1395.66 622.54 1395.71 622.54L1479.13 623.32C1483.1 623.36 1486.83 624.94 1489.63 627.75C1492.43 630.57 1493.95 634.28 1493.9 638.19L1493.04 720.51C1492.95 728.59 1486.26 735.11 1478.09 735.11ZM1395.56 623.68C1388.02 623.68 1381.84 629.69 1381.77 637.15L1380.91 719.47C1380.87 723.08 1382.27 726.5 1384.85 729.09C1387.43 731.69 1390.88 733.14 1394.55 733.18L1477.97 733.97C1478.01 733.97 1478.05 733.97 1478.09 733.97C1485.63 733.97 1491.82 727.95 1491.89 720.5L1492.75 638.18C1492.79 634.57 1491.39 631.15 1488.81 628.56C1486.23 625.96 1482.78 624.5 1479.11 624.47L1395.69 623.69C1395.65 623.68 1395.61 623.68 1395.56 623.68Z" fill="#2F1A31"/>
<path d="M1422.47 677.51C1422.19 677.52 1421.91 677.52 1421.63 677.52L1380.78 677.14L1380.83 672.42L1421.68 672.8C1426.08 672.84 1430.24 671.19 1433.38 668.15C1436.52 665.11 1438.28 661.04 1438.32 656.7L1438.67 623.52L1443.45 623.57L1443.1 656.75C1443.04 662.35 1440.78 667.6 1436.72 671.52C1432.88 675.25 1427.84 677.36 1422.47 677.51Z" fill="#2F1A31"/>
<path d="M1471.56 623.82L1471.03 674.69C1470.96 681.4 1468.25 687.68 1463.39 692.39C1458.54 697.09 1452.12 699.64 1445.31 699.58L1427.37 699.42C1423.49 699.39 1419.81 700.84 1417.03 703.53C1414.25 706.21 1412.69 709.82 1412.66 713.65L1412.45 733.92L1407.67 733.88L1407.87 713.6C1407.92 708.5 1409.98 703.73 1413.68 700.15C1417.38 696.57 1422.25 694.64 1427.43 694.68L1445.37 694.85C1450.89 694.89 1456.1 692.83 1460.05 689.01C1463.99 685.19 1466.2 680.09 1466.26 674.64L1466.79 623.79L1471.56 623.82Z" fill="#2F1A31"/>
<path d="M1409.97 623.24L1409.83 636.3C1409.74 644.49 1403.09 651.13 1394.87 651.35C1394.67 651.36 1394.47 651.36 1394.27 651.36L1381.06 651.24L1381.11 646.52L1394.32 646.64C1400.17 646.66 1405 642.03 1405.06 636.25L1405.2 623.2L1409.97 623.24Z" fill="#2F1A31"/>
<path d="M1804.29 643.23L1695.45 644.8C1692.45 644.84 1690 642.44 1690.03 639.48L1690.14 628.54C1690.17 625.59 1692.65 623.23 1695.64 623.32L1804.43 626.46C1807.34 626.54 1809.64 628.91 1809.61 631.78L1809.55 638.01C1809.53 640.87 1807.19 643.19 1804.29 643.23Z" fill="white"/>
<path d="M1940.33 644.51L1831.49 646.08C1828.49 646.12 1826.04 643.72 1826.07 640.76L1826.18 629.82C1826.21 626.87 1828.69 624.51 1831.68 624.6L1940.47 627.74C1943.38 627.82 1945.68 630.19 1945.65 633.06L1945.59 639.29C1945.57 642.15 1943.23 644.47 1940.33 644.51Z" fill="white"/>
<path d="M1516.1 930.24L1370.32 934.13C1366.3 934.24 1362.97 932.08 1362.94 929.36L1362.85 919.3C1362.82 916.59 1366.1 914.37 1370.11 914.38L1515.93 914.81C1519.83 914.82 1522.97 916.94 1522.99 919.58L1523.04 925.31C1523.07 927.96 1519.99 930.14 1516.1 930.24Z" fill="white"/>
<path d="M1461.62 861.69L1370.28 864.13C1367.76 864.2 1365.67 862.85 1365.66 861.14L1365.6 854.84C1365.58 853.14 1367.63 851.75 1370.15 851.76L1461.51 852.03C1463.95 852.04 1465.92 853.37 1465.94 855.02L1465.97 858.61C1465.99 860.25 1464.06 861.62 1461.62 861.69Z" fill="white"/>
<path d="M1576.01 860.7L1484.67 863.14C1482.15 863.21 1480.06 861.86 1480.05 860.15L1479.99 853.85C1479.97 852.15 1482.02 850.76 1484.54 850.77L1575.9 851.04C1578.34 851.05 1580.31 852.38 1580.33 854.03L1580.36 857.62C1580.38 859.27 1578.45 860.64 1576.01 860.7Z" fill="white"/>
<path d="M1404.09 786.45C1404.05 783.54 1403.71 781.05 1403.05 778.97C1402.39 776.89 1401.48 775.19 1400.32 773.86C1399.16 772.53 1397.76 771.56 1396.16 770.94C1394.55 770.33 1392.77 770.03 1390.82 770.05C1388.86 770.06 1387.09 770.39 1385.51 771.04C1383.92 771.69 1382.55 772.69 1381.41 774.04C1380.26 775.38 1379.39 777.1 1378.78 779.2C1378.17 781.29 1377.88 783.78 1377.91 786.69L1377.97 793.43C1378 796.33 1378.34 798.83 1378.99 800.91C1379.65 802.99 1380.56 804.69 1381.72 806.04C1382.88 807.38 1384.28 808.36 1385.88 808.96C1387.5 809.58 1389.27 809.88 1391.23 809.86C1393.18 809.85 1394.95 809.52 1396.56 808.87C1398.15 808.22 1399.52 807.22 1400.66 805.86C1401.79 804.51 1402.66 802.78 1403.27 800.68C1403.88 798.59 1404.18 796.09 1404.14 793.18L1404.09 786.45ZM1396.15 798.67C1395.92 799.86 1395.58 800.83 1395.14 801.57C1394.7 802.32 1394.14 802.85 1393.47 803.18C1392.8 803.5 1392.03 803.67 1391.18 803.67C1390.33 803.68 1389.56 803.53 1388.89 803.21C1388.21 802.89 1387.64 802.37 1387.17 801.64C1386.7 800.91 1386.33 799.94 1386.08 798.77C1385.81 797.58 1385.69 796.11 1385.66 794.38L1385.58 785.55C1385.57 783.83 1385.67 782.37 1385.9 781.2C1386.13 780.04 1386.47 779.09 1386.92 778.37C1387.38 777.65 1387.93 777.12 1388.6 776.79C1389.26 776.47 1390.02 776.3 1390.87 776.3C1391.72 776.29 1392.49 776.44 1393.16 776.76C1393.84 777.08 1394.41 777.58 1394.89 778.3C1395.37 779.01 1395.74 779.96 1395.98 781.12C1396.23 782.28 1396.37 783.74 1396.38 785.46L1396.46 794.29C1396.49 796.01 1396.37 797.48 1396.15 798.67Z" fill="white"/>
<path d="M1435.36 786.18C1435.33 783.27 1434.99 780.78 1434.33 778.69C1433.67 776.61 1432.76 774.91 1431.6 773.58C1430.44 772.25 1429.04 771.28 1427.42 770.67C1425.81 770.05 1424.03 769.76 1422.08 769.77C1420.13 769.78 1418.36 770.12 1416.77 770.77C1415.18 771.4 1413.81 772.4 1412.67 773.76C1411.53 775.11 1410.66 776.84 1410.04 778.92C1409.43 781.01 1409.14 783.51 1409.17 786.42L1409.23 793.15C1409.26 796.06 1409.6 798.55 1410.25 800.63C1410.91 802.72 1411.82 804.43 1412.98 805.76C1414.16 807.1 1415.54 808.08 1417.16 808.7C1418.77 809.31 1420.55 809.61 1422.5 809.6C1424.45 809.57 1426.23 809.25 1427.83 808.6C1429.44 807.95 1430.8 806.95 1431.93 805.59C1433.06 804.24 1433.93 802.51 1434.55 800.43C1435.16 798.33 1435.45 795.84 1435.42 792.93L1435.36 786.18ZM1427.43 798.39C1427.19 799.58 1426.86 800.54 1426.42 801.29C1425.96 802.02 1425.41 802.56 1424.74 802.88C1424.07 803.2 1423.31 803.37 1422.46 803.37C1421.6 803.38 1420.84 803.23 1420.16 802.91C1419.49 802.61 1418.92 802.07 1418.45 801.34C1417.98 800.62 1417.61 799.66 1417.35 798.47C1417.1 797.28 1416.96 795.83 1416.94 794.08L1416.85 785.25C1416.84 783.53 1416.94 782.07 1417.18 780.91C1417.41 779.73 1417.75 778.78 1418.2 778.06C1418.66 777.34 1419.21 776.81 1419.87 776.49C1420.53 776.16 1421.29 776 1422.15 775.98C1423 775.98 1423.76 776.13 1424.44 776.44C1425.11 776.76 1425.69 777.28 1426.17 777.98C1426.64 778.7 1427.01 779.64 1427.26 780.8C1427.51 781.98 1427.64 783.42 1427.65 785.14L1427.74 793.97C1427.76 795.73 1427.66 797.19 1427.43 798.39Z" fill="white"/>
<path d="M1466.63 785.89C1466.6 782.98 1466.26 780.49 1465.61 778.41C1464.95 776.32 1464.04 774.63 1462.88 773.3C1461.72 771.96 1460.32 771 1458.72 770.38C1457.1 769.76 1455.33 769.47 1453.37 769.48C1451.42 769.51 1449.65 769.83 1448.06 770.48C1446.48 771.13 1445.11 772.13 1443.97 773.47C1442.82 774.82 1441.95 776.55 1441.34 778.63C1440.73 780.72 1440.44 783.22 1440.47 786.13L1440.53 792.86C1440.56 795.77 1440.9 798.26 1441.55 800.34C1442.21 802.43 1443.12 804.14 1444.28 805.48C1444.43 805.64 1444.58 805.81 1444.74 805.97C1445.82 807.05 1447.04 807.86 1448.45 808.4C1450.07 809.02 1451.84 809.31 1453.8 809.3C1455.75 809.27 1457.52 808.95 1459.13 808.3C1460.72 807.65 1462.09 806.66 1463.22 805.3C1464.36 803.93 1465.23 802.21 1465.84 800.12C1466.37 798.31 1466.65 796.18 1466.7 793.74C1466.71 793.37 1466.71 792.99 1466.71 792.61L1466.63 785.89ZM1458.74 797.89C1458.73 797.95 1458.71 798.03 1458.7 798.09C1458.47 799.28 1458.13 800.24 1457.69 800.99C1457.25 801.72 1456.69 802.27 1456.02 802.58C1455.34 802.91 1454.58 803.07 1453.73 803.09C1452.88 803.09 1452.11 802.94 1451.44 802.63C1451.24 802.53 1451.04 802.43 1450.86 802.28C1450.43 801.99 1450.05 801.58 1449.72 801.07C1449.25 800.34 1448.88 799.37 1448.63 798.18C1448.36 796.99 1448.23 795.54 1448.21 793.79L1448.13 784.96C1448.1 783.24 1448.22 781.8 1448.45 780.62C1448.68 779.44 1449.02 778.49 1449.47 777.77C1449.93 777.05 1450.48 776.53 1451.14 776.2C1451.81 775.87 1452.57 775.71 1453.42 775.69C1454.27 775.69 1455.04 775.84 1455.71 776.16C1456.39 776.46 1456.96 776.98 1457.44 777.69C1457.92 778.41 1458.28 779.35 1458.53 780.52C1458.78 781.68 1458.91 783.13 1458.93 784.85L1459.01 793.7C1459.02 795.33 1458.93 796.72 1458.73 797.88V797.89H1458.74Z" fill="white"/>
<path d="M1497.92 785.59C1497.91 783.53 1497.73 781.67 1497.38 780.02C1497.25 779.35 1497.09 778.72 1496.9 778.11C1496.24 776.03 1495.33 774.33 1494.17 773C1492.99 771.67 1491.61 770.7 1489.99 770.08C1488.38 769.47 1486.6 769.17 1484.65 769.19C1482.7 769.2 1480.93 769.53 1479.34 770.18C1477.75 770.83 1476.38 771.83 1475.24 773.18C1474.1 774.52 1473.23 776.24 1472.61 778.33C1472 780.43 1471.71 782.92 1471.74 785.83L1471.79 791.23L1471.8 792.56C1471.83 795.47 1472.17 797.96 1472.83 800.05C1473.49 802.13 1474.4 803.83 1475.56 805.18C1476.74 806.52 1478.12 807.5 1479.74 808.1C1481.35 808.72 1483.13 809.02 1485.08 809C1487.03 808.99 1488.81 808.66 1490.41 808.01C1492.02 807.36 1493.38 806.35 1494.51 805C1495.64 803.65 1496.51 801.91 1497.13 799.82C1497.74 797.73 1498.03 795.23 1498 792.32L1497.92 785.59ZM1489.97 797.81C1489.74 799 1489.41 799.97 1488.97 800.71C1488.51 801.46 1487.96 801.99 1487.29 802.32C1486.62 802.64 1485.86 802.8 1485.01 802.81C1484.15 802.82 1483.39 802.67 1482.71 802.35C1482.04 802.03 1481.47 801.51 1481 800.78C1480.53 800.05 1480.16 799.08 1479.9 797.91C1479.65 796.72 1479.51 795.25 1479.5 793.52L1479.44 787.66L1479.41 784.67C1479.4 782.95 1479.5 781.51 1479.74 780.33C1479.97 779.17 1480.31 778.22 1480.77 777.5C1481.23 776.77 1481.78 776.25 1482.44 775.92C1483.1 775.6 1483.86 775.43 1484.72 775.43C1485.57 775.42 1486.33 775.57 1487.01 775.89C1487.68 776.21 1488.26 776.71 1488.74 777.43C1489.21 778.14 1489.58 779.09 1489.83 780.25C1489.99 781.03 1490.11 781.93 1490.17 782.97V782.98C1490.2 783.49 1490.22 784.02 1490.22 784.59L1490.31 793.42C1490.31 795.15 1490.21 796.62 1489.97 797.81Z" fill="white"/>
<path d="M1558.43 785.63C1558.4 782.72 1558.06 780.23 1557.4 778.14C1556.74 776.06 1555.83 774.36 1554.67 773.03C1553.51 771.7 1552.11 770.74 1550.51 770.12C1548.89 769.5 1547.12 769.21 1545.17 769.22C1543.21 769.25 1541.44 769.57 1539.84 770.22C1538.26 770.87 1536.89 771.85 1535.75 773.21C1534.6 774.56 1533.73 776.29 1533.12 778.37C1532.51 780.45 1532.22 782.96 1532.25 785.87L1532.31 792.6C1532.34 795.51 1532.68 798 1533.33 800.08C1533.99 802.17 1534.9 803.88 1536.06 805.2C1537.22 806.54 1538.62 807.52 1540.22 808.14C1541.84 808.76 1543.61 809.05 1545.57 809.04C1547.52 809.01 1549.29 808.69 1550.9 808.04C1552.49 807.39 1553.86 806.39 1554.99 805.04C1556.13 803.67 1557 801.95 1557.61 799.86C1558.22 797.77 1558.51 795.27 1558.48 792.36L1558.43 785.63ZM1550.49 797.84C1550.26 799.03 1549.92 799.99 1549.48 800.74C1549.04 801.47 1548.48 802.01 1547.81 802.33C1547.14 802.66 1546.37 802.82 1545.52 802.84C1544.67 802.84 1543.9 802.69 1543.23 802.37C1542.55 802.07 1541.98 801.53 1541.51 800.81C1541.04 800.08 1540.67 799.11 1540.42 797.92C1540.15 796.73 1540.01 795.28 1540 793.53L1539.92 784.7C1539.91 782.98 1540.01 781.54 1540.24 780.36C1540.47 779.18 1540.81 778.23 1541.26 777.51C1541.72 776.79 1542.27 776.27 1542.93 775.94C1543.6 775.61 1544.36 775.45 1545.21 775.43C1546.06 775.43 1546.83 775.58 1547.5 775.9C1548.18 776.2 1548.75 776.72 1549.23 777.43C1549.71 778.15 1550.07 779.09 1550.32 780.26C1550.57 781.42 1550.71 782.87 1550.72 784.59L1550.8 793.42C1550.82 795.19 1550.72 796.65 1550.49 797.84Z" fill="white"/>
<path d="M1589.71 785.34C1589.68 782.43 1589.34 779.94 1588.69 777.86C1588.03 775.77 1587.12 774.08 1585.96 772.75C1584.78 771.42 1583.4 770.45 1581.78 769.83C1580.17 769.22 1578.39 768.92 1576.44 768.93C1574.49 768.96 1572.72 769.28 1571.13 769.93C1569.54 770.58 1568.17 771.58 1567.03 772.92C1565.89 774.27 1565.02 776 1564.4 778.08C1563.79 780.18 1563.5 782.67 1563.53 785.58L1563.59 792.31C1563.62 795.22 1563.96 797.71 1564.61 799.8C1565.27 801.88 1566.18 803.58 1567.34 804.93C1568.52 806.26 1569.9 807.25 1571.52 807.85C1573.13 808.47 1574.91 808.76 1576.86 808.75C1578.81 808.74 1580.59 808.4 1582.19 807.75C1583.8 807.12 1585.16 806.1 1586.29 804.75C1587.42 803.4 1588.29 801.66 1588.91 799.57C1589.52 797.48 1589.81 794.98 1589.78 792.07L1589.71 785.34ZM1581.78 797.55C1581.54 798.74 1581.21 799.71 1580.77 800.45C1580.31 801.2 1579.76 801.73 1579.09 802.04C1578.42 802.37 1577.66 802.53 1576.81 802.55C1575.95 802.56 1575.19 802.4 1574.51 802.09C1573.84 801.77 1573.27 801.25 1572.8 800.52C1572.33 799.79 1571.96 798.82 1571.7 797.63C1571.45 796.45 1571.31 794.99 1571.3 793.25L1571.21 784.4C1571.2 782.68 1571.3 781.24 1571.54 780.06C1571.77 778.88 1572.11 777.95 1572.56 777.21C1573.02 776.49 1573.57 775.97 1574.23 775.64C1574.89 775.31 1575.65 775.15 1576.51 775.15C1577.36 775.14 1578.12 775.29 1578.8 775.61C1579.47 775.93 1580.05 776.43 1580.53 777.15C1581 777.86 1581.37 778.8 1581.62 779.97C1581.87 781.13 1582 782.58 1582.01 784.3L1582.1 793.15C1582.11 794.9 1582 796.36 1581.78 797.55Z" fill="white"/>
<path d="M1620.98 785.05C1620.95 782.14 1620.61 779.65 1619.95 777.57C1619.29 775.49 1618.38 773.79 1617.22 772.46C1616.06 771.13 1614.66 770.16 1613.06 769.55C1611.44 768.93 1609.67 768.63 1607.71 768.65C1605.76 768.66 1603.99 768.99 1602.4 769.64C1600.82 770.29 1599.45 771.29 1598.31 772.64C1597.16 773.98 1596.29 775.7 1595.68 777.8C1595.07 779.89 1594.78 782.38 1594.81 785.29L1594.87 792.03C1594.9 794.94 1595.24 797.43 1595.9 799.51C1596.56 801.59 1597.47 803.29 1598.63 804.64C1599.79 805.98 1601.19 806.96 1602.79 807.58C1604.4 808.19 1606.18 808.49 1608.14 808.47C1610.09 808.46 1611.86 808.13 1613.47 807.48C1615.06 806.83 1616.43 805.83 1617.56 804.47C1618.7 803.12 1619.57 801.39 1620.18 799.29C1620.79 797.2 1621.08 794.71 1621.05 791.8L1620.98 785.05ZM1613.05 797.26C1612.82 798.46 1612.48 799.42 1612.04 800.16C1611.6 800.91 1611.04 801.44 1610.37 801.77C1609.69 802.09 1608.93 802.26 1608.08 802.26C1607.23 802.27 1606.46 802.12 1605.79 801.8C1605.11 801.48 1604.54 800.96 1604.07 800.23C1603.6 799.5 1603.23 798.53 1602.98 797.36C1602.71 796.17 1602.58 794.7 1602.56 792.97L1602.48 784.14C1602.45 782.42 1602.57 780.96 1602.8 779.79C1603.03 778.63 1603.37 777.68 1603.83 776.96C1604.29 776.24 1604.84 775.71 1605.5 775.38C1606.17 775.06 1606.93 774.9 1607.78 774.89C1608.63 774.88 1609.4 775.03 1610.07 775.35C1610.75 775.67 1611.32 776.17 1611.8 776.89C1612.28 777.6 1612.64 778.55 1612.89 779.71C1613.14 780.89 1613.27 782.33 1613.29 784.05L1613.37 792.88C1613.37 794.62 1613.27 796.07 1613.05 797.26Z" fill="white"/>
<path d="M1652.26 784.77C1652.23 781.86 1651.89 779.37 1651.24 777.28C1650.58 775.2 1649.67 773.5 1648.51 772.17C1647.33 770.84 1645.95 769.87 1644.33 769.26C1642.72 768.64 1640.94 768.35 1638.99 768.36C1637.04 768.37 1635.27 768.71 1633.68 769.36C1632.92 769.66 1632.21 770.06 1631.55 770.51C1630.83 771.03 1630.17 771.64 1629.58 772.35C1628.44 773.7 1627.57 775.43 1626.95 777.51C1626.34 779.6 1626.05 782.1 1626.08 785.01L1626.14 791.74C1626.17 794.65 1626.51 797.14 1627.17 799.22C1627.83 801.31 1628.74 803.02 1629.9 804.34C1631.06 805.68 1632.46 806.66 1634.08 807.28C1634.67 807.51 1635.28 807.68 1635.91 807.82C1637.01 808.06 1638.19 808.19 1639.42 808.17C1641.37 808.14 1643.15 807.82 1644.75 807.17C1646.34 806.52 1647.71 805.53 1648.85 804.17C1649.98 802.8 1650.85 801.08 1651.46 798.99C1652.08 796.89 1652.37 794.4 1652.35 791.49L1652.26 784.77ZM1644.32 796.98C1644.09 798.17 1643.76 799.13 1643.31 799.88C1642.87 800.61 1642.31 801.15 1641.64 801.47C1640.97 801.79 1640.21 801.96 1639.36 801.98C1638.5 801.98 1637.74 801.83 1637.06 801.51C1636.92 801.45 1636.78 801.37 1636.66 801.28C1636.15 800.98 1635.71 800.52 1635.34 799.94C1634.87 799.22 1634.52 798.26 1634.25 797.07C1634 795.88 1633.86 794.43 1633.85 792.68L1633.76 783.85C1633.75 782.13 1633.85 780.69 1634.08 779.51C1634.13 779.28 1634.17 779.07 1634.23 778.86C1634.45 777.97 1634.74 777.24 1635.1 776.66C1635.56 775.94 1636.12 775.41 1636.78 775.09C1637.44 774.76 1638.2 774.6 1639.05 774.58C1639.91 774.58 1640.67 774.73 1641.35 775.04C1642.02 775.36 1642.6 775.88 1643.07 776.58C1643.55 777.3 1643.92 778.24 1644.17 779.4C1644.41 780.58 1644.55 782.02 1644.56 783.74L1644.65 792.57C1644.66 794.33 1644.54 795.79 1644.32 796.98Z" fill="white"/>
<path d="M1708.6 784.77C1708.57 781.86 1708.23 779.37 1707.58 777.28C1706.92 775.2 1706 773.5 1704.83 772.17C1703.67 770.84 1702.27 769.87 1700.67 769.26C1699.06 768.64 1697.28 768.35 1695.33 768.36C1693.37 768.37 1691.6 768.71 1690.01 769.36C1688.42 770.01 1687.05 770.99 1685.91 772.35C1684.77 773.7 1683.89 775.43 1683.28 777.51C1682.67 779.6 1682.38 782.1 1682.41 785.01L1682.47 791.74C1682.5 794.65 1682.84 797.14 1683.5 799.22C1684.16 801.31 1685.07 803.02 1686.23 804.34C1687.39 805.68 1688.79 806.66 1690.39 807.28C1692.01 807.89 1693.79 808.19 1695.74 808.18C1697.69 808.15 1699.46 807.83 1701.07 807.18C1702.66 806.53 1704.03 805.54 1705.17 804.18C1706.3 802.81 1707.17 801.09 1707.78 799C1708.4 796.9 1708.69 794.41 1708.67 791.5L1708.6 784.77ZM1700.65 796.98C1700.42 798.17 1700.09 799.13 1699.64 799.88C1699.2 800.61 1698.64 801.15 1697.97 801.47C1697.3 801.8 1696.54 801.96 1695.68 801.98C1694.83 801.98 1694.07 801.83 1693.39 801.51C1692.72 801.21 1692.14 800.67 1691.67 799.94C1691.2 799.22 1690.85 798.26 1690.58 797.07C1690.33 795.88 1690.19 794.43 1690.16 792.68L1690.08 783.85C1690.07 782.13 1690.17 780.69 1690.4 779.51C1690.63 778.33 1690.97 777.38 1691.43 776.66C1691.89 775.94 1692.44 775.41 1693.11 775.09C1693.77 774.76 1694.53 774.6 1695.38 774.58C1696.24 774.58 1697 774.73 1697.67 775.04C1698.35 775.36 1698.94 775.88 1699.4 776.58C1699.88 777.3 1700.25 778.24 1700.5 779.4C1700.74 780.58 1700.88 782.02 1700.89 783.74L1700.97 792.57C1700.99 794.33 1700.88 795.79 1700.65 796.98Z" fill="white"/>
<path d="M1739.87 784.48C1739.84 781.57 1739.5 779.08 1738.85 777C1738.19 774.91 1737.28 773.22 1736.12 771.89C1734.96 770.56 1733.56 769.59 1731.96 768.97C1730.34 768.36 1728.56 768.06 1726.61 768.07C1724.66 768.1 1722.89 768.42 1721.29 769.07C1719.7 769.72 1718.33 770.72 1717.19 772.06C1716.05 773.41 1715.18 775.14 1714.57 777.22C1713.95 779.32 1713.66 781.81 1713.68 784.72L1713.74 791.45C1713.77 794.36 1714.11 796.85 1714.77 798.94C1715.43 801.02 1716.34 802.72 1717.52 804.07C1718.68 805.4 1720.08 806.39 1721.68 806.99C1723.29 807.61 1725.07 807.9 1727.02 807.89C1728.97 807.88 1730.75 807.54 1732.35 806.89C1733.96 806.24 1735.32 805.24 1736.45 803.89C1737.59 802.52 1738.45 800.8 1739.07 798.71C1739.68 796.62 1739.97 794.12 1739.94 791.21L1739.87 784.48ZM1731.94 796.69C1731.71 797.88 1731.37 798.84 1730.93 799.59C1730.49 800.34 1729.92 800.87 1729.25 801.18C1728.58 801.51 1727.82 801.67 1726.97 801.69C1726.11 801.69 1725.35 801.54 1724.68 801.23C1724 800.91 1723.43 800.39 1722.96 799.66C1722.49 798.93 1722.12 797.96 1721.87 796.77C1721.6 795.59 1721.47 794.13 1721.45 792.39L1721.36 783.54C1721.35 781.82 1721.46 780.38 1721.69 779.2C1721.92 778.02 1722.26 777.07 1722.72 776.35C1723.18 775.63 1723.73 775.11 1724.39 774.78C1725.06 774.45 1725.81 774.29 1726.67 774.29C1727.52 774.28 1728.28 774.43 1728.96 774.75C1729.63 775.05 1730.21 775.57 1730.69 776.29C1731.16 777 1731.53 777.94 1731.78 779.11C1732.03 780.27 1732.16 781.72 1732.17 783.44L1732.26 792.29C1732.26 794.03 1732.16 795.5 1731.94 796.69Z" fill="white"/>
<path d="M1771.15 784.19C1771.11 781.28 1770.77 778.79 1770.11 776.71C1769.45 774.63 1768.54 772.93 1767.38 771.6C1766.22 770.27 1764.82 769.3 1763.22 768.68C1761.61 768.07 1759.83 767.77 1757.88 767.79C1755.92 767.8 1754.15 768.13 1752.57 768.78C1750.98 769.43 1749.61 770.43 1748.47 771.78C1747.33 773.12 1746.45 774.84 1745.84 776.94C1745.23 779.03 1744.94 781.52 1744.97 784.43L1745.03 791.16C1745.06 794.07 1745.4 796.58 1746.06 798.65C1746.72 800.73 1747.63 802.43 1748.79 803.78C1749.95 805.12 1751.35 806.1 1752.95 806.7C1754.57 807.32 1756.34 807.62 1758.3 807.6C1760.25 807.59 1762.02 807.26 1763.63 806.61C1765.22 805.96 1766.59 804.96 1767.73 803.6C1768.86 802.25 1769.73 800.51 1770.34 798.42C1770.95 796.33 1771.25 793.83 1771.21 790.92L1771.15 784.19ZM1763.2 796.4C1762.97 797.59 1762.63 798.56 1762.19 799.3C1761.75 800.05 1761.19 800.58 1760.52 800.91C1759.85 801.23 1759.09 801.4 1758.23 801.4C1757.38 801.41 1756.62 801.26 1755.94 800.94C1755.26 800.62 1754.69 800.1 1754.22 799.37C1753.75 798.64 1753.38 797.67 1753.13 796.5C1752.86 795.31 1752.74 793.84 1752.71 792.11L1752.63 783.26C1752.62 781.54 1752.72 780.1 1752.95 778.92C1753.18 777.76 1753.52 776.81 1753.98 776.09C1754.44 775.36 1754.99 774.84 1755.66 774.51C1756.32 774.19 1757.08 774.02 1757.93 774.02C1758.78 774.01 1759.55 774.16 1760.22 774.48C1760.9 774.8 1761.47 775.3 1761.95 776.02C1762.43 776.73 1762.8 777.68 1763.04 778.84C1763.29 780 1763.43 781.46 1763.45 783.18L1763.53 792.01C1763.55 793.74 1763.43 795.21 1763.2 796.4Z" fill="white"/>
<path d="M1802.42 783.91C1802.39 781 1802.05 778.51 1801.39 776.42C1800.73 774.34 1799.82 772.64 1798.66 771.31C1797.5 769.98 1796.1 769.01 1794.48 768.4C1792.87 767.78 1791.09 767.49 1789.14 767.5C1787.19 767.51 1785.42 767.85 1783.83 768.49C1782.24 769.14 1780.87 770.14 1779.73 771.49C1778.59 772.84 1777.72 774.57 1777.11 776.65C1776.49 778.74 1776.2 781.24 1776.22 784.15L1776.28 790.88C1776.31 793.79 1776.65 796.28 1777.3 798.36C1777.96 800.45 1778.87 802.16 1780.03 803.48C1781.21 804.82 1782.59 805.8 1784.21 806.42C1785.82 807.03 1787.6 807.33 1789.55 807.32C1791.5 807.29 1793.28 806.97 1794.88 806.32C1796.49 805.67 1797.85 804.67 1798.98 803.31C1800.12 801.96 1800.98 800.23 1801.6 798.15C1802.21 796.05 1802.5 793.56 1802.47 790.65L1802.42 783.91ZM1794.49 796.12C1794.25 797.31 1793.92 798.27 1793.48 799.02C1793.02 799.75 1792.47 800.29 1791.8 800.61C1791.13 800.94 1790.37 801.1 1789.52 801.1C1788.66 801.11 1787.9 800.96 1787.22 800.64C1786.55 800.32 1785.98 799.8 1785.51 799.07C1785.04 798.35 1784.68 797.39 1784.41 796.2C1784.16 795.01 1784.02 793.56 1784 791.81L1783.91 782.98C1783.9 781.26 1784.01 779.8 1784.24 778.64C1784.47 777.46 1784.81 776.51 1785.27 775.79C1785.73 775.07 1786.28 774.54 1786.94 774.22C1787.6 773.89 1788.36 773.73 1789.22 773.71C1790.07 773.71 1790.83 773.86 1791.51 774.17C1792.18 774.49 1792.76 775.01 1793.24 775.71C1793.71 776.43 1794.07 777.37 1794.33 778.53C1794.58 779.71 1794.71 781.15 1794.72 782.87L1794.81 791.7C1794.82 793.47 1794.71 794.92 1794.49 796.12Z" fill="white"/>
<path d="M1862.59 783.38C1862.56 780.77 1862.29 778.51 1861.75 776.57V776.56C1861.7 776.33 1861.62 776.12 1861.56 775.9C1860.9 773.81 1859.99 772.12 1858.83 770.79C1857.67 769.46 1856.27 768.49 1854.67 767.87C1853.05 767.26 1851.28 766.96 1849.32 766.97C1847.37 767 1845.6 767.32 1844.01 767.97C1842.43 768.62 1841.06 769.62 1839.91 770.96C1838.77 772.31 1837.9 774.04 1837.29 776.12C1837.19 776.45 1837.1 776.8 1837.02 777.16C1836.59 779.03 1836.37 781.18 1836.41 783.63L1836.46 790.36C1836.5 793.27 1836.84 795.76 1837.5 797.85C1838.16 799.93 1839.07 801.63 1840.23 802.98C1841.39 804.31 1842.79 805.3 1844.39 805.9C1846 806.52 1847.78 806.81 1849.73 806.8C1851.69 806.79 1853.46 806.45 1855.06 805.81C1856.67 805.16 1858.03 804.15 1859.16 802.8C1860.3 801.45 1861.17 799.71 1861.78 797.62C1862.39 795.53 1862.68 793.03 1862.65 790.12L1862.59 783.38ZM1854.66 795.59C1854.43 796.78 1854.09 797.75 1853.65 798.49C1853.21 799.24 1852.65 799.77 1851.97 800.08C1851.3 800.41 1850.54 800.57 1849.69 800.59C1848.84 800.6 1848.07 800.45 1847.4 800.13C1846.72 799.81 1846.15 799.29 1845.68 798.56C1845.21 797.83 1844.85 796.86 1844.59 795.67C1844.32 794.49 1844.18 793.03 1844.17 791.29L1844.09 782.44C1844.06 780.72 1844.18 779.28 1844.41 778.1C1844.64 776.92 1844.98 775.99 1845.44 775.25C1845.9 774.53 1846.45 774.01 1847.11 773.68C1847.27 773.59 1847.45 773.53 1847.63 773.46C1848.16 773.27 1848.76 773.18 1849.39 773.18C1849.81 773.18 1850.2 773.21 1850.58 773.28H1850.61C1851 773.36 1851.34 773.47 1851.69 773.63C1852.37 773.95 1852.94 774.45 1853.42 775.17C1853.9 775.88 1854.25 776.83 1854.51 777.99C1854.76 779.15 1854.89 780.6 1854.92 782.32L1855 791.17C1854.99 792.93 1854.89 794.4 1854.66 795.59Z" fill="white"/>
<path d="M1893.88 783.09C1893.85 780.18 1893.51 777.69 1892.86 775.61C1892.2 773.53 1891.29 771.83 1890.11 770.5C1888.95 769.17 1887.57 768.2 1885.95 767.59C1884.34 766.97 1882.56 766.67 1880.61 766.69C1878.65 766.7 1876.89 767.03 1875.29 767.68C1873.7 768.33 1872.33 769.33 1871.19 770.68C1870.68 771.29 1870.22 771.96 1869.81 772.72C1869.32 773.64 1868.89 774.69 1868.56 775.85C1868.23 776.98 1868 778.2 1867.86 779.57C1867.72 780.73 1867.67 782 1867.68 783.34L1867.74 790.08C1867.77 792.99 1868.11 795.48 1868.76 797.56C1869.42 799.64 1870.33 801.34 1871.49 802.68C1872.65 804.02 1874.05 805 1875.65 805.62C1877.27 806.23 1879.05 806.53 1881 806.51C1882.95 806.5 1884.72 806.17 1886.33 805.52C1887.92 804.87 1889.29 803.88 1890.43 802.51C1891.56 801.16 1892.43 799.43 1893.04 797.33C1893.66 795.24 1893.95 792.75 1893.93 789.84L1893.88 783.09ZM1885.93 795.3C1885.7 796.5 1885.37 797.46 1884.92 798.2C1884.48 798.95 1883.92 799.48 1883.25 799.81C1882.58 800.13 1881.82 800.3 1880.96 800.3C1880.11 800.31 1879.35 800.16 1878.67 799.84C1878 799.52 1877.42 799 1876.95 798.27C1876.48 797.54 1876.13 796.59 1875.86 795.4C1875.61 794.21 1875.47 792.74 1875.45 791.01L1875.36 782.18C1875.35 780.46 1875.45 779 1875.68 777.84C1875.91 776.66 1876.25 775.71 1876.71 774.99C1877.17 774.27 1877.72 773.74 1878.39 773.41C1879.05 773.09 1879.81 772.93 1880.66 772.92C1881.52 772.91 1882.28 773.06 1882.96 773.38C1883.63 773.7 1884.21 774.2 1884.68 774.92C1885.16 775.63 1885.53 776.58 1885.78 777.74C1886.02 778.92 1886.16 780.36 1886.17 782.08L1886.26 790.91C1886.27 792.66 1886.16 794.11 1885.93 795.3Z" fill="white"/>
<path d="M1925.14 782.81C1925.11 779.9 1924.77 777.41 1924.11 775.32C1923.45 773.24 1922.54 771.54 1921.38 770.21C1920.22 768.88 1918.82 767.91 1917.22 767.3C1915.6 766.68 1913.82 766.39 1911.87 766.4C1909.92 766.41 1908.15 766.75 1906.56 767.4C1904.97 768.05 1903.61 769.03 1902.46 770.39C1901.32 771.74 1900.45 773.46 1899.84 775.55C1899.22 777.64 1898.93 780.14 1898.95 783.05L1899.01 789.78C1899.04 792.69 1899.39 795.18 1900.05 797.26C1900.71 799.35 1901.62 801.06 1902.78 802.39C1903.94 803.73 1905.34 804.71 1906.94 805.33C1908.55 805.94 1910.33 806.24 1912.28 806.23C1914.24 806.2 1916.01 805.88 1917.61 805.23C1919.22 804.58 1920.58 803.58 1921.71 802.23C1922.85 800.86 1923.72 799.14 1924.33 797.05C1924.94 794.95 1925.23 792.46 1925.2 789.55L1925.14 782.81ZM1917.21 795.02C1916.98 796.21 1916.64 797.17 1916.2 797.92C1915.76 798.65 1915.19 799.19 1914.52 799.51C1913.85 799.83 1913.09 800 1912.24 800.02C1911.39 800.02 1910.62 799.87 1909.95 799.55C1909.27 799.25 1908.7 798.71 1908.23 797.98C1907.76 797.26 1907.39 796.3 1907.14 795.11C1906.87 793.92 1906.73 792.47 1906.72 790.72L1906.64 781.89C1906.61 780.17 1906.73 778.73 1906.96 777.55C1907.19 776.37 1907.53 775.42 1907.99 774.7C1908.45 773.98 1909 773.45 1909.66 773.13C1910.33 772.8 1911.08 772.64 1911.94 772.62C1912.79 772.62 1913.55 772.77 1914.23 773.08C1914.91 773.4 1915.48 773.92 1915.96 774.62C1916.43 775.34 1916.79 776.28 1917.05 777.44C1917.3 778.62 1917.43 780.06 1917.45 781.78L1917.53 790.61C1917.54 792.36 1917.44 793.83 1917.21 795.02Z" fill="white"/>
<path d="M1956.43 782.52C1956.4 779.61 1956.05 777.12 1955.4 775.04C1954.73 772.95 1953.82 771.26 1952.65 769.93C1951.48 768.6 1950.09 767.63 1948.49 767.01C1946.88 766.4 1945.1 766.1 1943.15 766.11C1941.19 766.14 1939.42 766.46 1937.84 767.11C1936.25 767.76 1934.88 768.76 1933.74 770.1C1932.6 771.45 1931.72 773.18 1931.11 775.26C1930.5 777.36 1930.21 779.85 1930.24 782.76L1930.3 789.49C1930.33 792.4 1930.67 794.89 1931.32 796.98C1931.98 799.06 1932.89 800.76 1934.05 802.11C1935.21 803.44 1936.61 804.43 1938.21 805.03C1939.83 805.65 1941.61 805.94 1943.56 805.93C1945.51 805.92 1947.28 805.58 1948.89 804.93C1950.48 804.28 1951.85 803.28 1952.99 801.93C1954.12 800.56 1954.99 798.84 1955.6 796.75C1956.22 794.66 1956.51 792.16 1956.49 789.25L1956.43 782.52ZM1948.48 794.73C1948.25 795.92 1947.91 796.88 1947.47 797.63C1947.03 798.38 1946.47 798.91 1945.8 799.22C1945.13 799.55 1944.37 799.71 1943.51 799.73C1942.66 799.73 1941.9 799.58 1941.22 799.27C1940.55 798.95 1939.97 798.43 1939.5 797.7C1939.03 796.97 1938.68 796 1938.41 794.81C1938.16 793.63 1938.02 792.17 1937.99 790.43L1937.91 781.58C1937.9 779.86 1938 778.42 1938.23 777.24C1938.46 776.06 1938.8 775.11 1939.25 774.39C1939.71 773.67 1940.26 773.15 1940.93 772.82C1941.59 772.49 1942.35 772.33 1943.2 772.33C1944.06 772.32 1944.82 772.47 1945.49 772.79C1946.17 773.09 1946.76 773.61 1947.22 774.33C1947.7 775.04 1948.07 775.98 1948.31 777.15C1948.56 778.31 1948.7 779.76 1948.72 781.48L1948.8 790.33C1948.82 792.07 1948.71 793.54 1948.48 794.73Z" fill="white"/>
<path d="M1732.94 838.47C1737.7 865.18 1792.6 906.09 1860.94 913.67C1929.26 921.24 1894.16 1152.46 2008.7 1160.36C2123.25 1168.25 2196.7 1053.81 2196.7 1053.81C2196.7 1053.81 2172.16 900.46 2082.48 851.94C2012.49 814.05 1896.05 827.03 1829.44 822.1C1825.74 821.82 1822.13 821.55 1818.63 821.28C1779.51 818.25 1752.86 815.73 1740.46 821.52C1733.99 824.53 1731.39 829.81 1732.94 838.47Z" fill="#F7B686"/>
<path d="M2071.07 1132.28C2038.25 1132.28 1981 1125.18 1941.09 1081.18C1909.61 1046.47 1895.37 964.25 1894.78 960.77C1894.38 958.39 1895.98 956.13 1898.36 955.73C1900.78 955.37 1903 956.93 1903.4 959.31C1903.54 960.14 1917.8 1042.5 1947.57 1075.32C2002.12 1135.46 2094.46 1122.21 2095.37 1122.05C2097.79 1121.76 2099.99 1123.32 2100.35 1125.71C2100.71 1128.1 2099.07 1130.33 2096.69 1130.69C2095.46 1130.87 2085.69 1132.28 2071.07 1132.28Z" fill="#EA9F75"/>
<path d="M1740.46 821.53C1732.65 831.62 1752.58 844.39 1781.51 845C1801.49 845.42 1804.85 820.79 1804.19 820.16C1765.07 817.12 1752.86 815.73 1740.46 821.53Z" fill="#EA9F75"/>
<path d="M2315.49 1202.82L2402.6 1379.43L2072.32 1540.65L2017.92 1553.03C2017.92 1553.03 1964.65 1375.37 1972.49 1363.4C1980.33 1351.43 2088.68 1335.84 2170.11 1287.64C2251.53 1239.43 2307.06 1183.42 2315.49 1202.82Z" fill="#F0F7F6"/>
<path d="M2484.84 1472.17C2484.84 1510.06 2485.58 1529.24 2481.33 1558.31C2458.1 1717.23 2322.12 1823.11 2160.89 1846.12C2136.98 1849.55 2111.16 1852.62 2085.13 1855.04C2076.9 1822.2 2017.91 1587.2 2017.91 1553.03C2012.52 1470.45 2156.22 1491.97 2244.24 1451.26C2332.28 1410.61 2379.64 1333.3 2406.74 1349.33C2414.29 1353.82 2444.78 1403.22 2484.84 1472.17Z" fill="#436E8E"/>
<path d="M2339.37 1362.47C2340.01 1347.3 2331.57 1339.46 2320.58 1330.8C2312.04 1324.07 2305.58 1315.82 2303.03 1305.06C2300.38 1293.88 2304.8 1280.49 2298.53 1270.36C2293.18 1261.72 2283.15 1256.79 2277.04 1248.61C2273.7 1244.14 2280.88 1239.31 2284.2 1243.76C2290.59 1252.29 2300.85 1257.22 2306.35 1266.52C2312.78 1277.39 2308.91 1289.73 2311.13 1301.45C2313.99 1316.57 2325.46 1322.27 2335.72 1331.81C2344.26 1339.75 2348.5 1350.37 2348.01 1361.98C2347.78 1367.47 2339.14 1368.04 2339.37 1362.47Z" fill="#DEEBE9"/>
<path d="M2279.01 1397.15C2283.9 1374.49 2251.5 1364.2 2242.35 1347.29C2237.59 1338.49 2237.97 1329.04 2238.25 1319.32C2238.52 1309.91 2237.97 1295.68 2226.57 1293C2221.16 1291.73 2222.87 1283.24 2228.31 1284.53C2237.06 1286.59 2242.58 1293.2 2245.21 1301.63C2249.29 1314.67 2243.41 1329.18 2249.24 1341.69C2259.05 1362.75 2293.67 1370.24 2287.48 1398.9C2286.31 1404.32 2277.83 1402.61 2279.01 1397.15Z" fill="#DEEBE9"/>
<path d="M2210.55 1446.6C2216.41 1431.1 2212.14 1413.97 2199.94 1402.85C2190.5 1394.24 2178.15 1388.41 2172.07 1376.61C2165.59 1364.04 2172.02 1347.67 2163.98 1336.09C2156.75 1325.68 2141.49 1322.79 2131.92 1314.85C2127.62 1311.29 2133.31 1304.77 2137.59 1308.32C2148.3 1317.2 2163.94 1319.9 2171.75 1332.21C2180.91 1346.64 2171.94 1365.57 2184.09 1378.78C2194.18 1389.75 2208.39 1395.44 2215.85 1408.98C2222.94 1421.86 2223.44 1436.82 2218.3 1450.42C2216.34 1455.64 2208.6 1451.77 2210.55 1446.6Z" fill="#DEEBE9"/>
<path d="M2122.56 1464.83C2123.33 1457.38 2123.53 1449.81 2122.7 1442.34C2121.68 1433.07 2118.75 1429.23 2110.28 1425.37C2100.72 1421.02 2092.24 1416.53 2086.5 1407.29C2083.83 1403 2081.95 1398.26 2081 1393.3C2079.46 1385.23 2081.12 1376.75 2073.48 1371.43C2068.77 1368.15 2065.41 1365.16 2062.32 1360.22C2058.7 1354.43 2055.52 1345.49 2047.2 1346.26C2041.66 1346.77 2041.15 1338.13 2046.7 1337.62C2062.69 1336.15 2064.75 1352.91 2074.15 1361.39C2079.25 1365.99 2084.82 1367.76 2087.24 1374.81C2089.92 1382.62 2088.23 1391.03 2091.68 1398.75C2095.29 1406.83 2101.84 1412.17 2109.73 1415.73C2115.15 1418.18 2120.92 1420.24 2125.14 1424.62C2134.72 1434.56 2132.34 1454.09 2131.04 1466.57C2130.46 1472.1 2121.99 1470.34 2122.56 1464.83Z" fill="#DEEBE9"/>
<path d="M2002.14 1355.06C1992.85 1368.26 2010.82 1382.38 2018.58 1390.92C2027.22 1400.42 2030.63 1410.37 2030.17 1423.1C2029.66 1437.13 2026.91 1449.78 2036.25 1461.75C2043.55 1471.1 2052.45 1478.25 2054.16 1490.68C2054.92 1496.19 2046.28 1496.67 2045.52 1491.18C2043.55 1476.9 2027.79 1469.07 2022.81 1455.88C2017.93 1442.95 2022.64 1429.34 2021.45 1416.06C2019.36 1392.83 1977 1375.81 1995.6 1349.38C1998.81 1344.82 2005.31 1350.54 2002.14 1355.06Z" fill="#DEEBE9"/>
<path d="M1763.83 1058.8C1779.45 1050.58 1790.91 1036.93 1796.55 1020.24C1797.86 1016.37 1791.75 1014.71 1790.45 1018.56C1785.32 1033.74 1774.79 1045.89 1760.63 1053.34C1757.04 1055.23 1760.23 1060.69 1763.83 1058.8Z" fill="#EA9F75"/>
<path d="M1792.29 1046.38C1782.81 1049.81 1773.13 1051.63 1763.04 1051.8C1758.97 1051.87 1758.96 1058.2 1763.04 1058.13C1773.67 1057.95 1783.96 1056.1 1793.97 1052.48C1797.77 1051.1 1796.13 1044.99 1792.29 1046.38Z" fill="#EA9F75"/>
<path d="M1999.81 829.33C2038.77 843.92 2073.61 870.78 2108.43 893.12C2111.87 895.32 2115.04 889.85 2111.62 887.66C2076.15 864.91 2041.18 838.09 2001.49 823.23C1997.67 821.8 1996.03 827.92 1999.81 829.33Z" fill="#EA9F75"/>
<path d="M1849.62 1197.97C1880.46 1228.42 1923.21 1225.18 1963.08 1219.92C1967.06 1219.39 1967.11 1213.06 1963.08 1213.59C1925.18 1218.59 1883.66 1222.69 1854.1 1193.5C1851.2 1190.63 1846.72 1195.1 1849.62 1197.97Z" fill="#EA9F75"/>
<path d="M138.31 1152.7C138.31 1152.7 156.03 1214.71 207.91 1210.91L350.91 1152.7V1093.22L138.31 1152.7Z" fill="white"/>
<path d="M289.7 386.62C289.7 386.62 71.2501 436.17 210.45 719.78C349.65 1003.39 309.14 1172.95 207.92 1210.92L734.94 1081.84L592.61 502.26L449.49 395.96L289.7 386.62Z" fill="#B2C9C6"/>
<path d="M1172.48 1578.87L773.45 1688.55C702.55 1708.04 629.28 1666.36 609.79 1595.46L370.02 723.14C350.53 652.24 392.21 578.97 463.11 559.48L862.14 449.8C933.04 430.31 1006.31 471.99 1025.8 542.89L1265.57 1415.21C1285.06 1486.11 1243.38 1559.38 1172.48 1578.87Z" fill="#2F1A31"/>
<path d="M1251.64 1557.11L852.61 1666.79C781.71 1686.28 708.44 1644.6 688.95 1573.7L449.18 701.38C429.69 630.48 471.37 557.21 542.27 537.72L941.3 428.04C1012.2 408.55 1085.47 450.23 1104.96 521.13L1344.73 1393.45C1364.22 1464.35 1322.54 1537.63 1251.64 1557.11Z" fill="#00426D"/>
<path d="M1052.97 616.879L555.094 753.714L630.063 1026.49L1127.94 889.651L1052.97 616.879Z" fill="#2F1A31"/>
<path d="M1040.77 620.228L542.894 757.064L617.862 1029.84L1115.74 893L1040.77 620.228Z" fill="#DEEBE9"/>
<path d="M779.71 1151.76L687.53 1177.1C672.57 1181.21 657.12 1172.42 653 1157.46L644.48 1126.46C640.37 1111.5 649.16 1096.05 664.12 1091.93L756.3 1066.59C771.26 1062.48 786.71 1071.27 790.83 1086.23L799.35 1117.23C803.46 1132.19 794.66 1147.64 779.71 1151.76Z" fill="#2F1A31"/>
<path d="M955.48 1103.44L863.3 1128.78C848.34 1132.89 832.89 1124.1 828.77 1109.14L820.25 1078.14C816.14 1063.18 824.93 1047.73 839.89 1043.61L932.07 1018.27C947.03 1014.16 962.48 1022.95 966.6 1037.91L975.12 1068.91C979.23 1083.87 970.44 1099.33 955.48 1103.44Z" fill="#2F1A31"/>
<path d="M1131.26 1055.13L1039.08 1080.47C1024.12 1084.58 1008.67 1075.79 1004.55 1060.83L996.03 1029.83C991.92 1014.87 1000.71 999.42 1015.67 995.3L1107.85 969.96C1122.81 965.85 1138.26 974.64 1142.38 989.6L1150.9 1020.6C1155.01 1035.56 1146.22 1051.02 1131.26 1055.13Z" fill="#2F1A31"/>
<path d="M814.53 1278.46L722.35 1303.8C707.39 1307.91 691.94 1299.12 687.82 1284.16L679.3 1253.16C675.19 1238.2 683.98 1222.75 698.94 1218.63L791.12 1193.29C806.08 1189.18 821.53 1197.97 825.65 1212.93L834.17 1243.93C838.28 1258.89 829.49 1274.35 814.53 1278.46Z" fill="#2F1A31"/>
<path d="M990.31 1230.15L898.13 1255.49C883.17 1259.6 867.72 1250.81 863.6 1235.85L855.08 1204.85C850.97 1189.89 859.76 1174.44 874.72 1170.32L966.9 1144.98C981.86 1140.87 997.31 1149.66 1001.43 1164.62L1009.95 1195.62C1014.06 1210.58 1005.27 1226.04 990.31 1230.15Z" fill="#2F1A31"/>
<path d="M1166.09 1181.83L1073.91 1207.17C1058.95 1211.28 1043.5 1202.49 1039.38 1187.53L1030.86 1156.53C1026.75 1141.57 1035.54 1126.12 1050.5 1122L1142.68 1096.66C1157.64 1092.55 1173.09 1101.34 1177.21 1116.3L1185.73 1147.3C1189.83 1162.27 1181.04 1177.72 1166.09 1181.83Z" fill="#2F1A31"/>
<path d="M849.36 1405.17L757.18 1430.51C742.22 1434.62 726.77 1425.83 722.65 1410.87L714.13 1379.87C710.02 1364.91 718.81 1349.46 733.77 1345.34L825.95 1320C840.91 1315.89 856.36 1324.68 860.48 1339.64L869 1370.64C873.11 1385.6 864.32 1401.06 849.36 1405.17Z" fill="#2F1A31"/>
<path d="M1025.14 1356.86L932.96 1382.2C918 1386.31 902.55 1377.52 898.43 1362.56L889.91 1331.56C885.8 1316.6 894.59 1301.15 909.55 1297.03L1001.73 1271.69C1016.69 1267.58 1032.14 1276.37 1036.26 1291.33L1044.78 1322.33C1048.89 1337.29 1040.09 1352.75 1025.14 1356.86Z" fill="#2F1A31"/>
<path d="M1200.91 1308.54L1108.73 1333.88C1093.77 1337.99 1078.32 1329.2 1074.2 1314.24L1065.68 1283.24C1061.57 1268.28 1070.36 1252.83 1085.32 1248.71L1177.5 1223.37C1192.46 1219.26 1207.91 1228.05 1212.03 1243.01L1220.55 1274.01C1224.66 1288.97 1215.87 1304.43 1200.91 1308.54Z" fill="#2F1A31"/>
<path d="M884.19 1531.88L792.01 1557.22C777.05 1561.33 761.6 1552.54 757.48 1537.58L748.96 1506.58C744.85 1491.62 753.64 1476.17 768.6 1472.05L860.78 1446.71C875.74 1442.6 891.19 1451.39 895.31 1466.35L903.83 1497.35C907.94 1512.31 899.14 1527.77 884.19 1531.88Z" fill="#BCBF80"/>
<path d="M1059.96 1483.56L967.78 1508.9C952.82 1513.01 937.37 1504.22 933.25 1489.26L924.73 1458.26C920.62 1443.3 929.41 1427.85 944.37 1423.73L1036.55 1398.39C1051.51 1394.28 1066.96 1403.07 1071.08 1418.03L1079.6 1449.03C1083.71 1464 1074.92 1479.45 1059.96 1483.56Z" fill="#629FB7"/>
<path d="M1235.74 1435.25L1143.56 1460.59C1128.6 1464.7 1113.15 1455.91 1109.03 1440.95L1100.51 1409.95C1096.4 1394.99 1105.19 1379.54 1120.15 1375.42L1212.33 1350.08C1227.29 1345.97 1242.74 1354.76 1246.86 1369.72L1255.38 1400.72C1259.49 1415.68 1250.7 1431.14 1235.74 1435.25Z" fill="#1FAC53"/>
<path d="M798.42 1146.61L706.24 1171.95C691.28 1176.06 675.83 1167.27 671.71 1152.31L663.19 1121.31C659.08 1106.35 667.87 1090.9 682.83 1086.78L775.01 1061.44C789.97 1057.33 805.42 1066.12 809.54 1081.08L818.06 1112.08C822.16 1127.04 813.37 1142.5 798.42 1146.61Z" fill="#DEEBE9"/>
<path d="M974.19 1098.3L882.01 1123.64C867.05 1127.75 851.6 1118.96 847.48 1104L838.96 1073C834.85 1058.04 843.64 1042.59 858.6 1038.47L950.78 1013.13C965.74 1009.02 981.19 1017.81 985.31 1032.77L993.83 1063.77C997.94 1078.73 989.15 1094.19 974.19 1098.3Z" fill="#DEEBE9"/>
<path d="M1149.97 1049.98L1057.79 1075.32C1042.83 1079.43 1027.38 1070.64 1023.26 1055.68L1014.74 1024.68C1010.63 1009.72 1019.42 994.27 1034.38 990.15L1126.56 964.81C1141.52 960.7 1156.97 969.49 1161.09 984.45L1169.61 1015.45C1173.72 1030.42 1164.92 1045.87 1149.97 1049.98Z" fill="#DEEBE9"/>
<path d="M833.24 1273.32L741.06 1298.66C726.1 1302.77 710.65 1293.98 706.53 1279.02L698.01 1248.02C693.9 1233.06 702.69 1217.61 717.65 1213.49L809.83 1188.15C824.79 1184.04 840.24 1192.83 844.36 1207.79L852.88 1238.79C856.99 1253.75 848.2 1269.21 833.24 1273.32Z" fill="#DEEBE9"/>
<path d="M1009.02 1225.01L916.84 1250.35C901.88 1254.46 886.43 1245.67 882.31 1230.71L873.79 1199.71C869.68 1184.75 878.47 1169.3 893.43 1165.18L985.61 1139.84C1000.57 1135.73 1016.02 1144.52 1020.14 1159.48L1028.66 1190.48C1032.77 1205.44 1023.98 1220.9 1009.02 1225.01Z" fill="#DEEBE9"/>
<path d="M1184.8 1176.69L1092.62 1202.03C1077.66 1206.14 1062.21 1197.35 1058.09 1182.39L1049.57 1151.39C1045.46 1136.43 1054.25 1120.98 1069.21 1116.86L1161.39 1091.52C1176.35 1087.41 1191.8 1096.2 1195.92 1111.16L1204.44 1142.16C1208.54 1157.12 1199.75 1172.58 1184.8 1176.69Z" fill="#DEEBE9"/>
<path d="M868.07 1400.03L775.89 1425.37C760.93 1429.48 745.48 1420.69 741.36 1405.73L732.84 1374.73C728.73 1359.77 737.52 1344.32 752.48 1340.2L844.66 1314.86C859.62 1310.75 875.07 1319.54 879.19 1334.5L887.71 1365.5C891.82 1380.46 883.03 1395.92 868.07 1400.03Z" fill="#DEEBE9"/>
<path d="M1043.85 1351.71L951.67 1377.05C936.71 1381.16 921.26 1372.37 917.14 1357.41L908.62 1326.41C904.51 1311.45 913.3 1296 928.26 1291.88L1020.44 1266.54C1035.4 1262.43 1050.85 1271.22 1054.97 1286.18L1063.49 1317.18C1067.6 1332.15 1058.8 1347.6 1043.85 1351.71Z" fill="#DEEBE9"/>
<path d="M1219.62 1303.4L1127.44 1328.74C1112.48 1332.85 1097.03 1324.06 1092.91 1309.1L1084.39 1278.1C1080.28 1263.14 1089.07 1247.69 1104.03 1243.57L1196.21 1218.23C1211.17 1214.12 1226.62 1222.91 1230.74 1237.87L1239.26 1268.87C1243.37 1283.83 1234.58 1299.29 1219.62 1303.4Z" fill="#DEEBE9"/>
<path d="M902.9 1526.74L810.72 1552.08C795.76 1556.19 780.31 1547.4 776.19 1532.44L767.67 1501.44C763.56 1486.48 772.35 1471.03 787.31 1466.91L879.49 1441.57C894.45 1437.46 909.9 1446.25 914.02 1461.21L922.54 1492.21C926.65 1507.17 917.85 1522.62 902.9 1526.74Z" fill="#CFD3A3"/>
<path d="M1078.67 1478.42L986.49 1503.76C971.53 1507.87 956.08 1499.08 951.96 1484.12L943.44 1453.12C939.33 1438.16 948.12 1422.71 963.08 1418.59L1055.26 1393.25C1070.22 1389.14 1085.67 1397.93 1089.79 1412.89L1098.31 1443.89C1102.42 1458.85 1093.63 1474.31 1078.67 1478.42Z" fill="#81B3CC"/>
<path d="M1254.45 1430.11L1162.27 1455.45C1147.31 1459.56 1131.86 1450.77 1127.74 1435.81L1119.22 1404.81C1115.11 1389.85 1123.9 1374.4 1138.86 1370.28L1231.04 1344.94C1246 1340.83 1261.45 1349.62 1265.57 1364.58L1274.09 1395.58C1278.2 1410.54 1269.41 1426 1254.45 1430.11Z" fill="#22C55E"/>
<path d="M1274.65 1471.23L795.486 1602.93L799.175 1616.35L1278.33 1484.66L1274.65 1471.23Z" fill="#2F1A31"/>
<path d="M1019.39 572.26C1019.39 572.26 977.82 291.72 804.59 270.84L289.7 386.62C289.7 386.62 475.15 384.4 535.22 705.34L1019.39 572.26Z" fill="white"/>
<path d="M1029.21 571.62L528.12 709.35C526.41 709.82 524.64 708.81 524.17 707.1C523.7 705.39 524.71 703.62 526.42 703.15L1027.51 565.42C1029.22 564.95 1030.99 565.96 1031.46 567.67C1031.93 569.38 1030.92 571.15 1029.21 571.62Z" fill="#2F1A31"/>
<path d="M548.4 602.09C670.55 561.9 793.65 524.97 917.74 491.28C921.67 490.21 920 484.11 916.06 485.18C791.96 518.87 668.86 555.8 546.72 595.99C542.86 597.25 544.51 603.37 548.4 602.09Z" fill="#B2C9C6"/>
<path d="M551.15 621.73C601.17 605.25 651.71 590.76 702.86 578.22C706.81 577.25 705.14 571.15 701.18 572.12C650.03 584.66 599.49 599.15 549.47 615.63C545.62 616.9 547.26 623.01 551.15 621.73Z" fill="#B2C9C6"/>
<path d="M530.25 541.47C634.03 505.71 738.94 473.93 844.79 444.89C848.71 443.81 847.05 437.71 843.11 438.79C737.26 467.83 632.35 499.62 528.56 535.37C524.74 536.69 526.38 542.8 530.25 541.47Z" fill="#B2C9C6"/>
<path d="M516.6 513.19C562.57 496.77 608.42 480.5 655.38 467.08C659.29 465.96 657.63 459.86 653.7 460.98C606.74 474.4 560.89 490.67 514.92 507.09C511.11 508.45 512.75 514.57 516.6 513.19Z" fill="#B2C9C6"/>
<path d="M687.52 455.69C751.12 435.7 815.08 417.22 879.9 401.6C883.86 400.65 882.18 394.54 878.22 395.5C813.4 411.12 749.44 429.6 685.84 449.59C681.96 450.81 683.62 456.92 687.52 455.69Z" fill="#B2C9C6"/>
<path d="M500.28 478.01C591.81 446.73 684.8 420.34 778.65 396.96C782.6 395.98 780.93 389.87 776.97 390.86C683.12 414.24 590.13 440.63 498.6 471.91C494.77 473.22 496.41 479.33 500.28 478.01Z" fill="#B2C9C6"/>
<path d="M451 418.77C512.53 396.69 575.2 379.49 639.39 367.06C643.38 366.29 641.69 360.19 637.71 360.96C573.53 373.39 510.86 390.59 449.32 412.67C445.52 414.03 447.16 420.15 451 418.77Z" fill="#B2C9C6"/>
<path d="M669.1 358.04C716.39 342.89 764.16 329.59 812.47 318.12C816.43 317.18 814.75 311.08 810.79 312.02C762.47 323.49 714.71 336.79 667.42 351.94C663.56 353.18 665.21 359.29 669.1 358.04Z" fill="#B2C9C6"/>
<path d="M428.55 400.79C444.11 395.08 459.95 390.4 476.11 386.72C480.08 385.82 478.4 379.72 474.43 380.62C458.26 384.3 442.43 388.98 426.87 394.69C423.08 396.08 424.71 402.2 428.55 400.79Z" fill="#B2C9C6"/>
<path d="M828.86 928.43C793.75 928.43 763.55 916.73 743.85 895.5C726.13 876.41 717.97 850.2 720.25 819.71C724.76 759.28 769.39 714.66 828.79 711.19C857.35 709.51 883.26 718.67 903.39 737.66C925.06 758.1 937.49 788.04 937.49 819.81C937.48 885.79 894.84 928.43 828.86 928.43ZM835.39 713.52C833.25 713.52 831.1 713.58 828.93 713.71C770.84 717.11 727.18 760.77 722.77 819.9C720.55 849.67 728.47 875.22 745.7 893.78C764.64 914.19 794.95 925.89 828.86 925.89C893.31 925.89 934.95 884.25 934.95 819.8C934.95 788.73 922.82 759.46 901.65 739.49C883.56 722.43 860.76 713.52 835.39 713.52Z" fill="#2F1A31"/>
<path d="M732.9 819.8C737.32 760.67 781.07 715.9 840.26 712.44C904.03 708.72 947.62 760.5 947.62 819.8C947.62 879.09 911.62 927.16 840.26 927.16C780.97 927.16 727.5 892.22 732.9 819.8Z" fill="#22C55E"/>
<path d="M854.25 889.66C851.36 889.66 848.52 888.55 846.37 886.49L776.22 819.21C771.68 814.86 771.53 807.65 775.88 803.11C780.24 798.57 787.44 798.41 791.98 802.77L846.23 854.79L861.97 749.01C862.9 742.8 868.62 738.54 874.91 739.42C881.13 740.35 885.42 746.14 884.5 752.36L865.52 879.93C864.89 884.14 861.97 887.65 857.94 889.03C856.73 889.45 855.49 889.66 854.25 889.66Z" fill="white"/>
<path d="M1839.13 1747.72C1838.61 1747.72 1838.08 1747.71 1837.55 1747.71L1837.57 1746.44C1838.32 1746.46 1839.04 1746.51 1839.76 1746.45C1840.63 1746.45 1841.49 1746.44 1842.34 1746.43L1842.35 1747.7C1841.3 1747.71 1840.22 1747.74 1839.13 1747.72ZM1832.7 1747.53C1831.13 1747.42 1829.52 1747.31 1827.89 1747.17L1828 1745.92C1829.62 1746.06 1831.21 1746.17 1832.77 1746.26L1832.7 1747.53ZM1847.19 1747.48L1847.11 1746.21C1848.72 1746.11 1850.32 1745.97 1851.86 1745.79L1852 1747.04C1850.44 1747.22 1848.81 1747.36 1847.19 1747.48ZM1823.1 1746.68C1821.54 1746.49 1819.94 1746.28 1818.33 1746.05L1818.51 1744.8C1820.12 1745.03 1821.7 1745.23 1823.26 1745.43L1823.1 1746.68ZM1856.78 1746.34L1856.56 1745.09C1858.16 1744.81 1859.73 1744.49 1861.21 1744.13L1861.51 1745.36C1860 1745.73 1858.41 1746.06 1856.78 1746.34ZM1813.56 1745.3C1812 1745.05 1810.42 1744.76 1808.82 1744.45L1809.06 1743.2C1810.65 1743.51 1812.22 1743.8 1813.77 1744.05L1813.56 1745.3ZM1866.18 1744.06L1865.8 1742.86C1867.33 1742.38 1868.83 1741.84 1870.27 1741.25L1870.75 1742.43C1869.27 1743.01 1867.74 1743.56 1866.18 1744.06ZM1804.11 1743.46C1802.45 1743.1 1800.92 1742.71 1799.42 1742.29L1799.77 1741.06C1801.24 1741.48 1802.76 1741.87 1804.39 1742.23L1804.11 1743.46ZM1794.81 1740.8C1793.3 1740.25 1791.79 1739.65 1790.32 1739.01L1790.82 1737.86C1792.26 1738.49 1793.75 1739.07 1795.24 1739.6L1794.81 1740.8ZM1875.17 1740.43L1874.59 1739.3C1876.06 1738.55 1877.45 1737.77 1878.72 1736.97L1879.39 1738.05C1878.09 1738.86 1876.67 1739.67 1875.17 1740.43ZM1785.96 1736.95C1784.58 1736.25 1783.19 1735.48 1781.73 1734.59L1782.38 1733.51C1783.82 1734.38 1785.18 1735.13 1786.54 1735.82L1785.96 1736.95ZM1883.37 1735.28L1882.6 1734.27C1883.91 1733.26 1885.08 1732.25 1886.19 1731.19L1887.07 1732.1C1885.93 1733.2 1884.72 1734.23 1883.37 1735.28ZM1777.67 1731.99C1776.43 1731.15 1775.16 1730.21 1773.77 1729.14L1774.55 1728.13C1775.91 1729.2 1777.16 1730.11 1778.38 1730.93L1777.67 1731.99ZM1890.43 1728.6L1889.47 1727.78C1890.49 1726.6 1891.47 1725.34 1892.39 1724.05L1893.42 1724.77C1892.48 1726.11 1891.47 1727.39 1890.43 1728.6ZM1770.04 1726.06C1768.8 1724.97 1767.61 1723.87 1766.49 1722.79L1767.37 1721.88C1768.48 1722.95 1769.65 1724.03 1770.87 1725.1L1770.04 1726.06ZM1896.02 1720.67L1894.93 1720.04C1895.7 1718.69 1896.44 1717.27 1897.11 1715.82L1898.26 1716.35C1897.56 1717.85 1896.81 1719.3 1896.02 1720.67ZM1763.12 1719.33C1762.04 1718.15 1760.97 1716.96 1759.92 1715.72L1760.88 1714.9C1761.92 1716.11 1762.98 1717.3 1764.05 1718.46L1763.12 1719.33ZM1756.87 1711.96C1755.89 1710.71 1754.93 1709.41 1753.98 1708.1L1755.01 1707.35C1755.94 1708.66 1756.89 1709.93 1757.86 1711.19L1756.87 1711.96ZM1900.11 1711.88L1898.92 1711.45C1899.45 1710 1899.96 1708.48 1900.41 1706.93L1901.62 1707.29C1901.16 1708.87 1900.65 1710.42 1900.11 1711.88ZM1751.26 1704.13C1750.38 1702.8 1749.52 1701.45 1748.68 1700.05L1749.76 1699.4C1750.6 1700.77 1751.46 1702.12 1752.32 1703.43L1751.26 1704.13ZM1902.82 1702.59L1901.58 1702.33C1901.92 1700.78 1902.22 1699.22 1902.47 1697.65L1903.72 1697.84C1903.47 1699.43 1903.17 1701.03 1902.82 1702.59ZM1746.22 1695.91C1745.44 1694.52 1744.67 1693.11 1743.91 1691.68L1745.03 1691.08C1745.79 1692.51 1746.55 1693.92 1747.33 1695.29L1746.22 1695.91ZM1904.37 1693.06L1903.11 1692.92C1903.27 1691.43 1903.41 1689.83 1903.51 1688.17L1904.77 1688.24C1904.67 1689.92 1904.53 1691.54 1904.37 1693.06ZM1741.72 1687.37C1741.02 1685.95 1740.33 1684.5 1739.64 1683.03L1740.79 1682.5C1741.46 1683.97 1742.15 1685.4 1742.85 1686.82L1741.72 1687.37ZM1904.96 1683.41L1903.7 1683.39C1903.72 1682.6 1903.72 1681.8 1903.73 1681.02C1903.73 1680.21 1903.72 1679.42 1903.71 1678.62L1904.97 1678.6C1904.99 1679.41 1904.99 1680.22 1904.99 1681.03C1904.98 1681.83 1904.98 1682.62 1904.96 1683.41ZM1737.68 1678.65C1737.05 1677.2 1736.43 1675.7 1735.82 1674.2L1737 1673.72C1737.6 1675.22 1738.22 1676.69 1738.85 1678.14L1737.68 1678.65ZM1903.53 1673.83C1903.45 1672.25 1903.34 1670.67 1903.2 1669.04L1904.46 1668.94C1904.6 1670.56 1904.71 1672.17 1904.79 1673.75L1903.53 1673.83ZM1734.06 1669.71C1733.49 1668.22 1732.93 1666.72 1732.38 1665.2L1733.57 1664.77C1734.12 1666.28 1734.68 1667.79 1735.24 1669.25L1734.06 1669.71ZM1902.72 1664.31C1902.55 1662.73 1902.34 1661.16 1902.12 1659.56L1903.37 1659.39C1903.59 1660.99 1903.8 1662.59 1903.98 1664.16L1902.72 1664.31ZM1730.79 1660.67C1730.29 1659.17 1729.79 1657.63 1729.29 1656.09L1730.49 1655.71C1730.98 1657.25 1731.48 1658.76 1731.99 1660.27L1730.79 1660.67ZM1901.4 1654.82C1901.14 1653.26 1900.87 1651.68 1900.57 1650.1L1901.81 1649.86C1902.12 1651.47 1902.39 1653.05 1902.65 1654.61L1901.4 1654.82ZM1727.87 1651.47C1727.41 1649.96 1726.96 1648.42 1726.52 1646.85L1727.73 1646.51C1728.17 1648.05 1728.62 1649.59 1729.08 1651.1L1727.87 1651.47ZM1899.64 1645.41C1899.32 1643.86 1898.97 1642.3 1898.61 1640.73L1899.85 1640.44C1900.21 1642.03 1900.55 1643.59 1900.88 1645.14L1899.64 1645.41ZM1725.24 1642.21C1724.83 1640.68 1724.42 1639.12 1724.03 1637.56L1725.26 1637.25C1725.66 1638.81 1726.06 1640.35 1726.47 1641.88L1725.24 1642.21ZM1897.49 1636.07C1897.11 1634.53 1896.7 1632.98 1896.29 1631.42L1897.52 1631.11C1897.93 1632.67 1898.33 1634.22 1898.72 1635.76L1897.49 1636.07ZM1722.87 1632.91C1722.49 1631.36 1722.12 1629.8 1721.77 1628.22L1723.01 1627.93C1723.36 1629.51 1723.72 1631.07 1724.1 1632.59L1722.87 1632.91ZM1895.02 1626.8C1894.59 1625.29 1894.14 1623.75 1893.67 1622.21L1894.88 1621.85C1895.34 1623.39 1895.79 1624.93 1896.23 1626.47L1895.02 1626.8ZM1720.74 1623.52C1720.41 1621.96 1720.08 1620.39 1719.77 1618.81L1721.01 1618.57C1721.33 1620.13 1721.65 1621.7 1721.98 1623.26L1720.74 1623.52ZM1892.26 1617.61C1891.78 1616.1 1891.29 1614.57 1890.78 1613.05L1891.98 1612.64C1892.48 1614.18 1892.98 1615.71 1893.46 1617.22L1892.26 1617.61ZM1718.84 1614.09C1718.55 1612.53 1718.24 1610.95 1717.96 1609.35L1719.21 1609.13C1719.5 1610.71 1719.79 1612.28 1720.08 1613.84L1718.84 1614.09ZM1889.25 1608.51C1888.74 1607.01 1888.21 1605.5 1887.66 1603.99L1888.85 1603.56C1889.4 1605.07 1889.93 1606.6 1890.46 1608.1L1889.25 1608.51ZM1717.13 1604.62C1716.86 1603.05 1716.6 1601.46 1716.35 1599.87L1717.6 1599.68C1717.85 1601.27 1718.11 1602.83 1718.38 1604.4L1717.13 1604.62ZM1886.02 1599.47C1885.47 1597.99 1884.91 1596.49 1884.32 1594.99L1885.5 1594.53C1886.08 1596.03 1886.65 1597.54 1887.21 1599.04L1886.02 1599.47ZM1715.61 1595.12C1715.38 1593.54 1715.14 1591.96 1714.91 1590.35L1716.16 1590.18C1716.39 1591.77 1716.62 1593.35 1716.86 1594.93L1715.61 1595.12ZM1882.58 1590.52C1881.99 1589.05 1881.4 1587.56 1880.79 1586.07L1881.96 1585.59C1882.57 1587.08 1883.17 1588.57 1883.76 1590.06L1882.58 1590.52ZM1714.26 1585.61C1714.04 1584.02 1713.84 1582.44 1713.64 1580.82L1714.89 1580.68C1715.09 1582.27 1715.29 1583.85 1715.51 1585.44L1714.26 1585.61ZM1878.96 1581.64C1878.34 1580.19 1877.72 1578.71 1877.08 1577.24L1878.25 1576.74C1878.89 1578.21 1879.51 1579.69 1880.13 1581.16L1878.96 1581.64ZM1713.07 1576.05C1712.87 1574.46 1712.69 1572.88 1712.52 1571.28L1713.78 1571.14C1713.95 1572.74 1714.13 1574.33 1714.32 1575.91L1713.07 1576.05ZM1875.16 1572.81C1874.52 1571.36 1873.86 1569.9 1873.2 1568.43L1874.35 1567.9C1875.01 1569.37 1875.67 1570.85 1876.31 1572.3L1875.16 1572.81ZM1712 1566.49C1711.84 1564.9 1711.68 1563.3 1711.53 1561.7L1712.79 1561.58C1712.94 1563.18 1713.1 1564.78 1713.26 1566.37L1712 1566.49ZM1871.2 1564.06C1870.54 1562.62 1869.86 1561.16 1869.17 1559.72L1870.31 1559.17C1871 1560.64 1871.68 1562.09 1872.35 1563.53L1871.2 1564.06ZM1711.09 1556.94C1710.95 1555.34 1710.81 1553.74 1710.68 1552.14L1711.94 1552.04C1712.07 1553.64 1712.21 1555.24 1712.35 1556.81L1711.09 1556.94ZM1867.11 1555.38C1866.42 1553.95 1865.72 1552.51 1865.01 1551.06L1866.15 1550.51C1866.85 1551.95 1867.56 1553.4 1868.25 1554.83L1867.11 1555.38ZM1710.3 1547.33C1710.18 1545.74 1710.07 1544.14 1709.95 1542.55L1711.21 1542.45C1711.32 1544.05 1711.44 1545.65 1711.56 1547.23L1710.3 1547.33ZM1862.87 1546.79C1862.15 1545.36 1861.43 1543.93 1860.71 1542.5L1861.84 1541.92C1862.57 1543.35 1863.29 1544.78 1864 1546.21L1862.87 1546.79ZM1858.51 1538.23C1857.78 1536.81 1857.04 1535.39 1856.29 1533.99L1857.41 1533.39C1858.16 1534.82 1858.91 1536.24 1859.65 1537.66L1858.51 1538.23ZM1709.63 1537.74C1709.53 1536.15 1709.43 1534.55 1709.34 1532.95L1710.6 1532.88C1710.7 1534.48 1710.79 1536.08 1710.89 1537.67L1709.63 1537.74ZM1854.03 1529.74C1853.31 1528.39 1852.58 1527.05 1851.84 1525.68L1851.74 1525.51L1852.86 1524.91L1852.95 1525.08C1853.69 1526.45 1854.42 1527.8 1855.14 1529.14L1854.03 1529.74ZM1709.08 1528.15C1709 1526.56 1708.92 1524.96 1708.84 1523.35L1710.1 1523.28C1710.18 1524.89 1710.26 1526.49 1710.34 1528.08L1709.08 1528.15ZM1849.43 1521.31L1847.09 1517.11L1848.2 1516.48L1850.54 1520.68L1849.43 1521.31ZM1708.63 1518.56C1708.56 1516.96 1708.5 1515.36 1708.44 1513.75L1709.7 1513.7C1709.76 1515.31 1709.83 1516.91 1709.89 1518.51L1708.63 1518.56ZM1844.73 1512.92C1843.94 1511.54 1843.14 1510.14 1842.34 1508.76L1843.43 1508.13C1844.23 1509.51 1845.03 1510.91 1845.82 1512.29L1844.73 1512.92ZM1708.28 1508.96C1708.23 1507.36 1708.18 1505.76 1708.14 1504.14L1709.4 1504.12C1709.44 1505.72 1709.49 1507.32 1709.54 1508.92L1708.28 1508.96ZM1839.93 1504.61C1839.12 1503.24 1838.32 1501.86 1837.5 1500.49L1838.58 1499.84C1839.4 1501.21 1840.22 1502.59 1841.03 1503.99L1839.93 1504.61ZM1708 1499.35C1707.96 1497.75 1707.93 1496.15 1707.9 1494.54L1709.16 1494.52C1709.19 1496.13 1709.22 1497.73 1709.26 1499.33L1708 1499.35ZM1835.02 1496.37C1834.2 1495 1833.37 1493.63 1832.53 1492.26L1833.61 1491.61C1834.45 1492.98 1835.28 1494.35 1836.1 1495.72L1835.02 1496.37ZM1707.84 1489.73C1707.82 1488.13 1707.8 1486.53 1707.79 1484.91H1709.05C1709.06 1486.51 1709.08 1488.11 1709.1 1489.71L1707.84 1489.73ZM1830.03 1488.17L1827.49 1484.09L1828.56 1483.42L1831.1 1487.5L1830.03 1488.17ZM1707.75 1480.11C1707.74 1478.51 1707.73 1476.91 1707.73 1475.3H1708.99C1708.99 1476.91 1709 1478.51 1709.01 1480.11H1707.75ZM1824.94 1480.01L1822.36 1475.96L1823.43 1475.29L1826.01 1479.34L1824.94 1480.01ZM1819.77 1471.92C1818.91 1470.59 1818.04 1469.24 1817.16 1467.9L1818.22 1467.2C1819.1 1468.53 1819.98 1469.88 1820.85 1471.24L1819.77 1471.92ZM1709 1470.5H1707.74C1707.75 1468.9 1707.75 1467.3 1707.76 1465.69H1709.02C1709.01 1467.31 1709.01 1468.91 1709 1470.5ZM1814.51 1463.89L1811.85 1459.89L1812.91 1459.19L1815.57 1463.19L1814.51 1463.89ZM1709.07 1460.91L1707.81 1460.89C1707.83 1459.29 1707.85 1457.69 1707.87 1456.08L1709.13 1456.1C1709.1 1457.71 1709.09 1459.31 1709.07 1460.91ZM1809.17 1455.91L1806.47 1451.94L1807.52 1451.22L1810.22 1455.19L1809.17 1455.91ZM1709.21 1451.3L1707.95 1451.28L1708.05 1446.48L1709.31 1446.5L1709.21 1451.3ZM1803.74 1447.99L1801 1444.05L1802.03 1443.33L1804.78 1447.27L1803.74 1447.99ZM1709.42 1441.69L1708.16 1441.67C1708.2 1440.07 1708.24 1438.46 1708.29 1436.86L1709.55 1436.91C1709.51 1438.5 1709.47 1440.09 1709.42 1441.69ZM1798.24 1440.11C1797.32 1438.8 1796.39 1437.5 1795.46 1436.2L1796.49 1435.45C1797.42 1436.75 1798.35 1438.07 1799.27 1439.38L1798.24 1440.11ZM1792.67 1432.3L1789.85 1428.4L1790.87 1427.65L1793.69 1431.55L1792.67 1432.3ZM1709.71 1432.09L1708.45 1432.04C1708.5 1430.44 1708.56 1428.84 1708.62 1427.24L1709.88 1427.29C1709.81 1428.89 1709.76 1430.49 1709.71 1432.09ZM1787.02 1424.54L1784.16 1420.67L1785.18 1419.92L1788.04 1423.79L1787.02 1424.54ZM1710.05 1422.51L1708.79 1422.46L1708.99 1417.66L1710.25 1417.71L1710.05 1422.51ZM1781.3 1416.83L1778.41 1412.99L1779.42 1412.22L1782.31 1416.06L1781.3 1416.83ZM1710.46 1412.9L1709.2 1412.85C1709.27 1411.25 1709.35 1409.64 1709.43 1408.04L1710.69 1408.11C1710.61 1409.72 1710.53 1411.3 1710.46 1412.9ZM1775.49 1409.18C1774.52 1407.91 1773.55 1406.63 1772.57 1405.37L1773.57 1404.6C1774.55 1405.86 1775.52 1407.14 1776.5 1408.41L1775.49 1409.18ZM1710.92 1403.32L1709.66 1403.25C1709.74 1401.65 1709.83 1400.05 1709.92 1398.45L1711.18 1398.52C1711.09 1400.12 1711 1401.72 1710.92 1403.32ZM1769.63 1401.58L1766.67 1397.8L1767.67 1397.01L1770.63 1400.81L1769.63 1401.58ZM1763.7 1394.03L1760.7 1390.27L1761.69 1389.48L1764.69 1393.24L1763.7 1394.03ZM1711.46 1393.74L1710.2 1393.67C1710.29 1392.07 1710.39 1390.47 1710.48 1388.87L1711.74 1388.94C1711.64 1390.54 1711.55 1392.14 1711.46 1393.74ZM1757.68 1386.54L1754.66 1382.83L1755.65 1382.04L1758.67 1385.75L1757.68 1386.54ZM1712.03 1384.13L1710.77 1384.06L1711.08 1379.26L1712.34 1379.36L1712.03 1384.13ZM1751.63 1379.13L1748.57 1375.44L1749.54 1374.62L1752.6 1378.31L1751.63 1379.13ZM1712.66 1374.56L1711.4 1374.46L1711.74 1369.67L1713 1369.77L1712.66 1374.56ZM1745.5 1371.76C1744.48 1370.53 1743.44 1369.31 1742.41 1368.09L1743.37 1367.27C1744.4 1368.48 1745.44 1369.71 1746.47 1370.94L1745.5 1371.76ZM1713.35 1364.98L1712.09 1364.88L1712.46 1360.09L1713.72 1360.19L1713.35 1364.98ZM1739.31 1364.46L1736.18 1360.82L1737.14 1360L1740.27 1363.64L1739.31 1364.46ZM1733.03 1357.21L1729.86 1353.6L1730.81 1352.76L1733.98 1356.37L1733.03 1357.21ZM1714.09 1355.41L1712.83 1355.31L1713.22 1350.53L1714.48 1350.63L1714.09 1355.41ZM1726.68 1350.01C1725.62 1348.81 1724.55 1347.62 1723.48 1346.43L1724.42 1345.59C1725.49 1346.78 1726.57 1347.97 1727.63 1349.17L1726.68 1350.01ZM1714.88 1345.84L1713.62 1345.72L1714.03 1340.93L1715.29 1341.05L1714.88 1345.84ZM1720.26 1342.85C1719.18 1341.66 1718.11 1340.48 1717.03 1339.32L1717.96 1338.45C1719.04 1339.62 1720.13 1340.82 1721.21 1342.01L1720.26 1342.85ZM1715.72 1336.26L1714.46 1336.14L1714.56 1335.03L1713.77 1335.76C1712.68 1334.58 1711.59 1333.4 1710.49 1332.24L1711.42 1331.37C1712.47 1332.5 1713.53 1333.63 1714.58 1334.77L1714.89 1331.36L1716.15 1331.48L1715.72 1336.26ZM1707.19 1328.73L1703.88 1325.23L1704.79 1324.36L1708.11 1327.86L1707.19 1328.73ZM1716.6 1326.7L1715.34 1326.58L1715.8 1321.79L1717.06 1321.91L1716.6 1326.7ZM1700.55 1321.75L1697.2 1318.29L1698.11 1317.4L1701.46 1320.86L1700.55 1321.75ZM1717.52 1317.14L1716.26 1317.02L1716.74 1312.23L1718 1312.35L1717.52 1317.14ZM1693.84 1314.85C1692.72 1313.71 1691.59 1312.57 1690.47 1311.44L1691.37 1310.55C1692.49 1311.68 1693.62 1312.82 1694.74 1313.96L1693.84 1314.85ZM1687.09 1308.02L1683.68 1304.63L1684.57 1303.74L1687.98 1307.13L1687.09 1308.02ZM1718.49 1307.6L1717.23 1307.46L1717.74 1302.67L1719 1302.81L1718.49 1307.6ZM1680.26 1301.28L1676.83 1297.93L1677.71 1297.02L1681.15 1300.37L1680.26 1301.28ZM1719.52 1298.04L1718.26 1297.9L1718.78 1293.1L1720.04 1293.24L1719.52 1298.04ZM1673.37 1294.6L1669.9 1291.28L1670.78 1290.37L1674.25 1293.69L1673.37 1294.6ZM1720.57 1288.47L1719.31 1288.33C1719.49 1286.73 1719.67 1285.13 1719.86 1283.53L1721.12 1283.67C1720.94 1285.27 1720.75 1286.87 1720.57 1288.47ZM1666.4 1287.98L1662.89 1284.7L1663.76 1283.79L1667.27 1287.07L1666.4 1287.98ZM1659.36 1281.46C1658.18 1280.38 1657 1279.3 1655.81 1278.23L1656.66 1277.29C1657.84 1278.36 1659.03 1279.44 1660.21 1280.52L1659.36 1281.46ZM1721.67 1278.87L1720.41 1278.73L1720.98 1273.94L1722.24 1274.08L1721.67 1278.87ZM1652.26 1275C1651.07 1273.93 1649.87 1272.86 1648.68 1271.8L1649.52 1270.86C1650.72 1271.92 1651.91 1272.99 1653.1 1274.06L1652.26 1275ZM1722.82 1269.3L1721.56 1269.16C1721.75 1267.57 1721.95 1265.97 1722.15 1264.37L1723.4 1264.51C1723.2 1266.12 1723 1267.72 1722.82 1269.3ZM1645.07 1268.64C1643.86 1267.58 1642.65 1266.52 1641.45 1265.48L1642.28 1264.52C1643.49 1265.57 1644.7 1266.62 1645.9 1267.68L1645.07 1268.64ZM1637.8 1262.34C1636.59 1261.29 1635.37 1260.26 1634.15 1259.23L1634.97 1258.27C1636.19 1259.3 1637.41 1260.34 1638.64 1261.38L1637.8 1262.34ZM1723.99 1259.76L1722.74 1259.59L1723.35 1254.8L1724.6 1254.97L1723.99 1259.76ZM1630.48 1256.15L1626.78 1253.08L1627.59 1252.09L1631.29 1255.16L1630.48 1256.15ZM1725.21 1250.2L1723.96 1250.03L1724.59 1245.24L1725.84 1245.41L1725.21 1250.2ZM1623.08 1250.04L1619.34 1247.01L1620.13 1246.02L1623.87 1249.05L1623.08 1250.04ZM1615.59 1244.02L1611.81 1241.04L1612.59 1240.05L1616.37 1243.03L1615.59 1244.02ZM1726.48 1240.64L1725.23 1240.47C1725.44 1238.87 1725.66 1237.28 1725.87 1235.7L1727.12 1235.87C1726.9 1237.46 1726.69 1239.04 1726.48 1240.64ZM1608.04 1238.12C1606.77 1237.15 1605.5 1236.17 1604.22 1235.2L1604.99 1234.19C1606.27 1235.16 1607.54 1236.14 1608.81 1237.11L1608.04 1238.12ZM1600.39 1232.3C1599.11 1231.34 1597.83 1230.38 1596.54 1229.45L1597.29 1228.42C1598.58 1229.37 1599.87 1230.33 1601.15 1231.29L1600.39 1232.3ZM1727.77 1231.11L1726.52 1230.94C1726.74 1229.34 1726.96 1227.75 1727.18 1226.17L1728.43 1226.34C1728.21 1227.92 1727.99 1229.51 1727.77 1231.11ZM1592.67 1226.59C1591.37 1225.65 1590.08 1224.71 1588.78 1223.79L1589.51 1222.76C1590.81 1223.69 1592.11 1224.62 1593.41 1225.59L1592.67 1226.59ZM1729.1 1221.57L1727.85 1221.4C1728.07 1219.8 1728.3 1218.21 1728.53 1216.61L1729.78 1216.8C1729.56 1218.39 1729.33 1219.97 1729.1 1221.57ZM1584.87 1221.01C1583.57 1220.08 1582.26 1219.17 1580.94 1218.26L1581.66 1217.23C1582.98 1218.14 1584.29 1219.06 1585.6 1219.98L1584.87 1221.01ZM1576.99 1215.53C1575.67 1214.64 1574.34 1213.74 1573.02 1212.85L1573.73 1211.8C1575.05 1212.68 1576.38 1213.59 1577.7 1214.5L1576.99 1215.53ZM1730.47 1212.05L1729.22 1211.87C1729.45 1210.28 1729.68 1208.69 1729.92 1207.1L1731.17 1207.28C1730.93 1208.87 1730.7 1210.46 1730.47 1212.05ZM1569.01 1210.18C1567.67 1209.3 1566.33 1208.42 1564.99 1207.55L1565.68 1206.49C1567.02 1207.36 1568.37 1208.23 1569.71 1209.12L1569.01 1210.18ZM1560.95 1204.96C1559.6 1204.1 1558.24 1203.25 1556.89 1202.4L1557.56 1201.33C1558.92 1202.18 1560.27 1203.03 1561.62 1203.89L1560.95 1204.96ZM1731.87 1202.52L1730.62 1202.34C1730.85 1200.75 1731.09 1199.16 1731.34 1197.57L1732.59 1197.76C1732.34 1199.36 1732.1 1200.94 1731.87 1202.52ZM1552.81 1199.9C1551.44 1199.06 1550.07 1198.23 1548.71 1197.41L1549.36 1196.33C1550.73 1197.15 1552.1 1197.98 1553.47 1198.82L1552.81 1199.9ZM1544.58 1194.96C1543.2 1194.15 1541.81 1193.34 1540.43 1192.55L1541.06 1191.46C1542.45 1192.25 1543.84 1193.06 1545.22 1193.87L1544.58 1194.96ZM1733.31 1193.01L1732.06 1192.82L1732.79 1188.06L1734.04 1188.25L1733.31 1193.01ZM1536.25 1190.19C1534.86 1189.4 1533.45 1188.63 1532.05 1187.86L1532.66 1186.75C1534.06 1187.52 1535.46 1188.3 1536.87 1189.08L1536.25 1190.19ZM1527.84 1185.58C1526.43 1184.82 1525.01 1184.08 1523.6 1183.34L1524.19 1182.22C1525.6 1182.96 1527.02 1183.7 1528.45 1184.46L1527.84 1185.58ZM1734.79 1183.5L1733.54 1183.31C1733.78 1181.73 1734.03 1180.14 1734.29 1178.55L1735.54 1178.75C1735.28 1180.33 1735.03 1181.92 1734.79 1183.5ZM1519.33 1181.15C1517.91 1180.42 1516.47 1179.71 1515.04 1179L1515.61 1177.87C1517.04 1178.58 1518.47 1179.29 1519.91 1180.02L1519.33 1181.15ZM1510.73 1176.9C1509.29 1176.2 1507.84 1175.52 1506.4 1174.84L1506.94 1173.7C1508.38 1174.37 1509.83 1175.06 1511.29 1175.76L1510.73 1176.9ZM1502.04 1172.86C1500.58 1172.2 1499.12 1171.55 1497.66 1170.91L1498.16 1169.76C1499.63 1170.4 1501.09 1171.05 1502.55 1171.71L1502.04 1172.86ZM1493.25 1169.02L1493 1168.91L1493.49 1167.74L1493.74 1167.85L1493.25 1169.02Z" fill="#2F1A31"/>
<path d="M1914.39 540.9C1914.39 540.9 1912.77 540.36 1909.77 539.29L1910.19 538.1C1913.18 539.16 1914.79 539.69 1914.79 539.69L1914.39 540.9ZM1905.21 537.66C1903.84 537.16 1902.32 536.61 1900.68 536L1901.11 534.81C1902.76 535.42 1904.27 535.97 1905.64 536.47L1905.21 537.66ZM1896.16 534.29C1894.73 533.75 1893.23 533.18 1891.66 532.57L1892.12 531.39C1893.69 532 1895.19 532.57 1896.61 533.11L1896.16 534.29ZM1887.17 530.84C1885.72 530.27 1884.23 529.69 1882.69 529.07L1883.16 527.89C1884.7 528.5 1886.2 529.09 1887.63 529.66L1887.17 530.84ZM1878.22 527.27L1873.76 525.46L1874.24 524.28L1878.7 526.1L1878.22 527.27ZM1869.31 523.62C1867.86 523.02 1866.37 522.4 1864.86 521.76L1865.35 520.59C1866.86 521.23 1868.33 521.85 1869.79 522.45L1869.31 523.62ZM1860.44 519.89C1858.99 519.27 1857.51 518.64 1856.02 517.98L1856.52 516.83C1858.02 517.48 1859.49 518.11 1860.93 518.73L1860.44 519.89ZM1851.6 516.06L1847.2 514.12L1847.71 512.97L1852.1 514.91L1851.6 516.06ZM1842.82 512.14C1841.38 511.49 1839.91 510.83 1838.44 510.16L1838.97 509.01C1840.44 509.68 1841.9 510.34 1843.34 510.99L1842.82 512.14ZM1834.06 508.15C1832.62 507.48 1831.16 506.8 1829.7 506.11L1830.24 504.97C1831.7 505.66 1833.15 506.33 1834.59 507L1834.06 508.15ZM1825.35 504.06C1823.91 503.38 1822.46 502.69 1821 501.99L1821.55 500.85C1823 501.55 1824.45 502.24 1825.88 502.92L1825.35 504.06ZM1816.68 499.9C1815.25 499.2 1813.81 498.49 1812.36 497.78L1812.92 496.65C1814.36 497.37 1815.8 498.06 1817.23 498.76L1816.68 499.9ZM1808.05 495.64C1806.63 494.93 1805.19 494.21 1803.75 493.48L1804.33 492.35C1805.76 493.08 1807.19 493.8 1808.62 494.51L1808.05 495.64ZM1799.47 491.29C1798.05 490.56 1796.63 489.82 1795.19 489.08L1795.78 487.96C1797.2 488.71 1798.63 489.43 1800.05 490.16L1799.47 491.29ZM1790.93 486.85C1789.52 486.1 1788.1 485.35 1786.68 484.6L1787.28 483.48C1788.69 484.24 1790.11 484.99 1791.52 485.73L1790.93 486.85ZM1782.44 482.32L1778.22 480.02L1778.82 478.91L1783.04 481.2L1782.44 482.32ZM1774.02 477.69C1772.63 476.91 1771.22 476.13 1769.82 475.35L1770.44 474.24C1771.83 475.03 1773.23 475.81 1774.62 476.58L1774.02 477.69ZM1765.64 472.96C1764.25 472.17 1762.86 471.37 1761.47 470.56L1762.11 469.47C1763.5 470.28 1764.88 471.08 1766.27 471.87L1765.64 472.96ZM1757.32 468.14L1753.18 465.69L1753.83 464.6L1757.95 467.05L1757.32 468.14ZM1483.7 467.56C1482.13 467.55 1480.55 467.54 1478.96 467.53L1478.9 466.27C1480.56 466.28 1482.13 466.29 1483.7 466.3V467.56ZM1488.5 467.54V466.28C1490.11 466.27 1491.7 466.26 1493.29 466.23L1493.31 467.49C1491.72 467.52 1490.12 467.54 1488.5 467.54ZM1474.08 467.46C1472.49 467.43 1470.88 467.39 1469.28 467.35L1469.32 466.09C1470.92 466.13 1472.52 466.17 1474.11 466.2L1474.08 467.46ZM1498.11 467.4L1498.09 466.14C1499.69 466.1 1501.29 466.06 1502.88 466L1502.93 467.26C1501.33 467.32 1499.73 467.36 1498.11 467.4ZM1464.47 467.2C1462.88 467.15 1461.28 467.09 1459.67 467.01L1459.73 465.75C1461.33 465.82 1462.93 465.88 1464.52 465.94L1464.47 467.2ZM1507.74 467.07L1507.68 465.81C1509.28 465.74 1510.88 465.66 1512.47 465.58L1512.54 466.84C1510.94 466.92 1509.34 467 1507.74 467.07ZM1454.86 466.79C1453.26 466.71 1451.66 466.63 1450.06 466.53L1450.13 465.27C1451.74 465.37 1453.33 465.45 1454.92 465.53L1454.86 466.79ZM1517.34 466.56L1517.26 465.3C1518.86 465.2 1520.46 465.08 1522.05 464.96L1522.15 466.22C1520.55 466.34 1518.95 466.46 1517.34 466.56ZM1445.26 466.25C1443.67 466.15 1442.07 466.04 1440.47 465.93L1440.55 464.67C1442.15 464.78 1443.75 464.89 1445.34 464.99L1445.26 466.25ZM1526.92 465.83L1526.81 464.57C1528.41 464.43 1530 464.28 1531.59 464.13L1531.71 465.39C1530.13 465.54 1528.53 465.69 1526.92 465.83ZM1435.67 465.57L1430.87 465.18L1430.98 463.92L1435.77 464.31L1435.67 465.57ZM1536.51 464.89L1536.37 463.63C1537.97 463.45 1539.56 463.26 1541.14 463.08L1541.3 464.33C1539.7 464.53 1538.11 464.71 1536.51 464.89ZM1426.09 464.76C1424.5 464.62 1422.91 464.47 1421.3 464.31L1421.42 463.05C1423.02 463.21 1424.62 463.36 1426.21 463.5L1426.09 464.76ZM1416.52 463.82C1414.93 463.66 1413.34 463.49 1411.73 463.31L1411.87 462.05C1413.46 462.23 1415.06 462.4 1416.64 462.56L1416.52 463.82ZM1546.06 463.7L1545.89 462.45C1547.48 462.24 1549.06 462.01 1550.64 461.78L1550.82 463.03C1549.24 463.26 1547.65 463.49 1546.06 463.7ZM1749.04 463.21L1744.94 460.71L1745.6 459.63L1749.7 462.13L1749.04 463.21ZM1406.97 462.78C1405.38 462.59 1403.79 462.4 1402.2 462.2L1402.36 460.95C1403.95 461.15 1405.54 461.33 1407.12 461.52L1406.97 462.78ZM1555.57 462.29L1555.37 461.04C1556.96 460.78 1558.53 460.51 1560.1 460.23L1560.32 461.48C1558.74 461.76 1557.16 462.03 1555.57 462.29ZM1397.42 461.61L1397.11 461.57C1395.63 461.38 1394.14 461.19 1392.65 460.98L1392.82 459.73C1394.31 459.93 1395.8 460.12 1397.27 460.31L1397.58 460.35L1397.42 461.61ZM1565.05 460.61L1564.81 459.37C1566.38 459.06 1567.95 458.74 1569.51 458.42L1569.76 459.66C1568.2 459.98 1566.64 460.3 1565.05 460.61ZM1387.89 460.34C1386.3 460.12 1384.72 459.9 1383.13 459.67L1383.31 458.42C1384.9 458.65 1386.48 458.87 1388.06 459.09L1387.89 460.34ZM1378.38 458.97C1376.79 458.74 1375.21 458.5 1373.62 458.25L1373.81 457C1375.4 457.25 1376.98 457.49 1378.55 457.72L1378.38 458.97ZM1574.47 458.64L1574.19 457.4C1575.75 457.05 1577.31 456.68 1578.85 456.31L1579.15 457.54C1577.6 457.91 1576.04 458.28 1574.47 458.64ZM1740.86 458.17C1739.5 457.32 1738.14 456.47 1736.79 455.62L1737.46 454.55C1738.81 455.4 1740.17 456.26 1741.53 457.1L1740.86 458.17ZM1368.88 457.49L1364.14 456.72L1364.34 455.47L1369.08 456.24L1368.88 457.49ZM1583.82 456.35L1583.51 455.12C1585.06 454.72 1586.6 454.3 1588.13 453.87L1588.48 455.08C1586.93 455.53 1585.38 455.95 1583.82 456.35ZM1359.39 455.93L1354.66 455.11L1354.88 453.86L1359.61 454.68L1359.39 455.93ZM1349.93 454.27L1345.21 453.41L1345.44 452.16L1350.16 453.02L1349.93 454.27ZM1593.1 453.75L1592.73 452.54C1594.27 452.07 1595.79 451.6 1597.3 451.12L1597.68 452.32C1596.17 452.8 1594.64 453.29 1593.1 453.75ZM1732.73 453.02C1731.38 452.15 1730.03 451.28 1728.7 450.4L1729.4 449.34C1730.73 450.22 1732.08 451.09 1733.42 451.95L1732.73 453.02ZM1340.48 452.52L1335.76 451.61L1336 450.37L1340.72 451.28L1340.48 452.52ZM1602.25 450.79L1601.84 449.59C1603.35 449.07 1604.86 448.53 1606.34 447.98L1606.78 449.17C1605.29 449.72 1603.78 450.26 1602.25 450.79ZM1331.03 450.68L1326.32 449.73L1326.57 448.49L1331.28 449.44L1331.03 450.68ZM1321.62 448.77L1316.91 447.78L1317.17 446.54L1321.86 447.53L1321.62 448.77ZM1724.69 447.77C1723.36 446.89 1722.03 445.99 1720.7 445.1L1721.41 444.05C1722.73 444.94 1724.05 445.82 1725.38 446.71L1724.69 447.77ZM1611.29 447.44L1610.82 446.26C1612.32 445.67 1613.79 445.07 1615.25 444.45L1615.74 445.62C1614.27 446.24 1612.78 446.85 1611.29 447.44ZM1312.23 446.77L1310.73 446.45L1310.99 445.21L1312.49 445.53L1312.23 446.77ZM1620.15 443.69L1619.63 442.54C1621.1 441.88 1622.54 441.21 1623.96 440.51L1624.51 441.65C1623.09 442.35 1621.63 443.03 1620.15 443.69ZM1716.75 442.4C1715.43 441.5 1714.11 440.58 1712.79 439.66L1713.51 438.63C1714.83 439.55 1716.14 440.45 1717.45 441.35L1716.75 442.4ZM1628.83 439.51L1628.25 438.38C1629.67 437.65 1631.08 436.9 1632.47 436.13L1633.08 437.24C1631.68 438.02 1630.27 438.77 1628.83 439.51ZM1708.86 436.9C1707.56 435.97 1706.25 435.04 1704.95 434.09L1705.7 433.07C1707 434.01 1708.3 434.94 1709.6 435.87L1708.86 436.9ZM1637.27 434.85L1636.63 433.76C1638.01 432.95 1639.37 432.12 1640.71 431.28L1641.38 432.35C1640.03 433.2 1638.66 434.04 1637.27 434.85ZM1701.05 431.26C1699.75 430.31 1698.47 429.35 1697.18 428.38L1697.94 427.37C1699.23 428.34 1700.51 429.29 1701.8 430.24L1701.05 431.26ZM1645.43 429.72L1644.72 428.67C1646.05 427.77 1647.35 426.86 1648.64 425.93L1649.39 426.95C1648.08 427.89 1646.77 428.81 1645.43 429.72ZM1693.33 425.48C1692.05 424.5 1690.78 423.52 1689.5 422.53L1690.28 421.53C1691.54 422.52 1692.82 423.5 1694.1 424.47L1693.33 425.48ZM1653.23 424.06L1652.46 423.06C1653.73 422.08 1654.97 421.08 1656.19 420.07L1657 421.04C1655.76 422.07 1654.51 423.08 1653.23 424.06ZM1685.72 419.55C1684.46 418.55 1683.21 417.55 1681.97 416.54L1682.76 415.55C1684 416.55 1685.25 417.56 1686.5 418.56L1685.72 419.55ZM1660.65 417.88L1659.81 416.94C1660.99 415.88 1662.16 414.79 1663.3 413.69L1664.18 414.6C1663.02 415.71 1661.84 416.8 1660.65 417.88ZM1678.24 413.5C1677 412.48 1675.76 411.45 1674.54 410.42L1675.36 409.46C1676.58 410.48 1677.81 411.51 1679.05 412.53L1678.24 413.5ZM1667.58 411.19L1666.67 410.31C1667.78 409.16 1668.86 407.99 1669.91 406.8L1670.86 407.64C1669.8 408.85 1668.7 410.03 1667.58 411.19ZM1670.89 407.3C1669.68 406.25 1668.47 405.2 1667.26 404.14L1668.1 403.19C1669.3 404.25 1670.5 405.29 1671.72 406.34L1670.89 407.3ZM1673.99 403.98L1673 403.17C1674.02 401.93 1675 400.69 1675.95 399.42L1676.96 400.18C1676 401.46 1675.01 402.73 1673.99 403.98ZM1663.66 400.93C1662.47 399.85 1661.29 398.77 1660.11 397.68L1660.98 396.75C1662.15 397.84 1663.33 398.91 1664.52 399.98L1663.66 400.93ZM1679.78 396.29L1678.75 395.57C1679.64 394.29 1680.52 392.96 1681.38 391.6L1682.45 392.27C1681.58 393.64 1680.68 394.99 1679.78 396.29ZM1656.6 394.41C1655.43 393.3 1654.27 392.2 1653.12 391.07L1654 390.17C1655.15 391.28 1656.31 392.39 1657.47 393.48L1656.6 394.41ZM1684.94 388.14L1683.85 387.5C1684.64 386.13 1685.41 384.73 1686.16 383.31L1687.28 383.9C1686.53 385.33 1685.74 386.75 1684.94 388.14ZM1649.68 387.71C1648.54 386.57 1647.41 385.44 1646.29 384.3L1647.19 383.41C1648.31 384.55 1649.44 385.69 1650.57 386.81L1649.68 387.71ZM1642.94 380.84C1641.83 379.67 1640.73 378.51 1639.64 377.34L1640.57 376.47C1641.66 377.64 1642.75 378.81 1643.86 379.96L1642.94 380.84ZM1689.42 379.58L1688.28 379.04C1688.95 377.63 1689.61 376.17 1690.23 374.69L1691.4 375.18C1690.77 376.68 1690.1 378.16 1689.42 379.58ZM1636.4 373.78C1635.32 372.58 1634.25 371.39 1633.2 370.17L1634.15 369.34C1635.2 370.54 1636.27 371.74 1637.34 372.92L1636.4 373.78ZM1693.19 370.7L1692.01 370.26C1692.57 368.78 1693.1 367.28 1693.61 365.76L1694.81 366.16C1694.29 367.7 1693.76 369.21 1693.19 370.7ZM1630.07 366.53C1629.03 365.3 1628 364.07 1626.99 362.83L1627.96 362.02C1628.97 363.25 1630 364.48 1631.03 365.7L1630.07 366.53ZM1696.26 361.57L1695.05 361.22C1695.49 359.7 1695.91 358.16 1696.31 356.6L1697.54 356.91C1697.13 358.49 1696.7 360.04 1696.26 361.57ZM1623.97 359.08C1622.97 357.82 1621.98 356.56 1621.01 355.28L1622.02 354.51C1622.98 355.78 1623.97 357.04 1624.96 358.3L1623.97 359.08ZM1698.62 352.22L1697.38 351.96C1697.72 350.42 1698.03 348.85 1698.31 347.28L1699.56 347.5C1699.27 349.08 1698.96 350.66 1698.62 352.22ZM1618.12 351.44C1617.17 350.15 1616.23 348.84 1615.3 347.54L1616.33 346.81C1617.25 348.11 1618.19 349.41 1619.14 350.7L1618.12 351.44ZM1612.55 343.58C1611.65 342.25 1610.75 340.91 1609.88 339.58L1610.94 338.88C1611.81 340.21 1612.7 341.54 1613.6 342.87L1612.55 343.58ZM1700.32 342.72L1699.07 342.54C1699.3 340.98 1699.5 339.4 1699.68 337.8L1700.94 337.94C1700.75 339.56 1700.55 341.15 1700.32 342.72ZM1607.3 335.52C1606.45 334.16 1605.61 332.78 1604.79 331.4L1605.88 330.76C1606.69 332.13 1607.52 333.49 1608.36 334.84L1607.3 335.52ZM1701.41 333.15L1700.15 333.05C1700.27 331.47 1700.38 329.88 1700.46 328.28L1701.72 328.34C1701.64 329.96 1701.53 331.56 1701.41 333.15ZM1602.37 327.24C1601.58 325.84 1600.81 324.44 1600.04 323.03L1601.16 322.43C1601.92 323.83 1602.69 325.23 1603.47 326.62L1602.37 327.24ZM1701.9 323.52L1700.64 323.5C1700.67 322.18 1700.68 320.86 1700.68 319.53V318.71H1701.94V319.53C1701.95 320.87 1701.93 322.21 1701.9 323.52ZM1597.82 318.76C1597.09 317.32 1596.38 315.88 1595.69 314.44L1596.83 313.9C1597.52 315.33 1598.22 316.76 1598.95 318.19L1597.82 318.76ZM1700.59 313.94C1700.54 312.35 1700.47 310.76 1700.38 309.15L1701.64 309.08C1701.73 310.7 1701.8 312.3 1701.85 313.9L1700.59 313.94ZM1593.67 310.06C1593.01 308.59 1592.37 307.11 1591.75 305.63L1592.92 305.14C1593.54 306.62 1594.17 308.09 1594.83 309.55L1593.67 310.06ZM1700.06 304.37C1699.93 302.79 1699.79 301.2 1699.62 299.6L1700.88 299.47C1701.05 301.08 1701.19 302.68 1701.32 304.27L1700.06 304.37ZM1589.96 301.14C1589.38 299.64 1588.82 298.14 1588.28 296.63L1589.47 296.21C1590.01 297.71 1590.56 299.2 1591.14 300.69L1589.96 301.14ZM1699.08 294.83C1698.88 293.27 1698.67 291.69 1698.43 290.09L1699.68 289.91C1699.91 291.51 1700.13 293.1 1700.33 294.68L1699.08 294.83ZM1586.73 292.09C1586.24 290.57 1585.76 289.04 1585.31 287.5L1586.52 287.14C1586.97 288.67 1587.44 290.18 1587.93 291.69L1586.73 292.09ZM1697.7 285.35C1697.44 283.76 1697.17 282.18 1696.89 280.62L1698.14 280.4C1698.42 281.96 1698.69 283.55 1698.95 285.14L1697.7 285.35ZM1584 282.86C1583.59 281.31 1583.21 279.75 1582.84 278.2L1584.07 277.91C1584.44 279.45 1584.82 281 1585.23 282.54L1584 282.86ZM1696.03 275.91C1695.72 274.32 1695.41 272.76 1695.09 271.21L1696.33 270.96C1696.65 272.51 1696.96 274.09 1697.27 275.67L1696.03 275.91ZM1581.81 273.5C1581.49 271.93 1581.19 270.36 1580.91 268.77L1582.16 268.55C1582.44 270.12 1582.73 271.69 1583.04 273.24L1581.81 273.5ZM1694.08 266.52C1693.73 264.94 1693.37 263.39 1693 261.85L1694.23 261.56C1694.6 263.1 1694.96 264.66 1695.32 266.24L1694.08 266.52ZM1580.18 263.99L1580.81 263.92L1580.17 263.91C1579.94 262.29 1579.74 260.75 1579.56 259.22L1580.82 259.08C1580.99 260.6 1581.19 262.13 1581.41 263.67L1581.44 263.84L1580.18 263.99ZM1691.85 257.21C1691.44 255.64 1691.03 254.1 1690.61 252.58L1691.82 252.24C1692.25 253.76 1692.66 255.31 1693.07 256.88L1691.85 257.21ZM1579.07 254.43C1578.93 252.81 1578.81 251.21 1578.7 249.63L1579.96 249.55C1580.06 251.12 1580.18 252.72 1580.33 254.33L1579.07 254.43ZM1689.29 247.97C1688.83 246.42 1688.36 244.89 1687.88 243.4L1689.08 243.02C1689.56 244.53 1690.04 246.06 1690.5 247.62L1689.29 247.97ZM1578.47 244.81C1578.42 243.17 1578.39 241.57 1578.39 239.98H1579.65C1579.65 241.55 1579.68 243.15 1579.73 244.76L1578.47 244.81ZM1686.37 238.84C1685.85 237.31 1685.32 235.81 1684.77 234.34L1685.96 233.9C1686.51 235.38 1687.04 236.9 1687.57 238.44L1686.37 238.84ZM1579.72 235.2L1578.46 235.16C1578.51 233.52 1578.59 231.91 1578.69 230.34L1579.95 230.42C1579.84 231.99 1579.76 233.58 1579.72 235.2ZM1683.06 229.86C1682.46 228.35 1681.86 226.88 1681.25 225.44L1682.42 224.95C1683.03 226.4 1683.65 227.89 1684.24 229.41L1683.06 229.86ZM1580.35 225.67L1579.09 225.54C1579.26 223.91 1579.46 222.31 1579.69 220.75L1580.94 220.93C1580.71 222.47 1580.52 224.05 1580.35 225.67ZM1679.32 221.06C1678.65 219.59 1677.97 218.14 1677.28 216.74L1678.41 216.17C1679.11 217.59 1679.8 219.04 1680.48 220.53L1679.32 221.06ZM1581.72 216.22L1580.48 215.98C1580.78 214.39 1581.12 212.79 1581.5 211.26L1582.73 211.56C1582.36 213.07 1582.02 214.64 1581.72 216.22ZM1675.1 212.47C1674.34 211.04 1673.57 209.64 1672.79 208.29L1673.88 207.66C1674.67 209.03 1675.44 210.44 1676.21 211.88L1675.1 212.47ZM1583.95 206.95L1582.74 206.59C1583.2 205.02 1583.71 203.47 1584.25 201.99L1585.44 202.42C1584.91 203.87 1584.41 205.4 1583.95 206.95ZM1670.34 204.19C1669.47 202.81 1668.61 201.47 1667.73 200.18L1668.78 199.47C1669.67 200.77 1670.55 202.12 1671.41 203.52L1670.34 204.19ZM1587.19 198L1586.02 197.5C1586.68 195.98 1587.38 194.51 1588.11 193.12L1589.23 193.71C1588.52 195.06 1587.84 196.5 1587.19 198ZM1664.97 196.29C1663.98 194.97 1662.99 193.71 1662.03 192.53L1663 191.72C1663.98 192.91 1664.98 194.19 1665.98 195.53L1664.97 196.29ZM1591.58 189.58L1590.51 188.91C1591.36 187.54 1592.29 186.19 1593.26 184.91L1594.27 185.67C1593.33 186.92 1592.42 188.24 1591.58 189.58ZM1658.91 188.93C1657.83 187.76 1656.72 186.6 1655.6 185.5L1656.49 184.6C1657.63 185.71 1658.76 186.88 1659.85 188.07L1658.91 188.93ZM1652.09 182.3C1650.83 181.22 1649.57 180.23 1648.37 179.34L1649.12 178.32C1650.35 179.23 1651.63 180.24 1652.91 181.34L1652.09 182.3ZM1597.3 182.03L1596.37 181.18C1597.47 179.98 1598.64 178.84 1599.86 177.79L1600.69 178.74C1599.51 179.76 1598.37 180.87 1597.3 182.03ZM1644.44 176.68C1643.09 175.84 1641.7 175.07 1640.29 174.38L1640.86 173.25C1642.3 173.96 1643.73 174.75 1645.11 175.61L1644.44 176.68ZM1604.44 175.86L1603.73 174.81C1605.09 173.9 1606.51 173.07 1607.94 172.35L1608.51 173.48C1607.12 174.17 1605.75 174.97 1604.44 175.86ZM1635.96 172.5C1634.45 171.95 1632.94 171.48 1631.45 171.11L1631.75 169.88C1633.29 170.25 1634.85 170.73 1636.4 171.3L1635.96 172.5ZM1612.86 171.7L1612.46 170.5C1614.02 169.99 1615.61 169.59 1617.2 169.31L1617.42 170.56C1615.89 170.82 1614.36 171.21 1612.86 171.7ZM1626.81 170.29C1625.22 170.11 1623.62 170.04 1622.1 170.09L1622.08 168.83C1623.68 168.81 1625.31 168.85 1626.96 169.03L1626.81 170.29Z" fill="#2F1A31"/>
<path d="M1991.84 525.96C1997.44 509.1 2000.42 491.9 2000.86 474.15C2000.96 470.08 1994.64 470.08 1994.53 474.15C1994.1 491.35 1991.15 507.97 1985.73 524.28C1984.45 528.15 1990.56 529.81 1991.84 525.96Z" fill="white"/>
<path d="M2042.9 562.2C2063.18 541.09 2084.3 520.86 2106.27 501.52C2109.33 498.82 2104.84 494.36 2101.8 497.05C2079.83 516.39 2058.71 536.62 2038.43 557.73C2035.61 560.66 2040.07 565.14 2042.9 562.2Z" fill="white"/>
<path d="M2067.46 627.87C2080.83 624.04 2094.2 620.21 2107.56 616.38C2111.47 615.26 2109.81 609.15 2105.88 610.28C2092.51 614.11 2079.14 617.94 2065.78 621.77C2061.87 622.89 2063.53 629 2067.46 627.87Z" fill="white"/>
</svg>
