<svg width="300" height="446" viewBox="0 0 300 446" fill="none" xmlns="http://www.w3.org/2000/svg">
<g opacity="0.06">
<path d="M299.608 375.822C298.038 375.038 295.192 378.569 294.014 379.846C293.622 380.238 293.23 380.532 292.935 381.023C292.641 381.415 292.248 381.808 291.954 382.102C291.464 382.593 291.169 382.887 290.777 383.181C290.384 383.378 290.09 383.574 289.796 383.574C288.913 383.771 287.735 383.084 286.067 381.71C284.497 380.336 283.711 379.159 283.515 378.472C283.418 377.392 284.301 374.939 286.361 371.112C288.422 367.383 289.305 364.341 289.01 361.986C288.913 361.103 288.618 360.416 288.323 360.024C287.931 359.632 287.44 359.436 286.753 359.533C286.459 359.533 286.067 360.024 285.576 360.907C285.184 361.79 284.497 362.967 283.908 364.734C282.731 367.874 281.749 370.327 280.964 371.995C280.277 373.565 279.787 374.448 279.492 374.644C277.726 375.331 276.548 376.117 275.96 377C275.469 377.883 275.174 379.256 275.174 381.219V382.495C274.782 383.868 274.39 385.144 273.899 386.322C273.507 387.499 273.016 388.48 272.525 389.462C272.427 389.854 272.329 390.05 272.133 390.246C271.937 390.443 271.642 390.639 271.348 390.639C271.151 390.639 271.151 390.639 271.053 390.639C270.955 390.541 270.955 390.443 270.857 390.246C270.857 389.953 270.857 389.363 270.955 388.383C271.053 387.499 271.249 386.125 271.446 384.555C271.74 382.789 272.034 381.121 272.231 379.355C272.427 377.589 272.721 375.92 273.016 374.154C273.311 371.995 273.604 370.032 274.095 368.365C274.488 366.598 274.88 365.224 275.273 364.048C277.236 358.65 278.609 354.234 279.394 350.505C280.179 346.777 280.473 344.03 280.179 342.067C279.885 340.301 279.492 339.025 278.707 338.142C278.02 337.259 277.039 336.964 275.861 337.161C275.665 337.161 275.371 337.259 275.273 337.455C275.077 337.651 274.88 337.848 274.782 338.142C274.291 339.319 273.899 340.497 273.507 341.772C273.114 343.048 272.82 344.422 272.624 345.796C272.624 346.286 272.427 346.679 272.329 347.071C272.133 347.464 272.034 347.758 271.936 347.955C271.74 348.445 271.446 349.525 271.053 350.996C270.661 352.468 270.17 354.333 269.679 356.688C269.091 359.141 268.699 361.201 268.404 362.673C268.012 364.244 267.816 365.323 267.717 366.01C267.226 366.795 266.736 367.874 266.147 369.248C265.656 370.622 265.068 372.29 264.479 374.252C263.988 375.626 263.596 376.902 263.105 378.079C262.516 379.159 261.927 380.139 261.142 380.925C260.75 381.415 260.455 381.906 260.161 382.2C259.867 382.593 259.671 382.887 259.572 383.28C259.475 383.672 259.376 383.967 259.278 384.163C259.18 384.261 258.101 385.537 257.708 385.929C257.315 386.42 256.923 386.91 256.531 387.303C255.942 387.892 255.451 388.284 254.961 388.579C254.47 388.873 253.881 388.971 253.39 389.07C252.998 389.07 252.606 389.07 252.214 388.971C251.919 388.873 251.624 388.775 251.527 388.383C251.33 388.186 251.036 387.597 250.545 386.42C250.055 385.242 249.76 384.458 249.368 383.868C249.172 382.887 248.877 382.004 248.582 381.121C248.289 380.139 247.994 379.355 247.602 378.373C247.208 377.392 246.62 376.705 245.835 376.313C245.05 375.92 244.166 375.724 243.087 375.92C242.695 376.018 242.303 376.117 242.008 376.411C241.616 376.705 241.321 377 241.125 377.589C240.536 378.864 239.261 380.434 237.495 382.397C235.728 384.458 234.55 386.027 233.863 387.303L233.766 387.793C233.766 387.793 233.176 388.676 232.784 388.873C232.49 389.07 232.196 389.167 231.803 389.266C231.312 389.363 230.822 389.167 230.331 388.775C229.841 388.383 229.448 387.793 228.958 386.91C228.271 385.341 227.485 383.771 226.602 382.102C225.915 381.219 225.229 380.63 224.542 380.238C223.756 379.846 222.873 379.747 221.99 379.943C221.5 379.943 221.009 380.139 220.42 380.532C219.831 380.925 219.145 381.317 218.36 381.808C217.771 382.397 217.182 382.887 216.691 383.378C216.201 383.868 215.808 384.359 215.416 384.751C215.22 385.144 215.023 385.438 214.925 385.635C214.827 385.929 214.631 386.224 214.532 386.322C214.042 386.812 213.649 387.303 213.257 387.892C212.865 388.383 212.669 388.971 212.473 389.462C211.883 390.149 211.393 390.737 210.902 391.326C210.51 391.915 210.215 392.405 210.019 392.896C209.921 393.092 209.724 393.288 209.627 393.485C209.528 393.681 209.43 393.779 209.234 393.878C209.037 393.681 208.841 393.485 208.841 393.288C208.841 393.092 208.841 392.896 208.841 392.602C208.841 392.307 208.94 391.915 209.038 391.522C209.234 391.032 209.332 390.443 209.528 389.756C210.215 386.42 210.608 383.868 210.804 381.808C211.099 379.846 211.099 378.472 211 377.785C210.804 376.509 210.412 375.626 209.823 374.939C209.234 374.351 208.351 374.154 207.37 374.351C206.291 374.448 205.309 374.84 204.426 375.43C203.542 376.018 202.758 376.902 202.071 377.981C201.286 379.256 200.501 380.238 199.912 381.219C199.324 382.004 198.833 382.789 198.441 383.378C197.557 384.751 196.772 385.929 196.085 386.91C195.398 387.892 194.908 388.775 194.417 389.363C193.926 390.05 193.435 390.639 193.043 391.13C192.651 391.62 192.259 392.013 192.062 392.307C191.865 392.7 191.669 393.092 191.473 393.288C191.277 393.583 191.179 393.779 191.081 394.074V394.171C190.688 394.466 190.394 394.858 190.1 395.251C189.805 395.644 189.413 396.036 189.118 396.331C188.627 396.821 188.235 397.214 187.94 397.41C187.647 397.606 187.253 397.802 186.96 397.802C186.076 397.999 184.899 397.312 183.329 395.938C181.758 394.565 180.876 393.485 180.778 392.7C180.581 391.62 181.562 389.167 183.623 385.341C185.684 381.513 186.567 378.472 186.273 376.214C186.174 375.331 185.88 374.644 185.585 374.252C185.193 373.86 184.702 373.664 184.015 373.761C183.722 373.86 183.329 374.252 182.839 375.135C182.348 376.018 181.759 377.294 181.072 378.963C179.894 382.2 178.913 384.555 178.227 386.224C177.441 387.892 176.95 388.775 176.754 388.873C174.988 389.559 173.811 390.345 173.221 391.228C172.633 392.111 172.437 393.485 172.437 395.448V396.723C172.045 398.097 171.652 399.373 171.161 400.55C170.769 401.727 170.278 402.709 169.787 403.69C169.689 403.985 169.591 404.377 169.395 404.573C169.199 404.769 169.003 404.868 168.708 404.965C168.609 404.965 168.413 404.965 168.413 404.868C168.316 404.769 168.217 404.672 168.217 404.474C168.217 404.181 168.217 403.591 168.316 402.611C168.413 401.727 168.609 400.452 168.904 398.882C169.199 397.214 169.395 395.448 169.689 393.681C169.886 392.013 170.18 390.246 170.474 388.579C170.867 386.42 171.161 384.458 171.554 382.691C171.946 381.023 172.338 379.551 172.732 378.373C174.694 373.074 175.969 368.561 176.853 364.931C177.54 361.202 177.833 358.355 177.54 356.393C177.343 354.627 176.853 353.351 176.166 352.566C175.479 351.683 174.498 351.389 173.32 351.585C173.124 351.585 172.928 351.683 172.633 351.978C172.437 352.174 172.338 352.37 172.142 352.664C171.75 353.743 171.357 355.02 170.867 356.197C170.474 357.473 170.18 358.846 169.984 360.319C169.984 360.809 169.787 361.202 169.689 361.594C169.493 361.888 169.395 362.183 169.297 362.379C169.1 362.967 168.806 363.949 168.413 365.519C168.021 366.991 167.53 368.953 167.04 371.308C166.451 373.761 165.96 375.724 165.666 377.294C165.372 378.864 165.175 380.042 165.077 380.63C164.587 381.415 164.096 382.495 163.508 383.868C163.017 385.242 162.428 386.91 161.839 388.873C161.348 390.246 160.858 391.522 160.367 392.7C159.876 393.779 159.19 394.761 158.503 395.545C158.11 396.036 157.816 396.428 157.522 396.821C157.227 397.214 157.031 397.606 156.933 397.9C156.835 398.293 156.736 398.587 156.639 398.783C156.54 398.979 156.443 399.078 156.344 399.177C156.148 399.47 155.853 399.765 155.461 399.961C155.167 400.157 154.97 400.353 154.774 400.452C154.087 401.04 153.302 401.433 152.419 401.924C151.536 402.316 150.457 402.709 149.377 402.905C148.69 402.807 148.003 402.807 147.512 402.709C146.924 402.611 146.532 402.414 146.237 402.316C145.845 402.12 145.452 401.826 145.158 401.433C144.863 400.943 144.667 400.452 144.569 399.863C144.471 399.47 144.569 399.177 144.667 398.783C144.765 398.49 144.962 398.195 145.06 397.9C147.219 395.153 148.886 392.798 150.064 390.737C151.241 388.676 151.928 386.91 152.124 385.438L152.321 383.967C152.419 383.181 152.518 382.691 152.518 382.397C152.518 382.004 152.615 381.906 152.714 382.2C152.517 381.513 152.321 380.826 152.124 380.336C151.928 379.65 151.536 379.06 151.34 378.668C151.045 378.177 150.751 377.883 150.555 377.686C150.26 377.392 149.769 377.196 149.279 377.098C148.789 377 148.199 377 147.512 377.098C147.023 377.196 146.532 377.294 146.139 377.49C145.648 377.686 145.256 377.883 144.961 377.981C144.569 378.373 144.274 378.668 143.882 378.864C143.587 379.159 143.195 379.452 142.999 379.747C142.411 380.63 141.821 381.612 141.233 382.495C140.644 383.378 140.055 384.261 139.565 385.046C138.976 386.321 138.583 387.499 138.191 388.579C137.896 389.559 137.602 390.443 137.504 391.13C137.308 391.817 137.209 392.504 137.112 392.994C137.013 393.583 136.916 394.074 136.916 394.565C136.916 395.153 136.916 395.741 136.916 396.331V398.195C136.13 398.98 135.541 399.765 135.051 400.452C134.56 401.139 134.167 401.924 133.874 402.512C132.107 404.474 130.831 405.849 129.85 406.928C128.869 407.91 128.28 408.498 128.084 408.498C127.789 408.597 127.593 408.498 127.397 408.203C127.201 408.007 127.102 407.615 127.005 407.223C126.906 406.634 126.906 405.555 126.906 404.082C126.906 402.512 127.005 400.452 127.102 397.9C127.496 394.662 127.789 391.817 128.084 389.559C128.379 387.205 128.672 385.242 128.967 383.672C129.065 383.084 129.065 382.593 129.065 382.102C129.163 381.71 129.163 381.219 129.163 380.925L132.107 379.943C132.5 379.846 132.597 379.256 132.696 378.373C132.696 377.392 132.597 376.018 132.304 374.252C132.205 373.761 132.205 373.467 132.107 373.173C132.009 372.878 131.813 372.78 131.616 372.682C131.42 372.486 131.224 372.388 131.126 372.29C131.027 372.191 130.93 372.093 130.831 371.995C130.831 371.406 130.93 370.523 131.224 369.345C131.518 368.266 131.518 367.285 131.518 366.598C131.322 365.715 131.027 365.127 130.635 364.734C130.242 364.341 129.654 364.145 128.967 364.341C127.692 364.537 126.612 366.108 125.827 369.052C125.14 371.995 124.159 373.565 123.177 373.761L121.706 373.565C121.215 373.664 120.823 373.86 120.528 373.957C120.136 374.056 119.743 374.154 119.449 374.351C119.155 374.252 118.664 374.252 118.075 374.252C117.486 374.252 116.799 374.351 116.015 374.448C115.622 374.547 115.229 374.743 114.739 374.939C114.15 374.939 113.561 374.84 112.777 374.939C112.09 374.939 111.304 375.038 110.421 375.135C109.636 375.234 109.048 375.822 108.753 376.902C108.459 377.883 108.459 379.355 108.753 381.317C108.753 381.513 108.949 381.808 109.145 381.906C109.342 382.102 109.636 382.2 110.028 382.298C110.225 382.397 110.519 382.397 110.814 382.495C111.108 382.495 111.403 382.691 111.697 382.789C111.894 382.789 112.383 382.691 112.874 382.691C113.463 382.593 113.856 382.593 114.052 382.593L119.645 381.906C119.841 381.906 120.136 381.808 120.528 381.612C120.921 381.415 121.215 381.415 121.411 381.317C121.607 381.219 121.803 381.317 121.902 381.415C122 381.513 122.098 381.612 122.098 381.808C121.803 382.593 121.607 383.28 121.411 383.868C121.215 384.458 121.019 384.85 120.822 385.242C119.351 389.07 117.781 392.405 116.211 395.349C114.543 398.293 112.874 400.844 111.01 403.199C110.715 403.69 110.421 404.181 110.225 404.573C110.029 404.965 109.832 405.26 109.636 405.555L109.538 405.947C109.145 406.339 108.655 406.83 108.262 407.321C107.87 407.811 107.379 408.203 107.085 408.694C106.594 409.185 106.005 409.676 105.515 409.872C105.024 410.167 104.436 410.264 103.945 410.363C103.553 410.46 103.159 410.363 102.767 410.363C102.473 410.264 102.179 410.068 102.08 409.773C101.884 409.676 101.59 408.989 101.099 407.811C100.609 406.634 100.314 405.848 100.02 405.26C99.8236 404.377 99.4313 403.395 99.1367 402.512C98.842 401.629 98.4498 400.746 98.1552 399.863C97.7629 398.882 97.1746 398.097 96.3892 397.704C95.6042 397.312 94.721 397.214 93.6416 397.312C93.2491 397.312 92.9548 397.508 92.5623 397.704C92.1698 397.999 91.8754 398.391 91.6791 398.882C91.0903 400.06 89.9129 401.727 88.0485 403.69C86.2822 405.751 85.1047 407.321 84.4178 408.498V408.989L84.2216 409.284C83.6329 409.97 83.1421 410.559 82.6516 410.951C82.1609 411.442 81.7685 411.834 81.474 412.129C80.1984 412.718 79.3153 413.208 78.5303 413.502C77.7453 413.895 77.3527 413.993 77.2546 413.993C74.9977 414.288 73.2314 413.797 71.8577 412.521C70.4839 411.246 69.6008 409.086 69.2084 406.241C69.9933 404.672 70.6802 403.003 71.367 401.237C71.8577 400.157 72.3483 399.177 72.8389 398.391C73.3296 397.508 73.6241 396.919 73.9184 396.331C74.1146 395.644 74.3109 395.153 74.4091 394.662C74.5071 394.171 74.7034 393.779 74.8014 393.485C75.0959 392.798 75.3901 392.209 75.6845 391.719C75.8808 391.228 76.1752 390.836 76.2733 390.443C76.5678 389.756 76.7641 389.07 76.8622 388.579C76.9604 388.088 77.0582 387.597 77.1564 387.205C77.3526 386.616 77.6472 386.125 77.8434 385.635C78.0398 385.144 78.2358 384.751 78.4321 384.458C78.7264 383.28 78.9226 382.102 79.1189 381.023C79.217 380.042 79.4134 379.159 79.5116 378.373C79.8059 377.49 80.002 376.803 80.1002 376.117C80.1983 375.43 80.3945 374.939 80.3945 374.547L80.2966 373.957C80.3947 373.664 80.3945 373.369 80.3945 373.173C80.2965 372.486 80.3945 371.603 80.5907 370.622C80.7871 369.64 80.7872 368.953 80.7872 368.365C80.7872 367.874 80.6891 367.089 80.7872 366.108C80.7872 365.127 80.7871 364.341 80.689 363.85C80.3946 361.986 80.0021 360.809 79.2171 360.22C78.4321 359.632 77.2546 359.436 75.5865 359.729C74.7033 359.828 73.8203 360.612 72.9372 361.888C72.054 363.164 70.9746 365.127 69.9934 367.678C69.2084 369.543 68.5214 371.406 67.9327 373.173C67.3439 374.939 66.9514 376.705 66.5589 378.276C66.2646 379.256 66.0683 380.139 65.7739 380.826C65.5777 381.612 65.3815 382.298 65.087 382.789C64.5965 385.634 64.1058 388.284 63.8113 390.737C63.4189 393.191 63.1246 395.448 63.1246 397.508L63.517 398.293C63.3207 398.686 63.2225 399.666 63.2225 401.237C63.1244 402.807 63.2225 403.985 63.2225 404.672C63.4188 404.868 63.4188 405.161 63.517 405.555C63.517 405.848 63.6152 406.045 63.6152 406.241C63.6152 406.339 63.5169 406.535 63.4187 406.634L60.8676 409.676C60.4751 410.167 60.1806 410.755 59.9844 411.246C59.7881 411.736 59.592 412.129 59.3957 412.423C59.1014 412.718 58.8069 413.012 58.6106 413.208C58.4144 413.405 58.1201 413.502 57.9239 413.502C57.7275 413.502 57.5312 413.502 57.335 413.306C57.1387 413.208 56.9425 412.914 56.8444 412.619C57.0406 412.227 57.335 411.834 57.6294 411.147C57.9238 410.46 58.1202 409.773 58.2183 408.793C58.4145 407.909 58.5125 407.124 58.5125 406.535C58.6105 405.751 58.5125 405.26 58.5125 404.672C58.12 402.022 57.3349 400.157 56.0593 398.979C54.7837 397.803 53.1155 397.41 50.9568 397.704C50.7606 397.704 50.27 397.9 49.5831 398.195C48.8963 398.587 47.8169 399.078 46.6393 399.765L46.2467 399.373C46.5411 398.686 46.7375 397.9 46.9338 397.214C46.8356 396.919 46.6392 396.723 46.2467 396.625C45.9524 396.527 45.4617 396.527 44.7748 396.625C44.1861 396.723 43.6955 396.919 43.205 397.214C42.7143 397.508 42.3217 397.9 41.831 398.391C41.5367 398.882 41.1442 399.373 40.8498 399.863C40.5554 400.353 40.163 400.844 39.7705 401.335C39.4761 401.727 39.0836 402.12 38.7893 402.512C38.3968 402.905 38.0042 403.298 37.7098 403.788C37.2191 404.278 36.925 404.769 36.6306 405.26C36.3361 405.751 36.1398 406.143 36.0417 406.535C35.9435 406.634 35.8456 406.732 35.6493 406.928C35.8456 406.438 35.9435 406.045 36.0417 405.555C36.6305 403.199 36.7286 400.353 36.2379 397.116C35.9435 395.349 35.5511 393.681 35.0605 392.307C34.5698 390.836 33.9812 389.462 33.1961 388.284C32.6074 387.205 31.7242 386.125 30.743 385.046C29.6636 383.868 28.3878 382.691 26.9159 381.317C26.7197 381.121 26.4254 380.925 26.2291 380.63C26.0329 380.434 25.8367 380.336 25.7385 380.238C24.7573 379.551 23.8741 378.963 23.2854 378.472C22.6966 377.981 22.3041 377.686 22.1078 377.392C20.6359 376.705 19.6548 376.117 18.9679 375.528C18.2811 374.939 16.7108 374.252 14.1595 373.467C13.2764 373.173 12.3934 372.977 11.5102 372.682C10.6271 372.388 9.84199 372.191 8.95885 371.897L7.58518 372.093C7.29081 371.897 6.70196 371.701 6.01507 371.505C5.13194 371.603 3.8565 372.78 2.28648 374.939C0.618339 377.098 -0.166717 378.569 0.0295354 379.452C0.0295354 379.65 0.225643 380.042 0.618147 380.532C1.01065 381.023 1.69768 381.71 2.48268 382.593C3.26769 383.574 3.95457 384.359 4.44521 385.046C4.93583 385.634 5.32819 386.224 5.52445 386.616L4.93583 401.04L5.42646 402.611C5.32834 403.591 5.32838 404.573 5.23026 405.358C5.23026 406.143 5.13204 406.83 5.13204 407.223C5.23016 408.89 5.23012 410.167 5.32824 411.05C5.32824 411.933 5.32824 412.521 5.32824 412.718C5.23012 414.484 5.23016 416.25 5.13204 418.017C5.13204 418.31 5.32819 418.801 5.52445 419.39C5.72069 419.979 5.81896 420.47 5.91709 420.764C6.11334 421.941 5.42641 422.922 4.15078 423.805C2.77701 424.688 2.18825 425.278 2.18825 425.67C2.18825 425.965 2.38451 426.259 2.67889 426.553C2.97327 426.75 3.36582 426.946 3.95457 427.142C4.34707 427.338 4.73953 427.534 5.13204 427.633C5.52454 427.829 5.917 427.927 6.3095 428.025L6.89835 430.577C6.7021 432.048 6.60383 433.324 6.5057 434.306C6.40758 435.286 6.40758 436.169 6.5057 436.758C6.80008 438.819 7.19263 443.039 7.78139 444.019C8.37015 445.001 9.1553 445.393 10.1365 445.296C10.6272 445.197 11.1178 444.902 11.6084 444.413C12.0991 443.922 12.5896 443.235 12.9821 442.352C13.3746 441.567 13.669 440.978 13.9634 440.389C14.2578 439.801 14.454 436.366 14.6502 435.777C13.8652 435.09 13.3745 434.403 12.8839 433.815C12.4914 433.226 12.1971 432.637 12.1971 432.146C12.0989 430.773 12.0008 429.3 11.9026 427.829C11.7064 425.572 11.7064 424.395 11.9026 424.199C12.0989 424.1 12.5896 423.904 13.4728 423.805C13.7671 423.805 14.1595 423.609 14.6502 423.217C15.1409 422.922 15.8278 422.53 16.5147 422.04C19.1641 420.47 21.6172 419.096 23.9721 417.82C25.1497 417.133 26.131 416.545 27.0142 416.054C25.5423 418.31 29.1728 419.684 32.5091 416.937C33.0978 416.446 33.2941 416.152 33.4903 416.152C33.7847 416.152 33.9811 416.152 34.0792 416.25C34.1773 416.348 34.3736 416.545 34.3736 416.741C34.3736 416.937 34.2755 417.722 34.1774 418.9C33.9812 420.077 33.9811 421.058 34.0792 421.843C34.2754 423.609 35.1585 424.983 36.7286 426.259C38.2985 427.534 39.8688 427.927 41.5369 427.731C41.8312 427.633 42.1256 427.534 42.5181 427.436C43.0088 427.24 43.2049 427.142 43.4012 427.142C43.8917 427.044 44.3825 426.946 44.9712 426.651C45.56 426.357 46.1488 425.965 46.9338 425.474C48.1113 424.787 49.1905 424.002 50.1718 423.021C51.0548 422.04 51.84 421.058 52.4287 419.979C52.723 420.567 53.2137 420.96 53.7044 421.254C54.195 421.451 54.7838 421.647 55.4707 421.451C56.0594 421.353 56.6483 421.157 57.237 420.862C57.7276 420.47 58.4143 419.979 59.003 419.39C59.4937 418.9 59.9845 418.409 60.377 417.918C60.8676 417.427 61.2601 416.839 61.7506 416.348C62.4375 415.563 62.9283 414.975 63.3208 414.288C63.7133 413.698 64.1057 413.208 64.4982 412.718C64.7926 412.914 64.9888 413.11 65.1851 413.306C65.3813 413.502 65.4795 413.698 65.5777 413.993C66.3627 416.545 67.3439 418.507 68.6195 419.587C69.8951 420.764 71.367 421.254 73.0351 421.058C73.5258 420.96 74.3108 420.96 75.2921 420.96C76.2733 420.862 76.9602 420.862 77.4508 420.764C78.3339 420.666 79.2171 420.274 80.1983 419.783C81.0815 419.292 81.9648 418.507 82.7497 417.624C83.4366 416.839 84.1234 416.054 84.8102 415.268C85.4971 414.385 86.1841 413.698 86.8709 412.816H86.7728C87.754 411.442 88.5391 410.363 89.3242 409.577C90.1091 408.793 90.5999 408.4 91.0904 408.4C91.2867 408.4 91.4828 408.498 91.8753 408.793C92.1696 409.086 92.5622 409.577 92.9547 410.167C93.3473 410.559 93.6416 410.853 93.936 411.246C94.2304 411.54 94.4265 411.834 94.6229 412.031C95.9966 414.68 97.0761 416.348 97.9591 416.839C98.842 417.329 100.609 417.427 103.356 417.035C103.847 416.937 104.436 416.741 105.22 416.152C106.005 415.563 106.987 414.779 108.066 413.797C109.048 412.816 109.931 412.031 110.617 411.344C111.304 410.657 111.893 409.97 112.286 409.48C112.482 408.989 112.777 408.597 112.874 408.302C113.07 408.007 113.169 407.811 113.266 407.615C114.64 405.848 115.916 404.181 117.29 402.611C118.173 401.629 118.86 400.648 119.449 399.765C120.038 398.882 120.528 398.097 120.822 397.312L121.215 397.017C121.51 397.115 121.607 397.214 121.706 397.41C121.411 398.293 121.215 399.078 121.019 399.765C121.019 400.943 121.019 402.12 120.921 403.298C120.921 403.985 120.921 404.573 120.921 405.161C120.921 405.652 120.921 406.045 120.921 406.339C120.823 406.535 120.823 406.732 120.724 407.026C120.528 407.811 120.528 408.89 120.528 410.167C120.627 411.442 120.724 412.914 121.019 414.581C121.215 416.152 121.706 417.231 122.49 417.918C123.177 418.605 124.257 418.9 125.533 418.704C126.121 418.605 126.71 418.409 127.397 417.918C127.985 417.526 128.672 416.839 129.262 415.955C129.654 415.367 130.145 414.68 130.537 413.993C130.93 413.306 131.42 412.619 131.91 412.031C132.401 411.442 132.793 410.853 133.088 410.46C133.48 409.97 133.775 409.577 134.07 409.185C134.757 408.597 135.345 408.007 135.836 407.517C136.326 407.026 136.621 406.634 136.916 406.143V406.045C137.209 405.652 137.504 405.26 137.7 404.965C137.995 404.672 138.191 404.573 138.486 404.573C138.779 404.474 139.074 404.672 139.369 404.965C139.663 405.26 139.957 405.652 140.35 406.241C140.84 407.026 141.134 407.615 141.527 408.203C141.92 408.793 142.215 409.086 142.607 409.381C143.195 409.872 143.98 410.264 144.961 410.46C145.845 410.657 146.826 410.657 147.906 410.559C148.69 410.46 149.475 410.264 150.064 410.068C150.653 409.872 151.143 409.577 151.536 409.284C152.714 409.086 153.89 408.498 155.167 407.517C156.442 406.438 157.816 405.064 159.288 403.101C159.68 402.414 159.877 401.924 159.975 401.727C160.073 401.433 160.171 401.335 160.269 401.237C160.956 400.157 161.545 399.274 162.035 398.587C162.526 397.9 162.918 397.214 163.311 396.625L163.704 397.017C163.802 397.508 163.802 397.999 163.704 398.686C163.704 399.373 163.605 400.06 163.508 400.943C163.213 402.807 163.017 404.474 163.017 406.143C163.017 407.713 163.114 409.284 163.311 410.657C163.508 412.031 163.9 413.012 164.685 413.698C165.274 414.288 166.255 414.484 167.433 414.385C168.217 414.288 168.806 413.895 169.199 413.306C169.689 412.619 170.082 412.031 170.376 411.442C170.67 410.951 171.063 410.559 171.357 410.264C171.652 409.97 171.848 409.676 171.946 409.381C172.437 408.694 172.829 408.007 173.221 407.223C173.615 406.535 174.105 405.848 174.498 405.161C175.184 404.082 175.97 402.905 176.95 401.727C177.049 401.727 178.324 402.414 180.679 403.985C183.035 405.456 184.702 406.143 185.585 406.045C186.469 405.947 187.253 405.652 188.039 405.161C188.823 404.672 189.609 403.886 190.394 402.905C191.081 402.218 191.669 401.433 192.258 400.648C192.847 399.863 193.534 399.078 194.123 398.293L194.025 398.195C194.221 397.9 194.417 397.606 194.417 397.41C194.515 397.214 194.613 397.017 194.613 396.821C195.104 396.232 195.496 395.84 195.791 395.349C196.085 394.957 196.38 394.565 196.674 394.368C196.87 394.171 197.164 393.878 197.558 393.288C198.047 392.7 198.538 391.915 199.324 390.933C199.912 390.05 200.403 389.462 200.795 389.07C201.188 388.579 201.58 388.383 201.875 388.383C202.169 388.383 202.463 388.383 202.562 388.48C202.758 388.579 202.855 388.676 202.855 388.971C202.954 389.167 202.954 389.363 202.855 389.658C202.855 389.953 202.758 390.345 202.758 390.737C202.659 391.13 202.562 391.522 202.562 391.719C202.463 392.013 202.463 392.209 202.463 392.307C202.071 394.858 201.776 397.214 201.384 399.078C201.089 400.943 200.795 402.611 200.501 403.886C200.697 404.672 200.893 405.555 201.188 406.339C201.384 407.124 202.071 407.419 203.249 407.321C203.837 407.222 204.426 407.124 204.818 406.928C205.309 406.732 205.701 406.438 205.996 406.045C206.29 405.652 206.683 405.26 206.977 404.868C207.271 404.377 207.664 403.985 207.958 403.592C209.234 401.826 210.313 400.353 211.098 399.078C211.982 397.803 212.57 396.821 212.865 396.036C212.962 395.644 213.356 395.251 213.845 394.858C214.435 394.466 215.22 393.583 216.397 392.307C216.986 391.62 217.477 391.13 217.967 390.639C218.457 390.246 218.948 389.854 219.537 389.658L219.93 389.756C220.715 390.541 221.402 391.13 221.99 391.719C222.58 392.307 223.069 392.7 223.56 393.092C224.149 393.975 224.639 394.662 225.13 395.349C225.523 395.84 225.915 396.232 226.21 396.429C226.701 397.017 227.289 397.312 227.976 397.606C228.663 397.803 229.251 397.803 230.037 397.704C230.625 397.606 231.214 397.41 231.705 397.116C232.293 396.821 232.883 396.232 233.471 395.545C233.962 395.054 234.354 394.565 234.845 394.074C235.336 393.583 235.728 393.092 236.219 392.602C237.2 391.228 237.985 390.05 238.77 389.363C239.457 388.579 240.045 388.186 240.536 388.088C240.732 388.088 240.929 388.186 241.321 388.48C241.616 388.775 242.008 389.266 242.499 389.854C242.793 390.246 243.186 390.541 243.479 390.933C243.774 391.228 243.97 391.424 244.167 391.719C245.541 394.466 246.62 396.036 247.503 396.527C248.386 397.017 250.152 397.116 252.9 396.723C253.293 396.625 253.98 396.331 254.764 395.741C255.55 395.153 256.531 394.466 257.61 393.387C258.592 392.405 259.475 391.62 260.161 390.933C260.848 390.246 261.437 389.559 261.83 389.07C262.222 388.383 262.418 387.892 262.517 387.696C262.614 387.499 262.713 387.303 262.81 387.107C263.4 386.027 264.087 385.242 264.577 384.458C265.067 383.771 265.558 383.084 265.853 382.593L266.147 382.985C266.245 383.378 266.245 383.967 266.147 384.654C266.147 385.341 266.049 386.027 265.951 386.91C265.656 388.676 265.46 390.443 265.46 392.111C265.46 393.681 265.46 395.251 265.755 396.723C265.951 398.097 266.343 399.078 267.03 399.666C267.717 400.256 268.6 400.452 269.876 400.256C270.661 400.157 271.25 399.863 271.642 399.177C272.034 398.587 272.525 397.9 272.82 397.312C273.114 396.821 273.507 396.429 273.801 396.134C274.095 395.84 274.291 395.545 274.39 395.251C274.88 394.565 275.273 393.878 275.665 393.191C276.058 392.504 276.45 391.817 276.941 391.13C277.628 389.953 278.412 388.873 279.394 387.696C279.59 387.597 280.768 388.383 283.123 389.953C285.478 391.522 287.048 392.209 288.03 392.111C288.913 391.915 289.697 391.62 290.482 391.13C291.267 390.639 292.052 389.953 292.838 388.971C293.525 388.186 294.113 387.401 294.702 386.616C295.291 385.831 295.977 385.046 296.566 384.261C296.37 383.672 301.276 376.607 299.608 375.822ZM25.6403 410.167C25.3459 410.559 24.7572 411.05 24.1684 411.736C23.6778 412.227 23.2855 412.619 22.893 412.914C22.5004 413.306 22.1078 413.601 21.8135 413.797C21.0284 414.288 20.3416 414.779 19.6547 415.171C18.9678 415.563 18.2811 416.152 17.496 416.642C16.4166 417.428 15.4353 418.016 14.7484 418.409C14.0616 418.801 13.4727 418.997 13.1783 418.997C12.9821 418.997 12.786 418.997 12.5897 418.801C12.3935 418.704 12.2953 418.409 12.2953 418.114C12.099 416.839 12.0989 415.072 12.1971 412.914C12.2952 410.755 12.4914 408.106 12.8839 404.965L12.2953 403.199C12.5897 402.316 12.9822 399.765 13.571 395.545C14.1597 391.326 14.3559 388.971 14.2578 388.383C14.0616 386.616 11.9026 384.261 7.9776 381.121C7.9776 380.925 7.97768 380.729 8.07582 380.729C8.17394 380.63 8.27197 380.532 8.46822 380.532C9.54761 380.826 10.4308 381.219 11.2158 381.415C12.0989 381.71 12.7858 381.808 13.3745 382.004C13.767 382.298 14.0615 382.593 14.454 382.789C14.7483 383.084 15.1408 383.28 15.3371 383.378C17.692 384.85 19.5566 386.224 21.0284 387.401C22.4022 388.579 23.4817 389.658 24.0704 390.443C24.2666 390.836 24.5611 391.228 24.8554 391.522C25.0517 391.719 25.346 392.013 25.5423 392.111C25.7385 392.307 25.9346 392.504 26.1309 392.7C26.3271 392.798 26.4253 392.994 26.4253 393.191L26.7197 394.27C27.4066 395.349 27.8974 396.527 28.2899 397.606C28.6824 398.686 28.9767 399.765 29.1729 400.844C29.3692 402.709 29.3693 404.278 28.7805 405.751C28.2899 407.124 27.5049 408.4 26.3273 409.48C26.2292 409.577 25.9346 409.773 25.6403 410.167ZM52.2325 411.442C52.2325 412.031 52.1344 412.619 52.0363 413.012C51.9382 413.405 51.8401 413.699 51.5457 413.895C51.2512 414.484 50.8587 415.072 50.4662 415.662C49.6812 417.329 48.6999 418.605 47.7186 419.488C46.6392 420.371 45.4618 420.96 44.088 421.157C43.2049 421.254 42.6161 421.157 42.1255 420.764C41.6348 420.371 41.3406 419.783 41.2424 418.997C41.1444 418.507 41.1444 418.017 41.2424 417.329C41.3406 416.642 41.4386 415.858 41.6348 414.876C41.8311 413.797 42.0273 412.914 42.3217 412.325C42.6161 411.736 42.8124 411.442 43.1067 411.344C43.5974 411.147 43.9898 411.05 44.2842 410.755C44.5785 410.559 44.9712 410.167 45.1674 409.773C45.56 408.89 45.9524 408.106 46.2467 407.321C46.4429 406.83 46.7375 406.438 46.9338 406.143C47.2282 405.848 47.3261 405.652 47.5224 405.555C48.5036 405.555 49.1906 405.555 49.7793 405.555C50.27 405.652 50.6625 405.652 50.7606 405.751C51.0549 405.848 51.2512 406.143 51.5457 406.634C51.9382 407.124 52.2324 407.811 52.6249 408.596L52.2325 411.442ZM68.9139 396.625C68.8158 396.232 68.914 395.448 69.0122 394.368C69.2084 393.288 69.4044 391.915 69.7969 390.149C70.1894 388.971 70.4839 387.892 70.8764 386.91C71.0727 386.125 71.3671 385.438 71.4653 384.85C71.5633 384.359 71.6614 383.967 71.5633 383.771C71.4651 382.495 71.6613 381.023 72.2501 379.452C72.937 377.883 73.9184 376.313 75.3903 374.448L75.6845 374.547C75.6845 375.135 75.5865 375.724 75.5865 376.313C75.4884 376.902 75.4884 377.49 75.5865 378.079C75.5865 378.766 75.2922 380.63 74.6053 383.476C73.9183 386.322 73.4277 388.088 73.0351 388.775C72.6426 389.756 72.2503 390.737 71.9559 391.522C71.5633 392.307 71.269 392.896 71.1708 393.485C70.7783 394.565 70.484 395.349 70.1896 395.938C69.8952 396.527 69.6007 396.821 69.3063 396.919L68.9139 396.625ZM144.275 392.307C144.078 392.7 143.882 392.896 143.588 392.896C143.294 392.994 143.195 392.896 143.098 392.896C142.999 392.798 142.9 392.7 142.9 392.504C142.803 391.719 143.195 390.345 144.078 388.579C144.962 386.714 145.648 385.733 146.335 385.635C146.532 385.635 146.728 385.635 146.826 385.831C146.924 386.027 147.023 386.224 147.023 386.42C147.12 386.812 147.022 387.303 146.924 387.696C146.728 388.186 146.629 388.579 146.237 389.07C146.041 389.462 145.746 389.756 145.55 390.149C145.256 390.541 145.06 390.933 144.765 391.228C144.667 391.62 144.471 391.915 144.275 392.307Z" fill="#00426D"/>
<path fill-rule="evenodd" clip-rule="evenodd" d="M276.254 38.4654C277.628 35.2272 278.314 31.5965 278.314 27.8678C278.314 12.462 265.754 0 250.348 0C234.942 0 222.481 12.462 222.481 27.8678C222.481 28.3584 222.481 28.849 222.579 29.3397H53.5078C24.07 29.3397 0.0291443 53.3805 0.0291443 82.7202V275.44C0.0291443 304.779 24.07 328.82 53.5078 328.82H246.522C275.861 328.82 300 304.779 300 275.44V82.8183C300 64.3706 290.482 48.0817 276.254 38.4654Z" fill="#00426D"/>
<path fill-rule="evenodd" clip-rule="evenodd" d="M266.732 119.419V179.08V238.839V298.499H234.056V266.511L232.094 272.398L229.641 278.187L226.795 283.584L223.557 288.49L221.791 290.65L219.927 292.612L215.903 295.751L213.745 296.929L211.488 297.911L209.23 298.401L206.876 298.499H173.611L166.252 245.414L182.835 245.806L187.937 245.707L193.04 245.414L198.143 244.334L200.596 243.549L202.755 242.469L203.735 241.292L204.521 239.82L205.208 238.446L205.698 236.876L205.992 235.11L206.091 233.246L205.992 229.321L205.306 225.2L204.129 220.98L202.755 216.663L201.086 212.541L181.952 174.469L196.965 145.521L199.026 140.811L200.694 136.69L201.773 132.961L202.558 129.625L202.755 126.583L202.656 124.031L202.264 121.775L201.479 119.813L200.4 118.144L199.026 116.77L197.357 115.69L195.395 114.807L193.335 114.12L191.077 113.728L188.526 113.434H185.877H172.63L173.121 122.167L173.218 130.999L172.925 139.829L172.139 148.661L171.158 157.296L169.784 165.735L168.116 173.683L167.135 177.412L166.252 181.043L165.074 184.869L163.602 188.697L160.266 196.743L158.303 200.962L156.243 205.182L151.337 213.719L148.786 218.134L146.038 222.452L140.052 231.185L133.772 239.722L130.435 243.941L127.198 248.161V298.499H100.605V270.042L94.8158 298.499H33.2908V238.839V179.08V119.419V59.759H65.9668L65.7706 152.684L65.6725 245.806H100.605V184.379V123.05H127.198V185.556L129.847 181.043L132.986 175.548L136.127 169.463L139.169 162.889L141.916 156.021L144.174 149.053L145.154 145.521L145.743 142.185L146.136 138.75L146.332 135.611L146.038 128.349L145.154 123.148L144.37 121.382L143.584 119.91L142.604 118.732L141.524 117.948L138.875 117.163L135.735 116.966L127.982 117.261H93.1477L100.605 60.0533H135.44L138.776 60.1515L142.113 60.7403L144.958 61.5252L147.902 62.7028L150.551 64.1747L153.004 65.8428L155.458 67.8053L157.519 70.0623L159.677 72.4172L161.444 75.2629L164.681 81.1505L166.153 84.4867L167.429 87.9211L168.606 91.4537L169.489 95.2805L174.396 59.759H201.577L204.815 59.9553L207.858 60.7403L210.604 61.8197L213.352 63.1934L216.001 65.1559L218.357 67.4128L220.613 70.0623L222.576 73.006L224.539 76.1461L226.207 79.5804L227.58 83.4074L228.757 87.3324L229.739 91.4537L230.426 95.7712L230.917 100.285L231.015 104.896L230.818 115.397L230.131 124.621L228.954 133.059L228.267 137.18L227.482 141.007L225.52 148.661L223.262 156.315L217.767 172.8L221.3 181.043L225.618 191.738L230.131 204.396L232.29 211.265L234.056 218.428V139.045V59.759H266.732V119.419Z" fill="white"/>
<path fill-rule="evenodd" clip-rule="evenodd" d="M250.346 51.6146C237.296 51.6146 226.6 40.9188 226.6 27.8682C226.6 14.8174 237.296 4.12164 250.346 4.12164C263.397 4.12164 274.093 14.8174 274.093 27.8682C274.192 40.9188 263.495 51.6146 250.346 51.6146Z" fill="#ED1C24"/>
<path d="M97.9639 371.503C98.7483 371.406 99.2391 371.503 99.6313 371.699C100.025 371.994 100.221 372.386 100.318 372.877C100.221 373.761 100.221 374.448 100.122 375.036C100.025 376.115 99.8274 377.097 99.7299 377.784C99.5337 378.471 99.4352 378.961 99.4352 379.256C99.2391 379.943 98.9444 380.531 98.6508 381.12C98.2576 381.709 97.7678 382.2 97.1785 382.69C96.5899 383.18 96.0009 383.671 95.6084 383.868C95.2159 384.064 94.9217 384.26 94.7254 384.26C94.2348 384.26 93.7442 384.26 93.2535 384.26C92.861 384.26 92.3703 384.358 91.8796 384.456C91.4871 384.26 91.0948 383.868 90.8004 383.377C90.4079 382.788 90.3098 382.004 90.1135 381.022C90.0154 380.139 90.4079 378.961 91.291 377.489C92.1742 376.018 93.0571 375.134 93.8422 374.938C94.2347 374.251 94.7253 373.466 95.3141 372.583C95.6084 372.386 95.9029 372.093 96.3936 371.897C96.8838 371.699 97.3746 371.503 97.9639 371.503Z" fill="#ED1C24"/>
<path d="M247.301 350.8C248.085 350.702 248.576 350.8 248.968 350.997C249.362 351.29 249.558 351.684 249.655 352.272C249.558 353.155 249.558 353.842 249.558 354.333C249.362 355.412 249.263 356.295 249.067 357.08C248.969 357.767 248.871 358.258 248.772 358.552C248.576 359.239 248.282 359.926 247.988 360.417C247.595 360.907 247.105 361.496 246.516 361.987C245.927 362.575 245.437 362.967 244.946 363.164C244.455 363.36 244.16 363.557 244.063 363.557C243.572 363.557 243.081 363.557 242.59 363.654C242.1 363.654 241.708 363.753 241.217 363.753C240.825 363.557 240.432 363.262 240.138 362.674C239.843 362.084 239.548 361.3 239.451 360.318C239.352 359.435 239.745 358.258 240.628 356.785C241.511 355.314 242.297 354.431 243.18 354.234C243.572 353.547 244.063 352.763 244.651 351.88C244.946 351.684 245.24 351.389 245.73 351.193C246.123 350.997 246.712 350.898 247.301 350.8Z" fill="#ED1C24"/>
</g>
</svg>
